<?xml version="1.0" encoding="utf-8"?>
<svg id="svg" version="1.1" width="400" height="370.27522935779814" viewBox="0, 0, 400,370.27522935779814" xmlns="http://www.w3.org/2000/svg">
  <g id="svgg">
    <path id="path0" d="M147.890 24.629 C 140.737 25.774,134.418 31.861,132.468 39.485 C 128.634 54.475,143.623 67.334,158.522 61.836 L 161.265 60.824 162.704 62.430 C 166.483 66.650,166.402 65.991,166.309 91.651 L 166.239 111.193 147.890 111.193 L 129.541 111.193 129.541 102.369 L 129.541 93.545 130.419 92.736 C 130.902 92.291,132.046 91.306,132.963 90.547 C 140.543 84.268,135.657 71.468,125.680 71.468 C 115.115 71.468,110.487 84.830,118.848 91.193 C 121.872 93.494,121.864 93.459,121.750 102.742 L 121.651 110.824 104.587 110.916 C 81.747 111.041,81.949 111.126,76.517 99.042 C 75.393 96.541,74.318 94.216,74.128 93.875 C 73.855 93.386,74.085 93.016,75.224 92.114 C 80.581 87.872,83.192 78.715,80.998 71.866 C 75.208 53.784,50.412 53.483,43.975 71.417 C 39.557 83.726,50.343 97.878,63.289 96.758 C 66.639 96.469,67.523 96.997,68.784 100.041 C 75.031 115.117,79.232 118.165,93.758 118.165 C 97.435 118.165,101.458 118.271,102.698 118.401 L 104.954 118.637 104.954 126.291 L 104.954 133.945 93.394 133.945 L 81.835 133.945 81.835 141.651 L 81.835 149.358 65.480 149.358 C 47.161 149.358,48.229 149.523,46.585 146.439 C 38.773 131.783,16.328 138.573,18.386 154.969 C 20.277 170.027,39.617 173.234,46.744 159.671 C 48.596 156.146,47.537 156.330,65.895 156.330 L 81.835 156.330 81.835 170.459 L 81.835 184.587 74.404 184.586 C 66.018 184.584,65.462 184.438,63.833 181.801 C 57.979 172.331,42.631 177.721,43.779 188.844 C 44.888 199.584,57.712 202.524,64.220 193.529 C 65.287 192.056,66.082 191.927,74.104 191.927 L 81.835 191.927 81.835 199.633 L 81.835 207.339 93.394 207.339 L 104.954 207.339 104.954 214.808 L 104.954 222.276 92.417 222.474 C 77.869 222.704,78.296 222.778,76.864 219.782 C 70.219 205.878,49.252 212.037,50.364 227.567 C 51.320 240.940,70.529 245.195,76.517 233.360 C 78.331 229.776,76.718 229.954,104.383 230.273 L 127.890 230.545 127.890 241.786 L 127.890 253.028 131.627 253.132 L 135.365 253.236 135.480 256.974 C 135.699 264.012,135.087 264.873,126.465 269.655 C 123.212 271.460,119.147 273.728,117.431 274.696 C 115.716 275.665,112.752 277.321,110.844 278.378 L 107.377 280.299 105.523 278.727 C 86.525 262.619,60.884 288.996,78.744 306.276 C 91.851 318.957,112.485 309.298,111.438 290.972 C 111.279 288.180,111.342 286.912,111.663 286.483 C 112.070 285.939,122.193 280.147,129.908 276.044 C 140.278 270.528,142.470 267.510,142.693 258.440 L 142.821 253.211 146.818 253.211 L 150.815 253.211 150.912 264.679 L 151.009 276.147 162.309 276.223 L 173.609 276.300 173.685 287.599 L 173.761 298.899 177.712 299.003 L 181.662 299.108 181.565 310.180 L 181.468 321.252 179.266 322.015 C 156.811 329.798,165.161 363.224,188.575 359.274 C 207.255 356.123,210.230 331.087,192.911 322.775 C 188.351 320.586,188.591 321.360,188.710 309.227 L 188.807 299.266 192.752 299.162 L 196.697 299.058 196.697 287.602 L 196.697 276.147 208.068 276.249 L 219.439 276.351 219.536 264.873 L 219.633 253.394 227.410 253.296 L 235.187 253.197 235.300 269.442 L 235.413 285.688 236.452 287.806 C 237.885 290.725,238.532 291.422,245.470 297.522 C 256.619 307.325,256.383 307.026,255.762 310.589 C 253.419 324.042,270.229 332.896,279.702 323.198 C 291.055 311.576,277.282 293.505,262.729 300.929 L 261.254 301.682 259.169 299.924 C 256.165 297.389,255.539 296.842,249.591 291.560 C 245.841 288.229,243.971 286.295,243.394 285.152 L 242.569 283.514 242.569 256.895 L 242.569 230.275 263.761 230.459 C 289.634 230.683,285.799 229.451,292.803 239.790 C 296.997 245.982,296.992 245.964,295.203 248.105 C 282.739 263.023,300.449 285.148,318.386 277.067 C 339.643 267.491,328.030 234.678,305.610 240.969 C 302.699 241.786,302.704 241.789,298.184 235.046 C 290.420 223.463,289.033 222.774,273.486 222.760 L 265.321 222.752 265.321 215.100 L 265.321 207.447 285.780 207.180 C 309.307 206.873,307.690 206.703,310.062 209.722 C 315.670 216.858,325.264 215.681,329.115 207.383 C 334.703 195.343,315.442 186.239,309.407 198.068 C 308.394 200.055,308.721 200.000,297.952 200.000 L 288.440 200.000 288.440 179.817 L 288.440 159.633 306.759 159.633 C 327.698 159.633,325.912 159.395,327.333 162.372 C 333.222 174.711,351.403 171.516,353.775 157.725 C 356.401 142.454,334.090 135.597,327.315 149.592 C 325.841 152.637,327.775 152.388,305.963 152.336 L 288.440 152.294 288.440 143.119 L 288.440 133.945 276.881 133.945 L 265.321 133.945 265.321 129.908 L 265.321 125.872 271.835 125.859 C 288.422 125.826,289.574 125.502,307.254 115.894 L 311.939 113.348 313.851 115.021 C 332.856 131.646,358.387 105.176,340.550 87.339 C 327.739 74.528,306.556 84.983,308.049 103.382 C 308.350 107.100,308.558 106.855,302.018 110.517 C 288.393 118.147,285.080 119.047,272.294 118.591 L 265.505 118.349 265.400 114.771 L 265.295 111.193 255.583 111.193 L 245.872 111.193 245.807 105.046 C 245.689 93.743,245.846 93.443,254.312 88.736 C 255.220 88.232,258.480 86.390,261.557 84.643 C 268.109 80.924,267.104 81.168,269.318 82.759 C 280.730 90.957,296.168 80.722,292.713 67.248 C 288.390 50.386,263.958 53.097,263.647 70.474 C 263.558 75.423,264.032 74.888,255.373 79.817 C 238.701 89.306,238.687 89.325,238.279 103.394 L 238.053 111.193 226.550 111.193 L 215.046 111.193 215.046 89.742 C 215.046 66.144,214.947 67.136,217.456 65.549 C 224.444 61.128,223.615 49.894,216.058 46.588 C 206.532 42.420,196.905 51.933,201.220 61.249 C 201.948 62.820,202.412 63.332,205.872 66.381 L 207.523 67.837 207.623 89.515 L 207.723 111.193 202.210 111.193 L 196.697 111.193 196.697 122.569 L 196.697 133.945 185.138 133.945 L 173.578 133.945 173.578 100.811 C 173.578 61.865,173.695 62.918,168.830 58.182 C 166.967 56.369,166.969 55.973,168.871 51.292 C 174.814 36.673,163.384 22.149,147.890 24.629 M156.233 35.478 C 162.528 38.466,162.573 49.009,156.304 52.215 C 148.276 56.320,139.998 50.064,142.018 41.417 C 143.414 35.443,150.191 32.611,156.233 35.478 M213.764 53.670 C 214.913 54.659,215.321 56.964,214.591 58.349 C 213.010 61.347,207.706 60.057,207.706 56.674 C 207.706 53.285,211.265 51.521,213.764 53.670 M281.008 64.418 C 283.959 65.651,285.289 67.950,285.068 71.434 C 284.561 79.387,273.204 80.029,271.577 72.196 C 270.451 66.772,275.895 62.281,281.008 64.418 M65.530 68.430 C 71.934 70.341,74.275 78.469,69.895 83.586 C 63.955 90.526,53.009 86.402,53.071 77.248 C 53.116 70.699,59.052 66.497,65.530 68.430 M128.838 79.297 C 130.967 81.425,130.923 84.066,128.729 85.938 C 124.055 89.928,118.053 83.913,122.141 79.334 C 124.099 77.142,126.669 77.127,128.838 79.297 M330.517 91.672 C 341.384 96.099,337.784 111.676,326.111 110.739 C 315.776 109.910,314.166 95.078,324.037 91.642 C 326.199 90.889,328.623 90.900,330.517 91.672 M173.578 145.271 L 173.578 156.597 175.281 156.831 C 177.483 157.133,191.006 157.129,194.220 156.825 L 196.697 156.591 196.697 145.211 L 196.697 133.831 230.550 134.064 C 249.170 134.192,264.486 134.319,264.587 134.348 C 264.688 134.376,264.886 134.382,265.027 134.362 C 265.167 134.341,265.293 150.681,265.305 170.672 C 265.321 195.044,265.206 206.945,264.958 206.791 C 264.754 206.665,264.587 206.740,264.587 206.958 C 264.587 207.234,261.305 207.333,253.762 207.285 C 247.808 207.248,242.845 207.308,242.732 207.420 C 242.620 207.533,242.531 212.546,242.534 218.562 C 242.538 224.578,242.396 229.675,242.220 229.888 C 242.001 230.151,238.515 230.216,231.316 230.089 C 224.429 229.967,220.498 230.033,220.059 230.278 C 219.426 230.630,219.386 231.333,219.415 241.553 C 219.445 251.952,219.414 252.471,218.740 252.831 C 218.297 253.068,214.104 253.194,207.504 253.169 C 198.994 253.137,196.912 253.226,196.649 253.629 C 196.470 253.904,196.366 258.855,196.419 264.632 C 196.489 272.395,196.400 275.243,196.076 275.544 C 195.326 276.245,174.431 276.068,174.159 275.359 C 173.698 274.160,173.925 256.582,174.404 256.407 C 174.771 256.272,174.771 256.141,174.404 255.752 C 174.151 255.485,173.945 254.804,173.945 254.239 L 173.945 253.211 162.391 253.211 L 150.836 253.211 150.739 241.769 L 150.642 230.327 139.266 230.301 L 127.890 230.275 127.824 218.899 L 127.757 207.523 116.356 207.426 L 104.954 207.329 104.954 170.637 L 104.954 133.945 139.266 133.945 L 173.578 133.945 173.578 145.271 M37.298 147.368 C 42.789 151.468,40.066 160.000,33.267 160.000 C 26.426 160.000,23.747 150.859,29.541 147.292 C 31.454 146.114,35.674 146.156,37.298 147.368 M343.100 150.586 C 347.311 153.372,347.260 158.730,343.000 161.124 C 337.295 164.330,330.861 157.839,334.521 152.570 C 336.706 149.425,340.145 148.630,343.100 150.586 M56.215 182.726 C 60.894 184.604,61.068 190.804,56.488 192.451 C 53.898 193.382,51.728 192.625,50.282 190.286 C 47.892 186.419,52.089 181.071,56.215 182.726 M321.208 200.373 C 323.425 202.116,323.222 204.850,320.752 206.513 C 319.163 207.583,317.657 207.358,316.239 205.839 C 313.257 202.648,317.779 197.675,321.208 200.373 M241.260 218.349 C 241.260 223.294,241.312 225.317,241.375 222.844 C 241.439 220.372,241.439 216.326,241.375 213.853 C 241.312 211.381,241.260 213.404,241.260 218.349 M67.731 221.096 C 71.370 223.228,71.681 227.824,68.395 230.894 C 64.323 234.698,58.349 231.757,58.349 225.950 C 58.349 221.172,63.400 218.558,67.731 221.096 M315.046 250.681 C 322.518 254.193,321.723 266.100,313.837 268.787 C 311.718 269.509,308.389 269.518,307.022 268.805 C 306.444 268.504,305.812 268.257,305.617 268.257 C 303.676 268.257,300.915 263.137,300.925 259.556 C 300.947 251.990,308.171 247.449,315.046 250.681 M94.917 283.448 C 100.483 284.929,103.339 290.370,101.599 296.175 C 99.577 302.925,89.245 304.595,84.633 298.918 C 78.703 291.619,85.756 281.009,94.917 283.448 M272.110 307.494 C 275.197 308.942,276.405 311.262,275.851 314.678 C 275.157 318.953,269.492 321.085,265.968 318.397 C 260.017 313.858,265.381 304.337,272.110 307.494 M188.398 331.093 C 191.984 332.164,194.888 336.577,194.846 340.892 C 194.752 350.674,181.216 353.608,176.721 344.820 C 172.726 337.009,179.913 328.560,188.398 331.093 " stroke="none" fill="#07060c" fill-rule="evenodd"/>
    <path id="path1" d="M149.814 34.550 C 144.509 35.170,141.116 39.642,141.768 45.153 C 143.044 55.921,158.567 56.474,160.799 45.831 C 162.240 38.961,157.114 33.698,149.814 34.550 M124.624 77.871 C 120.220 78.812,119.427 84.838,123.456 86.750 C 125.432 87.688,128.807 86.992,128.807 85.646 C 128.807 85.367,129.006 85.179,129.248 85.229 C 129.491 85.280,129.873 84.775,130.099 84.108 C 131.266 80.655,128.159 77.116,124.624 77.871 M324.037 91.642 C 314.166 95.078,315.776 109.910,326.111 110.739 C 336.054 111.537,340.936 100.185,333.490 93.578 C 330.734 91.132,327.440 90.457,324.037 91.642 M128.245 134.404 C 128.150 134.656,128.032 145.018,127.981 157.431 L 127.890 180.000 116.422 180.097 L 104.954 180.194 104.959 192.941 C 104.962 199.952,105.063 206.057,105.184 206.509 L 105.404 207.329 116.581 207.426 L 127.757 207.523 127.824 218.899 L 127.890 230.275 139.266 230.301 L 150.642 230.327 150.739 241.769 L 150.836 253.211 162.391 253.211 L 173.945 253.211 173.945 254.239 C 173.945 254.804,174.151 255.485,174.404 255.752 C 174.771 256.141,174.771 256.272,174.404 256.407 C 173.925 256.582,173.698 274.160,174.159 275.359 C 174.431 276.068,195.326 276.245,196.076 275.544 C 196.400 275.243,196.489 272.395,196.419 264.632 C 196.366 258.855,196.470 253.904,196.649 253.629 C 196.912 253.226,198.994 253.137,207.504 253.169 C 214.104 253.194,218.297 253.068,218.740 252.831 C 219.414 252.471,219.445 251.952,219.415 241.553 C 219.386 231.333,219.426 230.630,220.059 230.278 C 220.498 230.033,224.429 229.967,231.316 230.089 C 238.515 230.216,242.001 230.151,242.220 229.888 C 242.396 229.675,242.538 224.578,242.534 218.562 C 242.531 212.546,242.620 207.533,242.732 207.420 C 242.845 207.308,247.808 207.248,253.762 207.285 C 261.305 207.333,264.587 207.234,264.587 206.958 C 264.587 206.740,264.754 206.665,264.958 206.791 C 265.206 206.945,265.321 195.044,265.305 170.672 C 265.293 150.681,265.167 134.341,265.027 134.362 C 264.886 134.382,264.688 134.376,264.587 134.348 C 264.486 134.319,249.170 134.192,230.550 134.064 L 196.697 133.831 196.697 145.211 L 196.697 156.591 194.220 156.825 C 191.006 157.129,177.483 157.133,175.281 156.831 L 173.578 156.597 173.578 145.271 L 173.578 133.945 150.998 133.945 C 133.270 133.945,128.380 134.044,128.245 134.404 M52.657 182.896 C 51.059 183.592,49.541 185.949,49.541 187.733 C 49.541 189.339,51.021 191.927,51.940 191.927 C 52.235 191.927,52.477 192.071,52.477 192.248 C 52.477 193.843,57.755 192.513,59.008 190.602 C 61.759 186.405,57.225 180.905,52.657 182.896 M241.375 222.844 C 241.312 225.317,241.260 223.294,241.260 218.349 C 241.260 213.404,241.312 211.381,241.375 213.853 C 241.439 216.326,241.439 220.372,241.375 222.844 M306.422 250.387 C 302.048 251.764,299.348 259.339,301.635 263.821 C 302.403 265.327,305.033 268.257,305.617 268.257 C 305.812 268.257,306.444 268.504,307.022 268.805 C 310.783 270.767,317.227 268.219,319.290 263.955 C 323.299 255.667,315.563 247.511,306.422 250.387 M89.311 283.610 C 81.073 286.457,80.012 297.427,87.599 301.303 C 90.256 302.661,95.321 302.617,97.475 301.217 C 107.189 294.906,100.205 279.845,89.311 283.610 M267.256 307.333 C 266.124 307.825,263.875 309.828,263.834 310.380 C 263.823 310.524,263.726 311.578,263.619 312.722 C 263.016 319.142,270.980 322.237,274.802 317.068 C 275.674 315.888,275.696 315.769,275.640 312.584 C 275.565 308.362,271.191 305.622,267.256 307.333 " stroke="none" fill="#ac4a3b" fill-rule="evenodd"/>
    <path id="path2" d="M0.000 185.138 L 0.000 370.275 200.000 370.275 L 400.000 370.275 400.000 185.138 L 400.000 0.000 200.000 0.000 L 0.000 0.000 0.000 185.138 M155.643 24.631 C 167.312 27.134,173.887 39.604,169.334 50.599 C 166.936 56.389,166.954 55.852,169.077 58.097 C 174.034 63.338,173.931 62.417,173.939 101.376 L 173.945 133.945 185.138 133.945 L 196.330 133.945 196.330 122.385 L 196.330 110.826 202.018 110.826 L 207.706 110.826 207.706 90.208 C 207.706 67.495,207.707 67.503,205.375 66.055 C 195.827 60.130,199.754 45.542,210.904 45.513 C 222.118 45.483,226.837 58.534,218.095 65.403 C 214.865 67.942,215.046 66.484,215.046 89.932 L 215.046 110.826 226.606 110.826 L 238.165 110.826 238.168 104.128 C 238.173 91.690,239.592 88.487,246.913 84.393 C 263.674 75.021,263.630 75.055,263.320 71.878 C 262.698 65.485,265.921 59.939,271.909 57.102 C 277.341 54.528,285.910 56.062,289.182 60.193 C 289.819 60.997,290.488 61.563,290.670 61.451 C 290.852 61.338,290.909 61.486,290.796 61.779 C 290.684 62.072,290.764 62.417,290.974 62.547 C 292.804 63.678,293.829 71.417,292.680 75.437 C 289.927 85.072,278.004 88.968,269.305 83.075 L 267.339 81.743 265.138 82.940 C 253.843 89.077,247.194 93.359,246.908 94.679 C 246.843 94.982,246.624 95.347,246.422 95.491 C 246.205 95.645,246.007 98.825,245.936 103.289 L 245.817 110.826 255.753 110.826 L 265.688 110.826 265.688 114.444 L 265.688 118.062 273.486 118.317 C 283.802 118.653,288.545 117.694,295.365 113.892 C 296.703 113.146,299.862 111.400,302.385 110.013 C 308.442 106.682,308.016 107.286,307.935 102.132 C 307.768 91.450,313.408 84.088,323.383 81.966 C 338.348 78.783,351.437 94.783,345.134 108.552 C 344.634 109.644,344.333 110.726,344.465 110.956 C 344.597 111.187,344.567 111.251,344.398 111.098 C 344.230 110.945,343.832 111.210,343.514 111.688 C 336.840 121.712,323.654 123.500,314.236 115.658 C 311.491 113.372,312.753 113.182,305.841 116.919 C 289.381 125.817,290.030 125.622,276.410 125.798 L 265.664 125.938 265.768 129.850 L 265.872 133.761 277.156 133.761 L 288.441 133.761 288.440 143.028 L 288.440 152.294 306.330 152.288 C 326.416 152.282,325.534 152.399,326.972 149.545 C 333.765 136.066,353.940 140.733,353.923 155.780 C 353.906 170.957,334.488 175.945,327.198 162.645 C 325.405 159.374,327.276 159.644,306.330 159.638 L 288.440 159.633 288.440 179.633 L 288.440 199.633 295.138 199.723 C 307.804 199.894,307.354 199.921,308.412 198.927 C 308.932 198.438,309.358 197.883,309.358 197.695 C 309.358 195.584,314.505 192.546,318.416 192.349 C 321.213 192.208,325.906 193.833,326.397 195.113 C 326.509 195.404,326.792 195.524,327.027 195.379 C 327.272 195.228,327.354 195.275,327.221 195.491 C 327.094 195.697,327.334 196.176,327.754 196.556 C 330.097 198.675,330.911 203.462,329.545 207.081 C 326.556 214.997,315.942 217.202,310.767 210.982 C 310.093 210.172,309.073 208.995,308.501 208.365 L 307.461 207.221 293.120 207.464 C 285.232 207.597,275.833 207.706,272.233 207.706 L 265.688 207.706 265.688 215.203 L 265.688 222.700 275.688 222.828 C 288.538 222.993,290.366 223.656,294.878 229.785 C 295.730 230.943,296.556 231.775,296.713 231.633 C 296.870 231.492,296.885 231.573,296.747 231.814 C 296.606 232.060,297.442 233.588,298.653 235.300 C 299.839 236.977,301.121 238.892,301.502 239.556 C 302.331 241.002,303.423 241.346,305.350 240.769 C 326.478 234.439,339.680 264.484,320.870 276.092 C 303.050 287.090,282.388 265.572,294.487 248.616 C 295.400 247.337,296.147 246.028,296.147 245.706 C 296.147 244.825,294.277 242.180,293.843 242.448 C 293.635 242.577,293.571 242.511,293.700 242.301 C 294.019 241.785,287.972 232.899,286.672 231.974 C 284.627 230.518,283.173 230.431,262.569 230.539 L 242.752 230.642 242.752 256.881 C 242.752 277.468,242.855 283.409,243.229 284.464 C 243.879 286.298,246.273 288.550,260.637 300.844 C 261.208 301.332,261.514 301.278,263.573 300.328 C 272.608 296.155,283.491 302.458,283.980 312.146 C 284.779 327.981,263.734 333.510,256.777 319.293 C 255.634 316.957,255.596 316.730,255.588 312.110 C 255.579 306.491,255.829 307.013,251.193 302.938 C 249.174 301.164,246.450 298.765,245.138 297.606 C 243.826 296.447,241.996 294.860,241.073 294.080 C 239.090 292.404,237.193 290.032,236.157 287.932 C 235.448 286.494,235.408 285.643,235.307 270.000 L 235.201 253.578 227.509 253.578 L 219.817 253.578 219.817 264.954 L 219.817 276.330 208.257 276.330 L 196.697 276.330 196.697 287.890 L 196.697 299.450 192.844 299.450 L 188.991 299.450 188.991 309.882 L 188.991 320.314 189.958 321.074 C 190.490 321.493,191.109 321.835,191.334 321.835 C 192.517 321.836,196.503 324.224,198.609 326.193 C 205.024 332.194,206.498 341.743,202.271 349.908 C 201.749 350.917,201.368 351.908,201.425 352.110 C 201.482 352.312,201.421 352.369,201.290 352.238 C 201.158 352.106,200.378 352.727,199.557 353.618 C 193.150 360.568,181.100 361.814,173.905 356.270 C 173.176 355.708,172.448 355.368,172.286 355.514 C 172.125 355.660,172.103 355.587,172.238 355.350 C 172.373 355.114,172.086 354.608,171.598 354.225 C 163.980 348.232,163.950 334.038,171.541 326.422 C 172.949 325.009,174.062 323.717,174.014 323.551 C 173.966 323.384,174.091 323.350,174.292 323.474 C 174.493 323.598,175.199 323.417,175.861 323.071 C 176.523 322.726,177.972 322.160,179.083 321.813 L 181.101 321.184 181.198 310.317 L 181.295 299.450 177.437 299.450 L 173.578 299.450 173.578 287.890 L 173.578 276.330 162.018 276.330 L 150.459 276.330 150.459 264.954 L 150.459 253.578 146.558 253.578 L 142.658 253.578 142.904 257.156 C 143.504 265.874,140.620 270.516,131.560 275.410 C 113.313 285.266,111.074 286.734,111.484 288.569 C 114.513 302.141,101.729 314.935,88.298 311.775 C 72.783 308.123,67.498 289.522,78.917 278.750 C 86.134 271.941,97.898 271.629,105.154 278.054 C 107.626 280.243,107.089 280.230,110.650 278.181 C 112.419 277.163,113.918 276.330,113.981 276.330 C 114.045 276.330,114.909 275.851,115.902 275.266 C 116.895 274.680,118.677 273.667,119.863 273.013 C 121.048 272.360,122.761 271.414,123.670 270.911 C 124.578 270.408,126.807 269.175,128.624 268.171 C 134.563 264.889,135.392 263.588,135.405 257.523 L 135.413 253.578 131.560 253.578 L 127.706 253.578 127.706 242.011 L 127.706 230.443 103.341 230.543 C 75.719 230.655,78.244 230.351,76.507 233.776 C 72.430 241.815,60.170 242.923,53.694 235.837 C 47.142 228.668,49.976 216.344,58.992 212.801 C 63.483 211.036,70.793 212.060,73.480 214.831 C 75.479 216.893,76.614 218.341,77.037 219.373 C 77.310 220.037,77.852 220.987,78.243 221.483 L 78.952 222.385 91.770 222.385 L 104.587 222.385 104.587 215.046 L 104.587 207.706 93.211 207.706 L 81.835 207.706 81.835 199.790 L 81.835 191.874 73.909 191.992 L 65.983 192.110 63.542 194.747 C 60.302 198.247,58.723 199.015,54.587 199.104 C 52.821 199.142,51.376 199.047,51.376 198.893 C 51.376 198.738,50.979 198.512,50.494 198.390 C 44.990 197.009,41.909 188.420,44.868 182.704 C 48.116 176.429,58.005 174.431,61.998 179.242 C 62.388 179.711,62.599 179.738,63.076 179.380 C 63.564 179.014,63.592 179.022,63.236 179.424 C 62.893 179.811,63.114 180.328,64.293 181.888 C 66.278 184.518,65.846 184.428,75.872 184.298 L 81.835 184.220 81.835 170.459 L 81.835 156.697 65.664 156.697 C 47.354 156.697,48.536 156.495,46.877 159.906 C 40.599 172.817,21.759 170.784,18.507 156.845 C 14.380 139.159,38.715 130.409,46.975 146.609 C 48.284 149.177,46.859 148.991,65.183 148.991 L 81.835 148.991 81.835 141.468 L 81.835 133.945 93.211 133.945 L 104.587 133.945 104.587 126.296 L 104.587 118.648 94.954 118.422 C 84.580 118.179,82.827 117.905,79.633 116.034 C 78.725 115.502,77.817 115.117,77.615 115.178 C 77.413 115.240,77.340 115.198,77.453 115.085 C 77.566 114.972,76.823 113.990,75.802 112.902 C 73.445 110.392,72.027 108.012,69.744 102.739 C 67.171 96.797,67.269 96.881,62.857 96.881 C 44.884 96.881,36.078 76.553,48.519 63.784 C 60.161 51.836,80.341 59.017,82.052 75.717 C 82.650 81.547,79.482 89.275,75.197 92.443 C 73.953 93.362,73.823 92.886,77.271 100.000 C 80.459 106.579,81.451 107.841,84.683 109.433 L 87.139 110.642 104.276 110.748 L 121.412 110.853 121.534 103.408 C 121.694 93.607,121.758 93.816,117.577 90.461 C 108.840 83.450,117.838 68.446,128.834 71.690 C 138.490 74.539,139.687 86.026,131.004 92.516 L 129.725 93.473 129.614 102.149 L 129.504 110.826 147.818 110.826 L 166.131 110.826 166.093 89.633 L 166.055 68.440 165.017 66.326 C 164.404 65.078,163.817 64.312,163.584 64.457 C 163.355 64.598,163.295 64.529,163.442 64.292 C 163.581 64.067,163.110 63.235,162.395 62.444 L 161.095 61.005 158.920 61.884 C 143.439 68.137,127.798 54.192,132.505 38.334 C 135.472 28.341,145.433 22.442,155.643 24.631 M210.275 53.103 C 206.549 54.465,207.603 59.810,211.598 59.815 C 215.022 59.819,215.824 54.920,212.646 53.412 C 211.380 52.812,211.154 52.782,210.275 53.103 M276.495 64.336 C 273.618 65.453,271.551 68.186,271.568 70.850 C 271.582 73.050,273.375 76.209,274.638 76.255 C 274.817 76.262,275.091 76.473,275.246 76.725 C 276.186 78.245,281.547 77.357,283.269 75.395 C 287.595 70.468,282.428 62.032,276.495 64.336 M59.023 68.835 C 49.507 71.764,52.660 86.955,62.788 86.970 C 65.550 86.975,71.857 82.472,71.009 81.101 C 70.906 80.934,71.012 80.733,71.246 80.655 C 71.849 80.454,72.078 76.789,71.599 75.008 C 71.098 73.147,69.119 70.336,68.555 70.685 C 68.310 70.836,68.246 70.774,68.395 70.532 C 69.335 69.012,62.480 67.770,59.023 68.835 M104.954 156.881 L 104.954 179.817 116.330 179.817 L 127.706 179.817 127.706 156.881 L 127.706 133.945 116.330 133.945 L 104.954 133.945 104.954 156.881 M30.941 146.807 C 27.329 147.912,25.536 153.110,27.548 156.647 C 30.841 162.439,39.984 159.912,39.984 153.211 C 39.984 148.645,35.444 145.430,30.941 146.807 M337.432 150.303 C 334.236 151.969,332.743 155.486,334.110 158.129 C 336.559 162.865,343.239 162.909,345.532 158.205 C 347.766 153.623,341.949 147.948,337.432 150.303 M317.615 200.059 C 314.303 201.880,315.370 206.972,319.062 206.972 C 320.459 206.972,322.569 204.836,322.569 203.421 C 322.569 200.967,319.612 198.960,317.615 200.059 M62.259 220.702 C 58.064 222.248,57.111 226.968,60.309 230.353 C 63.420 233.646,68.152 232.669,69.962 228.360 C 71.922 223.698,67.110 218.914,62.259 220.702 M181.835 331.504 C 176.433 334.021,174.345 339.614,176.898 344.726 C 180.046 351.030,189.238 351.566,193.201 345.676 C 198.168 338.294,189.760 327.812,181.835 331.504 " stroke="none" fill="none" fill-rule="evenodd"/>
    <path id="path3" d="M42.661 77.248 C 42.665 78.055,42.741 78.342,42.828 77.886 C 42.916 77.429,42.913 76.769,42.821 76.418 C 42.729 76.067,42.657 76.440,42.661 77.248 M166.014 90.459 C 166.015 93.083,166.073 94.108,166.144 92.737 C 166.215 91.366,166.214 89.219,166.143 87.966 C 166.071 86.713,166.014 87.835,166.014 90.459 M121.585 99.817 C 121.585 101.128,121.652 101.665,121.733 101.009 C 121.815 100.353,121.815 99.280,121.733 98.624 C 121.652 97.968,121.585 98.505,121.585 99.817 M196.494 122.569 C 196.494 128.927,196.544 131.528,196.605 128.349 C 196.666 125.170,196.666 119.968,196.605 116.789 C 196.544 113.610,196.494 116.211,196.494 122.569 M91.468 118.428 C 92.023 118.512,92.931 118.512,93.486 118.428 C 94.041 118.344,93.587 118.275,92.477 118.275 C 91.367 118.275,90.913 118.344,91.468 118.428 M104.742 125.872 C 104.742 130.009,104.795 131.702,104.861 129.633 C 104.926 127.564,104.926 124.179,104.861 122.110 C 104.795 120.041,104.742 121.734,104.742 125.872 M57.523 149.266 C 62.014 149.324,69.362 149.324,73.853 149.266 C 78.344 149.207,74.670 149.160,65.688 149.160 C 56.706 149.160,53.032 149.207,57.523 149.266 M72.936 184.493 C 74.601 184.561,77.326 184.561,78.991 184.493 C 80.656 184.425,79.294 184.370,75.963 184.370 C 72.633 184.370,71.271 184.425,72.936 184.493 M291.468 199.906 C 293.234 199.974,296.124 199.974,297.890 199.906 C 299.656 199.839,298.211 199.784,294.679 199.784 C 291.147 199.784,289.702 199.839,291.468 199.906 M93.570 207.612 L 104.572 207.717 104.683 214.959 L 104.793 222.202 104.782 214.862 L 104.771 207.523 93.670 207.515 L 82.569 207.507 93.570 207.612 M271.307 207.614 C 274.499 207.675,279.618 207.675,282.683 207.614 C 285.749 207.553,283.138 207.502,276.881 207.503 C 270.624 207.503,268.116 207.553,271.307 207.614 M129.450 253.482 C 130.509 253.556,132.243 253.556,133.303 253.482 C 134.362 253.407,133.495 253.347,131.376 253.347 C 129.257 253.347,128.390 253.407,129.450 253.482 M144.135 253.477 C 144.795 253.559,145.785 253.557,146.337 253.473 C 146.888 253.389,146.349 253.323,145.138 253.325 C 143.927 253.327,143.475 253.395,144.135 253.477 M149.963 253.458 C 150.195 253.625,150.469 254.174,150.572 254.679 C 150.733 255.469,150.751 255.447,150.700 254.524 C 150.668 253.919,150.402 253.387,150.092 253.303 C 149.724 253.204,149.681 253.256,149.963 253.458 M223.598 253.485 C 225.779 253.550,229.247 253.550,231.304 253.485 C 233.362 253.419,231.578 253.366,227.339 253.366 C 223.101 253.367,221.417 253.420,223.598 253.485 M150.619 266.239 C 150.619 271.688,150.670 273.969,150.733 271.306 C 150.795 268.644,150.796 264.185,150.733 261.398 C 150.671 258.611,150.620 260.789,150.619 266.239 M177.533 299.349 L 181.305 299.475 181.203 310.454 C 181.147 316.492,181.227 321.305,181.382 321.151 C 181.536 320.996,181.619 316.009,181.565 310.068 L 181.468 299.266 177.615 299.245 L 173.761 299.224 177.533 299.349 M190.931 299.354 C 192.099 299.427,193.915 299.427,194.968 299.353 C 196.020 299.279,195.064 299.219,192.844 299.220 C 190.624 299.221,189.763 299.281,190.931 299.354 M204.504 340.183 C 204.504 341.092,204.575 341.463,204.663 341.009 C 204.750 340.555,204.750 339.812,204.663 339.358 C 204.575 338.904,204.504 339.275,204.504 340.183 M194.588 340.734 C 194.592 341.541,194.667 341.828,194.755 341.372 C 194.843 340.915,194.839 340.255,194.748 339.904 C 194.656 339.553,194.584 339.927,194.588 340.734 M184.500 349.984 C 184.956 350.072,185.617 350.069,185.968 349.977 C 186.318 349.885,185.945 349.813,185.138 349.817 C 184.330 349.821,184.043 349.897,184.500 349.984 " stroke="none" fill="#9fa0a0" fill-rule="evenodd"/>
    <path id="path4" d="M109.795 180.091 C 112.356 180.154,116.650 180.154,119.336 180.091 C 122.022 180.028,119.927 179.977,114.679 179.976 C 109.431 179.976,107.233 180.028,109.795 180.091 M275.689 313.211 C 275.693 314.018,275.768 314.305,275.856 313.849 C 275.944 313.392,275.940 312.732,275.848 312.381 C 275.757 312.030,275.685 312.404,275.689 313.211 " stroke="none" fill="#7c7c7c" fill-rule="evenodd"/>
    <path id="path5" d="" stroke="none" fill="#cbcbcc" fill-rule="evenodd"/>
    <path id="path6" d="" stroke="none" fill="#bcbcbc" fill-rule="evenodd"/>
    <path id="path7" d="M164.037 29.106 C 164.037 29.169,164.573 29.706,165.229 30.298 L 166.422 31.376 165.344 30.183 C 164.339 29.072,164.037 28.822,164.037 29.106 M214.764 56.514 C 214.764 57.220,214.840 57.509,214.932 57.156 C 215.024 56.803,215.024 56.225,214.932 55.872 C 214.840 55.518,214.764 55.807,214.764 56.514 M136.147 56.262 C 136.147 56.325,136.683 56.861,137.339 57.454 L 138.532 58.532 137.454 57.339 C 136.450 56.228,136.147 55.978,136.147 56.262 M150.183 63.382 C 150.739 63.466,151.647 63.466,152.202 63.382 C 152.757 63.298,152.303 63.229,151.193 63.229 C 150.083 63.229,149.628 63.298,150.183 63.382 M61.927 68.149 C 62.381 68.236,63.124 68.236,63.578 68.149 C 64.032 68.061,63.661 67.990,62.752 67.990 C 61.844 67.990,61.472 68.061,61.927 68.149 M173.754 102.202 C 173.753 119.761,173.798 126.999,173.853 118.284 C 173.908 109.570,173.908 95.203,173.853 86.358 C 173.798 77.512,173.754 84.642,173.754 102.202 M52.929 77.431 C 52.929 78.138,53.005 78.427,53.097 78.073 C 53.189 77.720,53.189 77.142,53.097 76.789 C 53.005 76.436,52.929 76.725,52.929 77.431 M48.073 90.757 C 48.073 90.820,48.610 91.357,49.266 91.950 L 50.459 93.028 49.381 91.835 C 48.376 90.723,48.073 90.474,48.073 90.757 M121.466 107.231 C 121.366 109.391,121.415 111.028,121.574 110.868 C 121.733 110.708,121.814 108.941,121.755 106.940 L 121.647 103.303 121.466 107.231 M93.282 111.099 C 95.441 111.164,99.074 111.164,101.356 111.100 C 103.638 111.035,101.872 110.982,97.431 110.982 C 92.991 110.982,91.124 111.035,93.282 111.099 M138.624 111.101 C 143.720 111.158,152.060 111.158,157.156 111.101 C 162.252 111.043,158.083 110.996,147.890 110.996 C 137.697 110.996,133.528 111.043,138.624 111.101 M199.358 111.098 C 200.922 111.167,203.482 111.167,205.046 111.098 C 206.610 111.030,205.330 110.973,202.202 110.973 C 199.073 110.973,197.794 111.030,199.358 111.098 M220.849 111.100 C 224.141 111.161,229.426 111.161,232.592 111.100 C 235.758 111.039,233.064 110.989,226.606 110.989 C 220.147 110.990,217.556 111.039,220.849 111.100 M255.491 111.098 L 265.295 111.205 265.421 114.686 L 265.547 118.167 265.526 114.588 L 265.505 111.009 255.596 111.000 L 245.688 110.991 255.491 111.098 M96.422 118.436 C 97.482 118.510,99.216 118.510,100.275 118.436 C 101.335 118.362,100.468 118.301,98.349 118.301 C 96.229 118.301,95.362 118.362,96.422 118.436 M267.808 118.434 C 268.671 118.512,269.992 118.511,270.744 118.432 C 271.495 118.353,270.789 118.290,269.174 118.291 C 267.560 118.292,266.945 118.357,267.808 118.434 M277.523 118.795 C 278.078 118.879,278.986 118.879,279.541 118.795 C 280.096 118.711,279.642 118.642,278.532 118.642 C 277.422 118.642,276.968 118.711,277.523 118.795 M280.826 125.767 C 281.381 125.852,282.289 125.852,282.844 125.767 C 283.399 125.683,282.945 125.615,281.835 125.615 C 280.725 125.615,280.271 125.683,280.826 125.767 M265.460 129.908 C 265.460 132.229,265.519 133.179,265.592 132.018 C 265.665 130.858,265.665 128.959,265.592 127.798 C 265.519 126.638,265.460 127.587,265.460 129.908 M32.390 138.245 C 32.948 138.329,33.774 138.327,34.225 138.240 C 34.677 138.153,34.220 138.084,33.211 138.087 C 32.202 138.089,31.833 138.161,32.390 138.245 M339.174 149.611 C 339.528 149.703,340.106 149.703,340.459 149.611 C 340.812 149.518,340.523 149.443,339.817 149.443 C 339.110 149.443,338.821 149.518,339.174 149.611 M57.523 156.605 C 62.014 156.664,69.362 156.664,73.853 156.605 C 78.344 156.547,74.670 156.499,65.688 156.499 C 56.706 156.499,53.032 156.547,57.523 156.605 M54.037 176.767 C 54.390 176.859,54.968 176.859,55.321 176.767 C 55.674 176.674,55.385 176.599,54.679 176.599 C 53.972 176.599,53.683 176.674,54.037 176.767 M54.037 199.152 C 54.390 199.244,54.968 199.244,55.321 199.152 C 55.674 199.060,55.385 198.984,54.679 198.984 C 53.972 198.984,53.683 199.060,54.037 199.152 M292.914 207.247 C 295.476 207.310,299.769 207.310,302.455 207.247 C 305.142 207.184,303.046 207.133,297.798 207.132 C 292.550 207.132,290.353 207.184,292.914 207.247 M265.477 215.046 C 265.477 219.385,265.530 221.161,265.595 218.991 C 265.660 216.821,265.660 213.271,265.595 211.101 C 265.530 208.931,265.477 210.706,265.477 215.046 M318.812 214.571 C 319.268 214.659,319.929 214.656,320.280 214.564 C 320.630 214.472,320.257 214.400,319.450 214.404 C 318.642 214.409,318.355 214.484,318.812 214.571 M81.204 222.656 C 82.169 222.731,83.655 222.730,84.506 222.653 C 85.358 222.577,84.569 222.514,82.752 222.516 C 80.936 222.517,80.239 222.580,81.204 222.656 M70.544 226.055 C 70.544 226.761,70.619 227.050,70.712 226.697 C 70.804 226.344,70.804 225.766,70.712 225.413 C 70.619 225.060,70.544 225.349,70.544 226.055 M87.982 230.366 C 91.060 230.428,96.096 230.428,99.174 230.366 C 102.252 230.305,99.734 230.255,93.578 230.255 C 87.422 230.255,84.904 230.305,87.982 230.366 M53.211 235.344 C 53.211 235.407,53.748 235.944,54.404 236.537 L 55.596 237.615 54.518 236.422 C 53.514 235.310,53.211 235.061,53.211 235.344 M309.633 240.259 C 310.087 240.346,310.830 240.346,311.284 240.259 C 311.739 240.172,311.367 240.100,310.459 240.100 C 309.550 240.100,309.179 240.172,309.633 240.259 M219.613 264.954 C 219.613 271.312,219.663 273.913,219.724 270.734 C 219.785 267.555,219.785 262.353,219.724 259.174 C 219.663 255.995,219.613 258.596,219.613 264.954 M91.106 273.658 C 91.664 273.742,92.489 273.740,92.941 273.653 C 93.392 273.566,92.936 273.497,91.927 273.499 C 90.917 273.502,90.548 273.573,91.106 273.658 M78.326 279.358 L 77.248 280.550 78.440 279.473 C 79.552 278.468,79.802 278.165,79.518 278.165 C 79.455 278.165,78.918 278.702,78.326 279.358 M111.645 292.844 C 111.645 293.550,111.720 293.839,111.813 293.486 C 111.905 293.133,111.905 292.555,111.813 292.202 C 111.720 291.849,111.645 292.138,111.645 292.844 M188.782 307.890 C 188.782 312.633,188.834 314.573,188.898 312.202 C 188.962 309.830,188.962 305.950,188.898 303.578 C 188.834 301.206,188.782 303.147,188.782 307.890 M91.651 312.186 C 92.106 312.273,92.849 312.273,93.303 312.186 C 93.757 312.098,93.385 312.027,92.477 312.027 C 91.569 312.027,91.197 312.098,91.651 312.186 " stroke="none" fill="#747c7c" fill-rule="evenodd"/>
    <path id="path8" d="M127.879 157.064 C 127.879 169.679,127.925 174.839,127.981 168.532 C 128.038 162.225,128.038 151.904,127.981 145.596 C 127.925 139.289,127.879 144.450,127.879 157.064 " stroke="none" fill="#bc9cb4" fill-rule="evenodd"/>
  </g>
</svg>