<svg width="1100" height="600" viewBox="0 0 1100 600" fill="none" xmlns="http://www.w3.org/2000/svg">
<g clip-path="url(#clip0)">
<g opacity="0.6">
<path fill-rule="evenodd" clip-rule="evenodd" d="M846.711 482.152C856.361 547.476 622.337 590.085 420.908 560.349C219.478 530.614 127.072 414.493 223.191 352.62C319.31 290.746 837.061 416.828 846.711 482.152Z" fill="#DDE3E9"/>
</g>
<rect x="174" y="21" width="159" height="302" rx="8" fill="#F2F2F2"/>
<path fill-rule="evenodd" clip-rule="evenodd" d="M253 304C261.284 304 268 297.284 268 289C268 280.716 261.284 274 253 274C244.716 274 238 280.716 238 289C238 297.284 244.716 304 253 304Z" fill="white"/>
<path fill-rule="evenodd" clip-rule="evenodd" d="M240 41C241.105 41 242 40.1046 242 39C242 37.8954 241.105 37 240 37C238.895 37 238 37.8954 238 39C238 40.1046 238.895 41 240 41Z" fill="white"/>
<rect x="247" y="37" width="21" height="4" rx="2" fill="white"/>
<rect x="188" y="49" width="131" height="54" rx="4" fill="white"/>
<g clip-path="url(#clip1)">
<rect x="227" y="65.2" width="73" height="8.1" rx="3" fill="#DDE3E9"/>
<rect x="227" y="78.7" width="49" height="8.1" rx="3" fill="#DDE3E9"/>
</g>
<path fill-rule="evenodd" clip-rule="evenodd" d="M209 88C215.627 88 221 82.6274 221 76C221 69.3726 215.627 64 209 64C202.373 64 197 69.3726 197 76C197 82.6274 202.373 88 209 88Z" fill="#C5CFD6"/>
<rect x="188" y="111" width="131" height="42" rx="4" fill="white"/>
<g clip-path="url(#clip2)">
<rect x="227" y="123.6" width="73" height="6.3" rx="3" fill="#DDE3E9"/>
<rect x="227" y="134.1" width="49" height="6.3" rx="3" fill="#DDE3E9"/>
</g>
<path fill-rule="evenodd" clip-rule="evenodd" d="M209 144C215.627 144 221 138.627 221 132C221 125.373 215.627 120 209 120C202.373 120 197 125.373 197 132C197 138.627 202.373 144 209 144Z" fill="#C5CFD6"/>
<rect x="188" y="161" width="131" height="42" rx="4" fill="white"/>
<g clip-path="url(#clip3)">
<rect x="227" y="173.6" width="73" height="6.3" rx="3" fill="#DDE3E9"/>
<rect x="227" y="184.1" width="49" height="6.3" rx="3" fill="#DDE3E9"/>
</g>
<path fill-rule="evenodd" clip-rule="evenodd" d="M209 194C215.627 194 221 188.627 221 182C221 175.373 215.627 170 209 170C202.373 170 197 175.373 197 182C197 188.627 202.373 194 209 194Z" fill="#AFB9C5"/>
<rect x="188" y="211" width="131" height="42" rx="4" fill="white"/>
<g clip-path="url(#clip4)">
<rect x="227" y="223.6" width="73" height="6.3" rx="3" fill="#DDE3E9"/>
<rect x="227" y="234.1" width="49" height="6.3" rx="3" fill="#DDE3E9"/>
</g>
<path fill-rule="evenodd" clip-rule="evenodd" d="M209 244C215.627 244 221 238.627 221 232C221 225.373 215.627 220 209 220C202.373 220 197 225.373 197 232C197 238.627 202.373 244 209 244Z" fill="#C5CFD6"/>
<path fill-rule="evenodd" clip-rule="evenodd" d="M328.14 263C326.815 263 325.494 263.027 324.171 263.095C323.162 263.148 321.621 262.939 320.768 263.568C319.881 264.221 319.942 265.557 320.081 266.501C320.813 271.493 322.6 275.919 326.339 279.456C332.096 284.901 338.695 287.668 346.504 288.9C351.99 289.766 357.054 288.564 361.092 284.663C364.043 290.139 366.281 296.199 367.404 302.315C367.958 305.333 368.127 308.315 368.03 311.388C367.967 313.356 367.859 315.32 367.648 317.279C367.556 318.13 367.122 319.418 367.455 320.223C367.846 321.167 369.165 321.259 369.757 320.453C370.25 319.783 370.16 318.466 370.261 317.673C370.429 316.355 370.584 315.036 370.695 313.712C370.876 311.569 371.009 309.42 371 307.268C370.977 302.435 369.902 297.583 368.432 292.995C365.612 284.192 361.037 276.369 353.921 270.231C349.545 266.457 344.537 264.929 338.856 264.108C335.318 263.597 331.723 263 328.14 263" fill="#89C5CC"/>
<path fill-rule="evenodd" clip-rule="evenodd" d="M348.571 298C334.272 298 324.642 309.524 320.089 321.502C318.372 326.016 317.97 330.974 317.308 335.714C317.096 337.236 317.175 339.554 316.557 340.909C316.333 341.401 315.819 341.577 316.065 342.247C316.214 342.652 316.505 342.901 316.944 342.981C317.843 343.147 319.115 342.167 319.886 341.781C326.282 338.573 330.484 333.613 333.912 327.545C336.038 323.784 338.194 319.879 339.456 315.75C340.227 313.227 340.676 310.571 340.94 307.954C341.044 306.923 341.144 305.868 341.138 304.832C341.132 303.803 340.653 303.259 340.309 302.364C345.08 300.558 350.466 300.066 355.299 301.937C359.769 303.668 363.482 307.013 365.561 311.216C366.101 312.308 366.518 313.46 366.821 314.636C367.02 315.406 367.029 316.404 367.398 317.1C368.29 318.788 370.168 317.66 369.988 316.089C369.485 311.708 366.979 307.309 363.775 304.263C359.734 300.421 354.258 298 348.571 298" fill="#89C5CC"/>
<rect x="364" y="45" width="159" height="302" rx="8" fill="#DDE3E9"/>
<path fill-rule="evenodd" clip-rule="evenodd" d="M443 328C451.284 328 458 321.284 458 313C458 304.716 451.284 298 443 298C434.716 298 428 304.716 428 313C428 321.284 434.716 328 443 328Z" fill="white"/>
<path fill-rule="evenodd" clip-rule="evenodd" d="M430 65C431.105 65 432 64.1046 432 63C432 61.8954 431.105 61 430 61C428.895 61 428 61.8954 428 63C428 64.1046 428.895 65 430 65Z" fill="white"/>
<rect x="437" y="61" width="21" height="4" rx="2" fill="white"/>
<rect x="378" y="73" width="131" height="54" rx="4" fill="white"/>
<g clip-path="url(#clip5)">
<rect x="387" y="89.2" width="73" height="8.1" rx="3" fill="#DDE3E9"/>
<rect x="387" y="102.7" width="49" height="8.1" rx="3" fill="#DDE3E9"/>
</g>
<path fill-rule="evenodd" clip-rule="evenodd" d="M495 107C498.866 107 502 103.866 502 100C502 96.134 498.866 93 495 93C491.134 93 488 96.134 488 100C488 103.866 491.134 107 495 107Z" fill="#DDE3E9"/>
<path fill-rule="evenodd" clip-rule="evenodd" d="M495 103C496.657 103 498 101.657 498 100C498 98.3431 496.657 97 495 97C493.343 97 492 98.3431 492 100C492 101.657 493.343 103 495 103Z" fill="#F2F2F2"/>
<rect x="378" y="135" width="131" height="42" rx="4" fill="white"/>
<g clip-path="url(#clip6)">
<rect x="417" y="147.6" width="73" height="6.3" rx="3" fill="#DDE3E9"/>
<rect x="417" y="158.1" width="49" height="6.3" rx="3" fill="#DDE3E9"/>
</g>
<path fill-rule="evenodd" clip-rule="evenodd" d="M399 168C405.627 168 411 162.627 411 156C411 149.373 405.627 144 399 144C392.373 144 387 149.373 387 156C387 162.627 392.373 168 399 168Z" fill="#C5CFD6"/>
<rect x="378" y="185" width="131" height="42" rx="4" fill="white"/>
<g clip-path="url(#clip7)">
<rect x="387" y="197.6" width="73" height="6.3" rx="3" fill="#DDE3E9"/>
<rect x="387" y="208.1" width="49" height="6.3" rx="3" fill="#AFB9C5"/>
</g>
<path fill-rule="evenodd" clip-rule="evenodd" d="M495 213C498.866 213 502 209.866 502 206C502 202.134 498.866 199 495 199C491.134 199 488 202.134 488 206C488 209.866 491.134 213 495 213Z" fill="#DDE3E9"/>
<path fill-rule="evenodd" clip-rule="evenodd" d="M495 209C496.657 209 498 207.657 498 206C498 204.343 496.657 203 495 203C493.343 203 492 204.343 492 206C492 207.657 493.343 209 495 209Z" fill="#F2F2F2"/>
<rect x="378" y="235" width="131" height="42" rx="4" fill="white"/>
<g clip-path="url(#clip8)">
<rect x="417" y="247.6" width="73" height="6.3" rx="3" fill="#DDE3E9"/>
<rect x="417" y="258.1" width="49" height="6.3" rx="3" fill="#DDE3E9"/>
</g>
<path fill-rule="evenodd" clip-rule="evenodd" d="M399 268C405.627 268 411 262.627 411 256C411 249.373 405.627 244 399 244C392.373 244 387 249.373 387 256C387 262.627 392.373 268 399 268Z" fill="#C5CFD6"/>
<rect x="553" y="106" width="335" height="346" rx="8" fill="#F2F2F2"/>
<rect x="802" y="149" width="70" height="81" rx="8" fill="white"/>
<path fill-rule="evenodd" clip-rule="evenodd" d="M837 196C845.837 196 853 188.837 853 180C853 171.163 845.837 164 837 164C828.163 164 821 171.163 821 180C821 188.837 828.163 196 837 196Z" fill="#DDE3E9"/>
<rect x="812" y="200" width="50" height="6" rx="3" fill="#DDE3E9"/>
<rect x="820" y="210" width="34" height="6" rx="3" fill="#DDE3E9"/>
<path d="M553 114C553 109.582 556.582 106 561 106H880C884.418 106 888 109.582 888 114V133H553V114Z" fill="#C5CFD6"/>
<path fill-rule="evenodd" clip-rule="evenodd" d="M566 124C568.209 124 570 122.209 570 120C570 117.791 568.209 116 566 116C563.791 116 562 117.791 562 120C562 122.209 563.791 124 566 124Z" fill="#F2F2F2"/>
<path fill-rule="evenodd" clip-rule="evenodd" d="M578 124C580.209 124 582 122.209 582 120C582 117.791 580.209 116 578 116C575.791 116 574 117.791 574 120C574 122.209 575.791 124 578 124Z" fill="#F2F2F2"/>
<path fill-rule="evenodd" clip-rule="evenodd" d="M590 124C592.209 124 594 122.209 594 120C594 117.791 592.209 116 590 116C587.791 116 586 117.791 586 120C586 122.209 587.791 124 590 124Z" fill="#F2F2F2"/>
<rect x="802" y="238" width="70" height="194" rx="8" fill="white"/>
<rect x="820" y="256" width="34" height="26" rx="4" fill="#DDE3E9"/>
<rect x="820" y="290" width="34" height="25" rx="4" fill="#AFB9C5"/>
<rect x="820" y="323" width="34" height="25" rx="4" fill="#DDE3E9"/>
<rect x="820" y="389" width="34" height="25" rx="4" fill="#DDE3E9"/>
<rect x="820" y="356" width="34" height="25" rx="4" fill="#C5CFD6"/>
<rect x="569" y="150" width="225" height="47" rx="4" fill="white"/>
<g clip-path="url(#clip9)">
<rect x="578" y="164.1" width="167" height="7.05" rx="3" fill="#DDE3E9"/>
<rect x="578" y="175.85" width="112.096" height="7.05" rx="3" fill="#DDE3E9"/>
</g>
<path fill-rule="evenodd" clip-rule="evenodd" d="M769.954 180.5C773.82 180.5 776.954 177.366 776.954 173.5C776.954 169.634 773.82 166.5 769.954 166.5C766.088 166.5 762.954 169.634 762.954 173.5C762.954 177.366 766.088 180.5 769.954 180.5Z" fill="#DDE3E9"/>
<path fill-rule="evenodd" clip-rule="evenodd" d="M769.954 176.5C771.611 176.5 772.954 175.157 772.954 173.5C772.954 171.843 771.611 170.5 769.954 170.5C768.297 170.5 766.954 171.843 766.954 173.5C766.954 175.157 768.297 176.5 769.954 176.5Z" fill="#F2F2F2"/>
<rect x="569" y="205" width="225" height="39" rx="4" fill="white"/>
<g clip-path="url(#clip10)">
<rect x="578" y="216.7" width="167" height="5.85" rx="2.925" fill="#DDE3E9"/>
<rect x="578" y="226.45" width="112.096" height="5.85" rx="2.925" fill="#DDE3E9"/>
</g>
<path fill-rule="evenodd" clip-rule="evenodd" d="M769.954 231.5C773.82 231.5 776.954 228.366 776.954 224.5C776.954 220.634 773.82 217.5 769.954 217.5C766.088 217.5 762.954 220.634 762.954 224.5C762.954 228.366 766.088 231.5 769.954 231.5Z" fill="#DDE3E9"/>
<path fill-rule="evenodd" clip-rule="evenodd" d="M769.954 227.5C771.611 227.5 772.954 226.157 772.954 224.5C772.954 222.843 771.611 221.5 769.954 221.5C768.297 221.5 766.954 222.843 766.954 224.5C766.954 226.157 768.297 227.5 769.954 227.5Z" fill="#F2F2F2"/>
<rect x="569" y="252" width="225" height="39" rx="4" fill="white"/>
<g clip-path="url(#clip11)">
<rect x="578" y="263.7" width="167" height="5.85" rx="2.925" fill="#DDE3E9"/>
<rect x="578" y="273.45" width="112.096" height="5.85" rx="2.925" fill="#DDE3E9"/>
</g>
<path fill-rule="evenodd" clip-rule="evenodd" d="M769.954 278.5C773.82 278.5 776.954 275.366 776.954 271.5C776.954 267.634 773.82 264.5 769.954 264.5C766.088 264.5 762.954 267.634 762.954 271.5C762.954 275.366 766.088 278.5 769.954 278.5Z" fill="#DDE3E9"/>
<path fill-rule="evenodd" clip-rule="evenodd" d="M769.954 274.5C771.611 274.5 772.954 273.157 772.954 271.5C772.954 269.843 771.611 268.5 769.954 268.5C768.297 268.5 766.954 269.843 766.954 271.5C766.954 273.157 768.297 274.5 769.954 274.5Z" fill="#AFB9C5"/>
<rect x="569" y="393" width="225" height="39" rx="4" fill="white"/>
<g clip-path="url(#clip12)">
<rect x="578" y="404.7" width="167" height="5.85" rx="2.925" fill="#DDE3E9"/>
<rect x="578" y="414.45" width="112.096" height="5.85" rx="2.925" fill="#DDE3E9"/>
</g>
<path fill-rule="evenodd" clip-rule="evenodd" d="M769.954 419.5C773.82 419.5 776.954 416.366 776.954 412.5C776.954 408.634 773.82 405.5 769.954 405.5C766.088 405.5 762.954 408.634 762.954 412.5C762.954 416.366 766.088 419.5 769.954 419.5Z" fill="#DDE3E9"/>
<path fill-rule="evenodd" clip-rule="evenodd" d="M769.954 415.5C771.611 415.5 772.954 414.157 772.954 412.5C772.954 410.843 771.611 409.5 769.954 409.5C768.297 409.5 766.954 410.843 766.954 412.5C766.954 414.157 768.297 415.5 769.954 415.5Z" fill="#F2F2F2"/>
<rect x="569" y="346" width="225" height="39" rx="4" fill="white"/>
<g clip-path="url(#clip13)">
<rect x="578" y="357.7" width="167" height="5.85" rx="2.925" fill="#DDE3E9"/>
<rect x="578" y="367.45" width="112.096" height="5.85" rx="2.925" fill="#DDE3E9"/>
</g>
<path fill-rule="evenodd" clip-rule="evenodd" d="M769.954 372.5C773.82 372.5 776.954 369.366 776.954 365.5C776.954 361.634 773.82 358.5 769.954 358.5C766.088 358.5 762.954 361.634 762.954 365.5C762.954 369.366 766.088 372.5 769.954 372.5Z" fill="#DDE3E9"/>
<path fill-rule="evenodd" clip-rule="evenodd" d="M769.954 368.5C771.611 368.5 772.954 367.157 772.954 365.5C772.954 363.843 771.611 362.5 769.954 362.5C768.297 362.5 766.954 363.843 766.954 365.5C766.954 367.157 768.297 368.5 769.954 368.5Z" fill="#F2F2F2"/>
<rect x="569" y="299" width="225" height="39" rx="4" fill="white"/>
<g clip-path="url(#clip14)">
<rect x="578" y="310.7" width="167" height="5.85" rx="2.925" fill="#DDE3E9"/>
<rect x="578" y="320.45" width="112.096" height="5.85" rx="2.925" fill="#DDE3E9"/>
</g>
<path fill-rule="evenodd" clip-rule="evenodd" d="M769.954 325.5C773.82 325.5 776.954 322.366 776.954 318.5C776.954 314.634 773.82 311.5 769.954 311.5C766.088 311.5 762.954 314.634 762.954 318.5C762.954 322.366 766.088 325.5 769.954 325.5Z" fill="#DDE3E9"/>
<path fill-rule="evenodd" clip-rule="evenodd" d="M769.954 321.5C771.611 321.5 772.954 320.157 772.954 318.5C772.954 316.843 771.611 315.5 769.954 315.5C768.297 315.5 766.954 316.843 766.954 318.5C766.954 320.157 768.297 321.5 769.954 321.5Z" fill="#F2F2F2"/>
<path fill-rule="evenodd" clip-rule="evenodd" d="M174 336.256C174 325.117 183.002 316 194 316V336.256L180.332 351C176.444 347.395 174 342.107 174 336.256Z" fill="#F2F2F2"/>
<path fill-rule="evenodd" clip-rule="evenodd" d="M193.471 336H213.668C213.668 341.221 211.538 346.113 208.171 349.668C204.468 353.556 199.195 356 193.471 356C188.198 356 183.372 353.891 179.668 350.557L193.471 336Z" fill="#AFB9C5"/>
<path fill-rule="evenodd" clip-rule="evenodd" d="M214 336C214 325.002 204.998 316 194 316V336H214ZM184 316L192 334L174 326C175.78 321.334 179.777 317.78 184 316Z" fill="#C5CFD6"/>
<path fill-rule="evenodd" clip-rule="evenodd" d="M634.051 69.5039C632.573 71.0679 630.479 72.05 628.15 72.05C623.675 72.05 620.048 68.4459 620.048 64C620.048 59.5541 623.675 55.95 628.15 55.95V41C615.42 41 605 51.3523 605 64C605 76.6477 615.42 87 628.15 87C634.837 87 640.88 84.1894 645 79.7182L634.051 69.5039Z" fill="#F2F2F2"/>
<path fill-rule="evenodd" clip-rule="evenodd" d="M628 41V55.95C632.446 55.95 636.05 59.5541 636.05 64H651C651 51.3523 640.648 41 628 41Z" fill="#AFB9C5"/>
<path fill-rule="evenodd" clip-rule="evenodd" d="M636.073 64C636.073 66.5552 634.869 68.8266 633 70.2931L642.196 82C647.55 77.8088 651 71.312 651 64H636.073Z" fill="#C5CFD6"/>
<path fill-rule="evenodd" clip-rule="evenodd" d="M746.993 513.986C746.997 513.996 747.001 514.006 747.007 514.018C747.001 514.008 746.993 513.968 746.993 513.986" fill="#C5CFD6"/>
<path fill-rule="evenodd" clip-rule="evenodd" d="M747.002 514.001C747.002 514.003 747.004 514.007 747.004 514.011C747.004 514.001 746.986 513.971 747.002 514.001" fill="#C5CFD6"/>
<path fill-rule="evenodd" clip-rule="evenodd" d="M746.933 513.832C746.947 513.872 746.965 513.91 746.981 513.95C746.973 513.93 746.965 513.914 746.957 513.894C747.165 514.414 747.033 514.076 746.933 513.832" fill="#C5CFD6"/>
<path fill-rule="evenodd" clip-rule="evenodd" d="M746.978 513.953C746.986 513.971 746.994 513.991 747.002 514.009C747.06 514.121 746.978 513.953 746.978 513.953" fill="#C5CFD6"/>
<path fill-rule="evenodd" clip-rule="evenodd" d="M747.001 514.002C747.001 514 747.001 514 746.999 513.998C747.001 514 747.001 514 747.001 514.002" fill="#C5CFD6"/>
<path fill-rule="evenodd" clip-rule="evenodd" d="M747.01 514.016C747.022 514.04 746.954 513.924 747.01 514.016Z" fill="#C5CFD6"/>
<path fill-rule="evenodd" clip-rule="evenodd" d="M747.002 514.002L746.998 513.998C747 514 747 514.002 747.002 514.002" fill="#C5CFD6"/>
<rect width="142" height="94" rx="4" transform="matrix(-1 0 0 1 818 437)" fill="#DDE3E9"/>
<path fill-rule="evenodd" clip-rule="evenodd" d="M765.274 464L806.329 531H724.219L765.274 464Z" fill="#AFB9C5"/>
<path fill-rule="evenodd" clip-rule="evenodd" d="M722.944 481.946L759.239 531H686.649L722.944 481.946Z" fill="#C5CFD6"/>
<path fill-rule="evenodd" clip-rule="evenodd" d="M707.5 482C700.044 482 694 475.956 694 468.5C694 461.044 700.044 455 707.5 455C714.956 455 721 461.044 721 468.5C721 475.956 714.956 482 707.5 482Z" fill="white"/>
<path fill-rule="evenodd" clip-rule="evenodd" d="M109.007 86.9863C109.003 86.9963 108.999 87.0063 108.993 87.0183C108.999 87.0083 109.007 86.9683 109.007 86.9863" fill="#C5CFD6"/>
<path fill-rule="evenodd" clip-rule="evenodd" d="M108.998 87.0015C108.998 87.0035 108.996 87.0075 108.996 87.0115C108.996 87.0015 109.014 86.9715 108.998 87.0015" fill="#C5CFD6"/>
<path fill-rule="evenodd" clip-rule="evenodd" d="M109.067 86.8323C109.053 86.8723 109.035 86.9103 109.019 86.9503C109.027 86.9303 109.035 86.9143 109.043 86.8943C108.835 87.4143 108.967 87.0763 109.067 86.8323" fill="#C5CFD6"/>
<path fill-rule="evenodd" clip-rule="evenodd" d="M109.022 86.9528C109.014 86.9708 109.006 86.9907 108.998 87.0087C108.94 87.1207 109.022 86.9528 109.022 86.9528" fill="#C5CFD6"/>
<path fill-rule="evenodd" clip-rule="evenodd" d="M108.999 87.002C108.999 87 108.999 87 109.001 86.998C108.999 87 108.999 87 108.999 87.002" fill="#C5CFD6"/>
<path fill-rule="evenodd" clip-rule="evenodd" d="M108.99 87.0164C108.978 87.0404 109.046 86.9244 108.99 87.0164Z" fill="#C5CFD6"/>
<path fill-rule="evenodd" clip-rule="evenodd" d="M108.998 87.002L109.002 86.998C109 87 109 87.002 108.998 87.002" fill="#C5CFD6"/>
<rect x="61" y="35" width="95" height="63" rx="4" fill="#DDE3E9"/>
<path fill-rule="evenodd" clip-rule="evenodd" d="M97 53L69 98H125L97 53Z" fill="#AFB9C5"/>
<path fill-rule="evenodd" clip-rule="evenodd" d="M124.5 65L100 98H149L124.5 65Z" fill="#C5CFD6"/>
<path fill-rule="evenodd" clip-rule="evenodd" d="M135 65C139.971 65 144 60.9706 144 56C144 51.0294 139.971 47 135 47C130.029 47 126 51.0294 126 56C126 60.9706 130.029 65 135 65Z" fill="white"/>
<rect x="886" y="62" width="6" height="25" rx="3" fill="#DDE3E9"/>
<rect x="900" y="46" width="6" height="41" rx="3" fill="#DDE3E9"/>
<rect x="914" y="38" width="6" height="49" rx="3" fill="#DDE3E9"/>
<rect x="928" y="46" width="6" height="41" rx="3" fill="#DDE3E9"/>
<rect x="942" y="30" width="6" height="57" rx="3" fill="#C5CFD6"/>
<path fill-rule="evenodd" clip-rule="evenodd" d="M1031.23 165.334C1030.69 164.946 1029.43 164.809 1028.84 164.692C1026.39 164.21 1023.87 164 1021.37 164C1013.68 164.012 1005.86 164.767 998.298 166.074C993.494 166.903 987.687 169.696 982.909 168.179C974.585 165.537 966.172 165.667 958.274 169.439C951.053 172.888 945.572 179.439 942.373 186.517C941.89 187.586 939.932 191.519 939.378 194.17C939.141 194.712 938.913 195.257 938.708 195.811C938.126 197.384 937.603 198.984 937.118 200.588C936.91 201.272 936.389 202.782 937.008 203.074C936.019 204.901 935.141 206.783 934.411 208.726C932.286 214.378 929.962 220.578 929.215 226.568C928.939 228.786 928.928 231.017 929.185 233.239C929.312 234.338 929.26 236.546 930.004 237.382C931.585 239.154 932.396 236.673 932.218 235.491C930.858 226.485 933.485 218.027 936.598 209.561C938.612 204.087 941.92 199.078 945.626 194.543C948.625 190.871 951.842 187.98 955.953 185.546C960.981 182.569 966.356 180.163 971.681 177.749C975.184 176.161 978.691 174.615 982.291 173.247C983.092 172.942 984.351 172.161 985.239 172.158C987.116 172.152 989.777 173.537 991.59 174.052C997.554 175.748 1003.59 177.919 1009.76 178.785C1013.71 179.341 1017.42 178.715 1021.11 177.398C1021.49 177.264 1022.12 176.918 1022.9 176.424C1025.65 175.368 1028.24 174.039 1030.5 172.121C1031.81 171.017 1032.99 169.589 1034.07 168.282C1034.39 167.892 1034.53 167.444 1034.54 167.018C1034.78 166.891 1034.94 166.741 1034.98 166.567C1035.25 165.281 1032.8 165.258 1031.23 165.334" fill="#89C5CC"/>
<path fill-rule="evenodd" clip-rule="evenodd" d="M1021.98 201.66C1018.57 200.915 1014.8 200.972 1011.33 201.033C992.695 201.287 974.397 210.109 962.489 224.205C952.351 236.205 949.563 251.125 947.56 266.207C947.362 267.704 947.277 269.192 947.165 270.693C947.141 271.015 947.105 271.302 947.066 271.573C946.279 272.277 945.865 273.098 946.332 274C944.597 277.797 943.129 281.69 941.869 285.706C938.162 297.526 934.392 309.571 936.714 322C937.257 315.16 938.399 308.166 939.764 301.438C939.842 301.052 939.927 300.669 940.015 300.287C940.025 300.247 940.033 300.206 940.042 300.166C940.525 298.106 941.153 296.108 941.917 294.141C941.925 294.119 941.933 294.098 941.941 294.077C942.042 293.818 942.149 293.56 942.255 293.303C942.474 292.77 942.699 292.238 942.937 291.709C943.018 291.528 943.095 291.346 943.17 291.163C944.282 288.437 944.751 285.365 945.748 282.545C945.986 281.904 946.235 281.265 946.496 280.629C946.512 280.592 946.527 280.555 946.543 280.518C947.249 278.807 948.028 277.118 948.853 275.446C949.301 275.11 949.54 274.274 949.927 273.515C950.006 273.365 950.631 272.368 950.817 271.793C951.303 270.854 951.786 269.915 952.275 268.977C952.261 268.983 952.246 268.988 952.231 268.994C952.72 268.093 953.211 267.197 953.698 266.304C953.805 266.108 953.913 265.912 954.021 265.715C954.196 265.402 954.371 265.089 954.545 264.777C956.177 261.856 957.908 258.994 959.705 256.167C960.347 255.158 961.879 253.711 962.173 252.579C962.184 252.536 962.186 252.497 962.193 252.457C966.093 246.979 970.582 241.927 975.967 237.924C975.316 238.628 973.932 241.015 973.567 241.488C972.447 242.935 971.232 244.282 970.013 245.646C967.828 248.089 965.696 250.609 963.801 253.274C960.335 258.148 957.346 263.277 954.519 268.51C954.493 268.54 954.463 268.569 954.438 268.601C953.017 270.352 952.123 272.998 951.101 275.001C955.147 273.127 959.622 271.906 963.774 270.242C967.916 268.583 971.944 266.735 975.834 264.566C981.003 261.682 986.366 258.427 991.25 254.743C996.847 251.271 1001.55 246.492 1005.7 241.477C1010.62 235.543 1015.12 229.558 1017.9 222.353C1019.27 218.813 1020.34 215.121 1020.98 211.386C1021.01 211.224 1021.05 211.047 1021.08 210.864C1021.74 209.574 1022.32 208.255 1022.81 206.906C1023.59 204.766 1025.42 202.412 1021.98 201.66" fill="#69A1AC"/>
<path fill-rule="evenodd" clip-rule="evenodd" d="M1028.99 267.376C1025.04 264.701 1019.8 264 1015.08 264C996.64 264 979.311 270.84 964.341 281.032C956.138 286.616 948.8 293.728 942.322 301.132C938.582 305.407 935.248 310.03 932.887 315.173C931.294 318.644 930.201 322.261 929.46 325.991C928.557 330.537 927.839 335.175 927.515 339.797C927.387 341.617 926.33 351.274 929.356 351.438C929.338 351.676 929.334 351.903 929.353 352.106C922.782 362.38 918.723 374.42 914.958 385.835C911.683 395.769 908.764 405.786 906.87 416.063C904.375 429.592 902.737 443.326 901.958 457.05C901.791 459.999 901.676 462.95 901.577 465.903C901.493 468.422 901.408 470.941 901.325 473.461C901.233 476.284 900.736 479.534 901.185 482.34C901.576 484.784 903.691 484.414 903.785 481.982C903.898 479.045 903.879 476.102 904.008 473.163C904.179 469.262 904.355 465.361 904.546 461.461C905.875 434.369 910.86 407.675 920.061 382.084C923.785 371.728 928.051 361.925 933.535 352.345C938.356 343.922 944.156 335.767 950.084 328.173C955.845 320.792 961.836 313.583 968.895 307.33C974.624 302.256 980.926 297.835 987.404 293.722C995.631 288.498 1003.84 283.401 1012.76 279.391C1017.39 277.307 1022.11 275.441 1026.78 273.44C1027.62 273.081 1028.52 272.732 1029.33 272.315C1032.02 270.925 1031.13 268.832 1028.99 267.376" fill="#C1DEE2"/>
<path fill-rule="evenodd" clip-rule="evenodd" d="M954.818 362C962.295 362 968.949 362.972 975.838 365.943C981.785 368.508 987.205 371.903 992.467 375.599C999.868 380.798 1005.7 386.848 1009.78 394.865C1012.22 399.654 1014.01 406.431 1012.37 411.655C1010.44 417.807 1005.14 422.939 998.169 421.855C993.856 421.185 989.903 418.33 986.625 415.643C982.703 412.428 979.564 408.563 976.972 404.27C972.744 397.267 970.26 389.351 966.668 382.033C964.964 378.56 963.317 375.063 961.275 371.762C960.265 370.128 959.189 368.509 957.656 367.294C956.836 366.644 953.378 365.52 954.7 364.061C935.31 364.315 918.132 379.207 914.409 397.641C914.063 399.359 913.792 401.091 913.505 402.82C913.325 403.911 913.398 407.937 912.422 408.634C910.27 410.172 911.174 405.499 911.267 404.826C911.506 403.087 911.76 401.35 912.027 399.615C913.481 390.181 917.681 381.411 924.685 374.683C932.694 366.99 943.501 362 954.818 362" fill="#89C5CC"/>
<path fill-rule="evenodd" clip-rule="evenodd" d="M60.9379 322.736C79.6043 354.052 101.345 384.374 114.401 418.613C113.875 414.577 113.317 410.545 112.692 406.52C109.38 385.179 105.262 363.994 100.936 342.835C98.7326 332.062 96.4023 321.327 94.0123 310.594C92.7268 304.829 91.4572 299.061 90.1452 293.302C89.8275 291.906 89.5544 289.469 89.1566 287C101.845 328.637 114.081 370.305 123.031 412.942C124.205 418.538 125.205 424.124 126.024 429.7C126.304 428.428 126.58 427.156 126.881 425.887C130.503 410.68 135.935 395.594 142.403 381.374C145.495 374.575 149.046 367.924 153.228 361.726C155.836 357.863 161.986 353.271 164.364 349.314C151.355 373.176 146.657 403.032 139.145 428.973C137.312 435.304 135.467 441.624 133.659 447.955C144.987 425.237 162.563 406.571 187 398.483C157.42 418.027 139.678 452.254 127.722 487.26C127.683 487.675 127.636 488.09 127.595 488.506C131.114 481.829 135.545 475.789 141.551 471.56C154.407 462.504 168.667 465.142 181.137 472.91C171.35 466.689 153.663 472.354 145.428 478.677C139.533 483.203 134.495 489.275 130.12 495.2C129.072 496.62 127.641 498.277 126.13 500.044C124.012 513.795 120.56 527.452 115.672 541C116.479 537.111 115.896 530.892 116.12 527.993C116.144 527.679 116.164 527.365 116.188 527.053C115.445 530.019 114.727 532.951 114.036 535.837C115.41 530.331 116.156 524.583 116.739 518.776C116.889 516.281 117.036 513.785 117.19 511.29C117.141 506.553 116.946 501.799 116.616 497.036C115.447 492.408 114.137 488.042 113.056 484.411C109.159 471.31 103.444 458.76 96.4108 447.051C89.9937 436.366 82.3124 426.688 73.4448 417.935C68.6643 413.217 63.6614 408.725 58.7289 404.17C56.9453 402.523 53.7572 398.474 51 396.363C71.0805 407.434 91.7489 419.41 106.398 437.248C104.68 430.653 102.815 424.151 100.842 417.78C90.8311 385.454 78.1913 351.953 60.9379 322.736Z" fill="#DDE3E9"/>
<path fill-rule="evenodd" clip-rule="evenodd" d="M81 500C81 535.899 83.8428 565 122 565C160.157 565 163 535.899 163 500" fill="#C5CFD6"/>
<g opacity="0.2">
<path opacity="0.2" d="M706.378 405.239C816.874 405.239 906.448 314.233 906.448 201.971C906.448 89.7099 816.874 -1.29602 706.378 -1.29602C595.882 -1.29602 506.307 89.7099 506.307 201.971C506.307 314.233 595.882 405.239 706.378 405.239Z" fill="#2F2E41"/>
<path opacity="0.2" d="M669.161 657.999C688.858 657.999 704.826 641.776 704.826 621.764C704.826 601.752 688.858 585.529 669.161 585.529C649.464 585.529 633.496 601.752 633.496 621.764C633.496 641.776 649.464 657.999 669.161 657.999Z" fill="#9AA8CF"/>
<path opacity="0.2" fill-rule="evenodd" clip-rule="evenodd" d="M514.335 -57L556.972 -13.6821L514.335 29.6359L471.699 -13.6821L514.335 -57Z" fill="#9AA8CF"/>
<path opacity="0.2" fill-rule="evenodd" clip-rule="evenodd" d="M396.02 552.83L416.897 574.041L396.02 595.251L375.143 574.041L396.02 552.83Z" fill="#FFA434"/>
<path opacity="0.2" fill-rule="evenodd" clip-rule="evenodd" d="M697.866 -1.29614L708.305 9.30915L697.866 19.9144L687.428 9.30915L697.866 -1.29614Z" fill="#2026A2"/>
</g>
<path fill-rule="evenodd" clip-rule="evenodd" d="M359.601 46.9866L514.431 41.4934C531.932 40.8725 546.614 54.7829 547.225 72.5631L560.677 463.925C561.288 481.705 547.597 496.622 530.096 497.243L375.266 502.736C357.765 503.357 343.083 489.447 342.471 471.666L329.02 80.3048C328.409 62.5245 342.1 47.6075 359.601 46.9866Z" fill="black"/>
<path fill-rule="evenodd" clip-rule="evenodd" d="M384.008 59.4304C384.235 66.0295 389.592 71.2176 396.05 71.1751L396.397 71.1678L479.353 68.2247C485.848 67.9942 490.955 62.5508 490.913 55.9903L490.906 55.6378L490.783 52.0598L515.133 51.1958C526.801 50.7819 536.589 60.0555 536.996 71.909L550.497 464.7C550.905 476.554 541.777 486.499 530.11 486.912L373.911 492.454C362.244 492.868 352.456 483.595 352.048 471.741L338.547 78.9497C338.14 67.0962 347.268 57.1515 358.935 56.7376L383.885 55.8524L384.008 59.4304Z" fill="#89C5CC"/>
<path fill-rule="evenodd" clip-rule="evenodd" d="M691.724 255.033C682.967 261.214 672.681 283.065 677.723 287.59C679.734 289.394 685.41 290.462 691.97 289.987L677.464 310.999L696.066 320.629L704.871 286.989C710.578 284.578 715.612 280.61 718.142 274.553C725.429 257.098 700.481 248.853 691.724 255.033Z" fill="#D4A181"/>
<path fill-rule="evenodd" clip-rule="evenodd" d="M689.395 238.977C690.47 237.8 692.097 237.159 693.668 237.532C694.049 237.623 694.416 237.77 694.757 237.964C694.88 238.034 694.897 238.089 694.999 238.03C695.076 237.987 695.157 237.826 695.214 237.758C695.39 237.546 695.579 237.345 695.78 237.158C696.468 236.52 697.31 236.075 698.197 235.793C699.856 235.265 701.733 235.28 703.356 235.947C704.244 236.312 705.018 236.89 705.681 237.587C706.024 237.948 706.337 238.338 706.63 238.742C706.718 238.864 706.954 239.358 707.082 239.4C707.224 239.447 707.654 239.252 707.802 239.224C709.637 238.879 711.468 239.318 713.104 240.18C714.951 241.154 716.689 242.172 717.659 244.121C717.865 244.534 718.043 244.961 718.199 245.395C718.282 245.624 718.356 245.855 718.421 246.089C718.46 246.23 718.495 246.373 718.526 246.516C718.579 246.759 718.528 246.804 718.782 246.785C719.757 246.711 720.727 246.942 721.541 247.5C722.024 247.832 722.447 248.249 722.82 248.702C722.947 248.857 723.181 249.332 723.353 249.425C723.523 249.516 724.024 249.447 724.234 249.472C725.367 249.609 726.44 250.053 727.36 250.737C728.309 251.444 729.115 252.389 729.701 253.423C729.983 253.92 730.196 254.419 730.284 254.986C730.322 255.231 730.342 255.48 730.403 255.721C730.439 255.862 730.557 256.049 730.541 256.195C730.55 256.107 731.937 256.253 732.061 256.281C732.721 256.428 733.298 256.766 733.773 257.252C734.666 258.166 735.185 259.448 735.529 260.665C735.706 261.29 735.812 261.935 735.851 262.583C735.87 262.894 735.874 263.205 735.864 263.516C735.859 263.667 735.82 263.838 735.839 263.986C735.864 264.177 735.927 264.213 736.069 264.364C736.79 265.131 737.325 266.074 737.576 267.104C737.83 268.146 737.783 269.243 737.48 270.268C737.463 270.328 737.354 270.56 737.371 270.606C737.393 270.67 737.579 270.743 737.642 270.786C737.859 270.933 738.068 271.093 738.268 271.265C738.635 271.581 738.967 271.94 739.255 272.332C740.376 273.861 740.739 275.829 740.467 277.69C740.181 279.643 739.213 281.549 737.734 282.846C737.495 283.055 737.24 283.246 736.969 283.412C736.803 283.514 736.774 283.499 736.755 283.686C736.733 283.894 736.769 284.126 736.762 284.337C736.74 285.024 736.623 285.705 736.435 286.364C736.126 287.445 735.698 288.529 735.017 289.427C734.701 289.845 734.327 290.219 733.896 290.513C733.676 290.663 733.441 290.792 733.197 290.897C733.071 290.952 732.941 290.999 732.81 291.041C732.735 291.065 732.647 291.075 732.576 291.108C732.404 291.19 732.438 291.067 732.392 291.295C732.327 291.612 732.359 291.975 732.327 292.3C732.295 292.636 732.249 292.969 732.195 293.301C732.084 293.974 731.94 294.642 731.734 295.292C731.338 296.538 730.69 297.749 729.624 298.529C729.167 298.863 728.639 299.089 728.085 299.191C727.814 299.241 727.538 299.262 727.262 299.254C727.12 299.25 726.963 299.198 726.855 299.283C726.738 299.375 726.701 299.657 726.653 299.802C726.23 301.059 725.696 302.332 724.777 303.303C723.93 304.197 722.767 304.771 721.554 304.922C719.201 305.215 716.874 303.926 715.515 302.013C715.161 301.514 714.868 300.971 714.652 300.397C712.933 301.264 710.858 300.134 709.567 298.965C707.959 297.509 707.128 295.427 707.133 293.26C705.232 294.104 703.006 292.358 702.982 290.363C702.976 289.874 703.071 289.388 703.228 288.928C703.311 288.687 703.445 288.469 703.534 288.233C703.648 287.932 703.599 287.557 703.63 287.225C703.689 286.578 703.838 285.955 704.123 285.372C704.272 285.068 704.458 284.792 704.637 284.506C704.798 284.249 704.85 283.959 704.942 283.67C705.378 283.996 706.024 284.166 706.543 284.258C707.052 284.348 707.646 284.199 708.122 284.029C709.229 283.633 710.175 282.854 710.98 282.007C712.745 280.148 713.798 277.367 712.225 275.031C711.492 273.943 708.45 272.37 707.101 272.023C705.683 271.657 702.813 273.761 702.608 273.992C702.481 274.135 702.4 274.352 702.194 274.385C701.743 274.457 701.411 273.754 701.273 273.42C701.033 272.844 700.974 272.212 700.958 271.593C700.922 270.246 701.035 268.879 701.292 267.558C701.491 266.539 701.793 265.539 701.904 264.504C702.015 263.473 701.894 262.439 701.349 261.541C700.757 260.564 699.912 259.774 699.137 258.951C698.368 258.135 697.652 257.255 697.28 256.176C697.198 255.939 697.125 255.695 697.088 255.446C697.059 255.25 697.097 254.923 696.988 254.752C696.82 254.486 696.285 254.674 696.01 254.7C694.656 254.831 693.34 255.31 692.147 255.959C690.96 256.605 689.915 257.277 688.898 258.158C688.144 258.812 687.4 259.764 686.464 260.134C686.046 260.3 683.977 259.46 683.469 258.864C682.962 258.268 682.589 257.209 682.59 256.667C682.591 256.112 682.782 255.6 683.118 255.166C683.316 254.911 683.561 254.704 683.763 254.457C683.933 254.25 684.091 254.053 684.311 253.896C684.728 253.599 685.238 253.495 685.737 253.6C685.496 252.936 685.374 252.229 685.399 251.523C685.425 250.788 685.557 249.947 685.818 249.262C686.03 248.705 686.387 248.199 686.901 247.892C687.439 247.57 688.125 247.533 688.733 247.472C688.312 246.553 688.052 245.566 687.935 244.561C687.708 242.607 688.036 240.463 689.395 238.977Z" fill="#4A312C"/>
<path fill-rule="evenodd" clip-rule="evenodd" d="M679.445 385.849L636.75 495.637L608.114 588.454H596.807L642.324 385.849L679.445 385.849Z" fill="#D4A181"/>
<path fill-rule="evenodd" clip-rule="evenodd" d="M688.042 385.849C688.497 424.429 695.127 476.372 696.186 478.777C696.892 480.38 721.272 500.768 769.324 539.942L761.536 548.409C704.839 514.823 675.178 495.79 672.554 491.31C668.619 484.591 655.806 422.758 645.52 385.849H688.042Z" fill="#D4A181"/>
<path fill-rule="evenodd" clip-rule="evenodd" d="M770.366 537.115C772.982 538.054 774.784 538.945 775.772 539.787C776.973 540.812 778.559 542.51 780.528 544.882C779.359 546.298 768.846 559.026 748.991 583.067C744.943 581.306 743.673 579.247 745.181 576.89C746.689 574.533 747.924 572.559 748.884 570.968L755.755 546.581C755.887 546.111 756.368 545.84 756.83 545.974C756.838 545.977 756.846 545.979 756.854 545.981L760.52 547.163C763.063 545.958 764.846 544.738 765.868 543.5C766.698 542.495 767.445 540.766 768.109 538.313L768.109 538.313C768.364 537.372 769.321 536.819 770.248 537.077C770.288 537.088 770.327 537.101 770.366 537.115Z" fill="#E4E4E4"/>
<path fill-rule="evenodd" clip-rule="evenodd" d="M612.745 584.17C613.718 586.809 614.205 588.784 614.205 590.094C614.205 591.688 613.944 594.013 613.421 597.071C611.601 597.071 595.247 597.071 564.359 597.071C563.084 592.789 563.82 590.477 566.567 590.135C569.313 589.794 571.595 589.486 573.412 589.21L596.216 578.882C596.655 578.683 597.169 578.883 597.365 579.329C597.368 579.337 597.371 579.345 597.374 579.352L598.84 582.965C601.383 584.17 603.45 584.773 605.039 584.773C606.331 584.773 608.115 584.243 610.391 583.183L610.391 583.183C611.265 582.776 612.297 583.166 612.698 584.053C612.715 584.091 612.731 584.13 612.745 584.17Z" fill="#E4E4E4"/>
<path fill-rule="evenodd" clip-rule="evenodd" d="M650.739 578.894L596.977 572.966L640.3 385.849H684.974L650.739 578.894Z" fill="#637296"/>
<path fill-rule="evenodd" clip-rule="evenodd" d="M758.203 526.281L722.938 568.689C685.795 527.474 664.14 500.58 657.974 488.01C651.808 475.439 646.265 441.385 641.345 385.849H695.556C698.244 434.707 700.055 460.273 700.991 462.547C701.927 464.821 720.997 486.065 758.203 526.281Z" fill="#9AA8CF"/>
<path fill-rule="evenodd" clip-rule="evenodd" d="M740.958 385.884L722.806 384.989C732.118 422.328 737.163 442.146 737.94 444.442C739.689 449.607 735.039 457.084 733.007 461.127C738.791 464.135 738.674 454.132 745.963 458.061C752.617 461.647 757.503 467.762 765.637 463.244C766.636 462.689 767.816 460.459 765.343 458.536C759.183 453.746 750.377 445.466 749.265 442.836C747.748 439.25 744.979 420.266 740.958 385.884ZM576.359 316.186L576.558 316.732C578.207 321.292 579.643 326.002 578.264 327.097C576.83 328.236 574.066 325.878 572.258 327.863C571.052 329.186 575.908 332.364 586.825 337.397L605.351 361.041L618.236 350.805L591.002 329.412C586.975 322.631 582.813 317.198 578.516 313.113C577.143 312.253 574.63 311.461 576.359 316.186Z" fill="#D4A181"/>
<path fill-rule="evenodd" clip-rule="evenodd" d="M692.788 303.85L685.801 300.729C666.06 312.37 650.336 348.366 638.519 350.665C627.347 352.838 614.267 344.683 598.899 334.253L590.852 344.676C602.05 365.416 631.224 387.932 646.461 383.157C670.823 375.522 687.103 330.337 692.788 303.85Z" fill="#637296"/>
<path fill-rule="evenodd" clip-rule="evenodd" d="M701.735 405.095C672.471 397.682 650.945 392.229 637.156 388.736C634.206 387.989 635.824 383.801 636.787 381.724C647.897 357.76 673.784 335.451 682.591 299.563L701.947 301.314C711.176 330.392 708.898 362.738 701.735 405.095Z" fill="#C7D1D9"/>
<path fill-rule="evenodd" clip-rule="evenodd" d="M695.774 299.75C664.839 353.429 650.759 390.849 653.534 412.012L711.665 426.737C714.204 412.409 714.913 396.755 714.441 381.198C721.684 408.661 728.487 428.834 734.85 441.719L749.047 442.454C753.81 385.305 738.511 338.36 703.149 301.618L695.774 299.75Z" fill="#9AA8CF"/>
<mask id="mask0" mask-type="alpha" maskUnits="userSpaceOnUse" x="338" y="-57" width="440" height="715">
<path d="M530.11 486.913L373.911 492.455C362.244 492.869 352.456 483.595 352.048 471.742L338.547 78.9506C338.14 67.0971 347.268 57.1524 358.935 56.7385L396.02 -56.9733H777.55V658H609.946C558.216 543.889 531.604 486.86 530.11 486.913Z" fill="white"/>
</mask>
<g mask="url(#mask0)">
<path fill-rule="evenodd" clip-rule="evenodd" d="M588.026 110.588C583.079 128.403 554.062 157.433 544.054 151.665C540.062 149.364 535.199 140.636 532.297 129.597L506.965 165.092L481.278 139.89L529.871 106.744C530.523 96.0321 534.027 85.5595 542.251 78.0412C565.947 56.3779 592.973 92.7733 588.026 110.588Z" fill="#D4A181"/>
<mask id="mask1" mask-type="alpha" maskUnits="userSpaceOnUse" x="496" y="53" width="97" height="62">
<path fill-rule="evenodd" clip-rule="evenodd" d="M590.672 104.394C591.794 102.756 592.901 102.498 591.08 92.9943C589.259 83.491 584.667 69.8849 573.585 62.9736C559.204 54.0043 546.957 57.3182 538.72 56.6904C531.295 56.1246 526.776 52.4739 520.225 54.3841C513.675 56.2944 500.574 67.4267 498.015 74.4512C494.484 84.1412 498.537 91.6603 500.903 97.772C504.962 108.254 518.594 114.764 519.402 114.419C525.649 111.753 548.197 109.063 559.547 109.773C567.892 110.295 585.406 112.083 590.672 104.394Z" fill="white"/>
</mask>
<g mask="url(#mask1)">
<path fill-rule="evenodd" clip-rule="evenodd" d="M590.672 104.394C591.794 102.756 592.901 102.498 591.08 92.9943C589.259 83.491 584.667 69.8849 573.585 62.9736C559.204 54.0043 546.957 57.3182 538.72 56.6904C531.295 56.1246 526.776 52.4739 520.225 54.3841C513.675 56.2944 500.574 67.4267 498.015 74.4512C494.484 84.1412 498.537 91.6603 500.903 97.772C504.962 108.254 518.594 114.764 519.402 114.419C525.649 111.753 548.197 109.063 559.547 109.773C567.892 110.295 585.406 112.083 590.672 104.394Z" fill="#5C63AB"/>
<path fill-rule="evenodd" clip-rule="evenodd" d="M531.962 53.9203C522.503 70.298 518.784 90.8951 520.807 115.712C514.399 91.2758 516.285 69.7059 526.466 51.0017L531.962 53.9203ZM541.216 53.8869C531.397 68.1351 525.712 84.3997 524.161 102.681C521.757 85.7954 525.457 69.1122 535.259 52.6311L541.216 53.8869Z" fill="black" fill-opacity="0.2"/>
</g>
<path fill-rule="evenodd" clip-rule="evenodd" d="M380.111 238.558L393.484 438.163L402.949 585.197L431.02 591.259L458.521 255.491L380.111 238.558Z" fill="#637296"/>
<path fill-rule="evenodd" clip-rule="evenodd" d="M366.004 235.512C344.489 332.255 329.259 384.267 326.134 392.804C323.009 401.341 291.908 453.226 232.832 548.46L261.912 554.74C330.338 465.917 368.69 415.598 376.966 403.782C385.243 391.965 413.451 342.756 458.68 255.525L366.004 235.512Z" fill="#9AA8CF"/>
<path fill-rule="evenodd" clip-rule="evenodd" d="M393.439 610.975L401.394 580.223L431.949 586.821C444.27 600.305 461.431 612.773 483.431 624.224L482.193 630.142L426.904 618.202L408.608 611.158L407.989 614.117L393.439 610.975Z" fill="#191847"/>
<path fill-rule="evenodd" clip-rule="evenodd" d="M356.065 167.596L375.461 186.133C317.129 220.658 286.112 238.798 282.409 240.552C274.077 244.497 270.554 259.185 268.075 266.524C257.559 262.864 269.806 251.137 256.385 246.688C244.135 242.627 230.924 243.778 226.724 228.247C226.207 226.338 227.504 222.217 232.771 223.026C245.893 225.04 266.384 226.221 270.889 224.489C277.033 222.127 305.425 203.163 356.065 167.596ZM528.3 298.795L549.148 354.715C558.055 364.793 564.724 374.422 569.156 383.6C569.855 386.311 569.876 390.879 563.134 385.643C556.391 380.408 549.068 375.208 546.52 377.018C543.971 378.828 546.388 384.598 542.291 386.605C539.559 387.944 536.866 378.292 534.211 357.65L505.394 315.059L528.3 298.795Z" fill="#D4A181"/>
<path fill-rule="evenodd" clip-rule="evenodd" d="M523.635 146.15C517.299 197.442 518.55 251.487 535.513 308.139C540.874 311.145 545.893 315.681 550.56 321.662C552.857 324.606 552.371 328.88 549.474 331.208C547.793 332.561 545.668 332.959 543.732 332.48C544.333 334.079 544.948 335.681 545.577 337.285L522.24 351.459C493.648 302.202 464.233 259.88 468.693 212.648C470.19 196.795 497.963 157.917 506.739 142.897L523.635 146.15Z" fill="#637296"/>
<path fill-rule="evenodd" clip-rule="evenodd" d="M372.874 248.05C409.309 278.307 440.188 298.68 465.511 309.171C468.648 310.47 476.328 298.182 477.165 293.995C490.194 228.779 501.229 182.025 524.279 145.965C519.327 145.485 512.667 141.508 504.298 134.035C455.695 154.801 417.018 189.903 372.874 248.05Z" fill="#191847"/>
<path fill-rule="evenodd" clip-rule="evenodd" d="M510.418 133.754C470.404 187.062 449.88 347.54 363.022 438.853C320.618 422.807 284.429 361.805 219.621 348.706C248.445 307.872 318.424 283.731 361.663 249.377C361.142 247.228 361.666 244.863 363.263 243.124L366.304 239.812C368.364 237.569 371.571 237.061 374.15 238.351C375.786 236.731 377.354 235.082 378.85 233.405C391.481 219.246 397.093 200.893 407.033 185.793C375.864 189.923 338.692 208.04 295.516 240.143L276.446 217.556C279.512 214.759 282.585 212.025 285.663 209.354C283.941 205.998 285.356 196.709 288.413 197.016C291.569 197.333 294.631 198.11 297.595 199.334C361.417 147.554 427.628 122.572 496.226 124.391L510.418 133.754Z" fill="#9AA8CF"/>
<path fill-rule="evenodd" clip-rule="evenodd" d="M500.57 129.058L481.292 144.897L484.632 168.51L465.351 172.613L462.22 240.56L458.97 168.543L478.105 164.204L475.103 143.303L500.57 129.058Z" fill="black" fill-opacity="0.1"/>
<path fill-rule="evenodd" clip-rule="evenodd" d="M418.502 307.118C421.259 308.937 422.044 312.679 420.256 315.476C418.468 318.273 414.784 319.066 412.028 317.247C409.271 315.428 408.485 311.686 410.273 308.889C412.061 306.092 415.745 305.299 418.502 307.118ZM435.868 277.174C438.624 278.993 439.41 282.735 437.622 285.532C435.834 288.329 432.15 289.122 429.393 287.303C426.637 285.485 425.851 281.743 427.639 278.946C429.427 276.149 433.111 275.356 435.868 277.174ZM448.242 243.937C450.999 245.756 451.784 249.498 449.996 252.295C448.208 255.092 444.524 255.885 441.768 254.066C439.011 252.247 438.225 248.505 440.013 245.708C441.801 242.911 445.485 242.119 448.242 243.937Z" fill="black" fill-opacity="0.4"/>
</g>
</g>
<defs>
<clipPath id="clip0">
<rect width="1100" height="600" fill="white"/>
</clipPath>
<clipPath id="clip1">
<rect width="73" height="21.6" fill="white" transform="translate(227 65.2)"/>
</clipPath>
<clipPath id="clip2">
<rect width="73" height="16.8" fill="white" transform="translate(227 123.6)"/>
</clipPath>
<clipPath id="clip3">
<rect width="73" height="16.8" fill="white" transform="translate(227 173.6)"/>
</clipPath>
<clipPath id="clip4">
<rect width="73" height="16.8" fill="white" transform="translate(227 223.6)"/>
</clipPath>
<clipPath id="clip5">
<rect width="73" height="21.6" fill="white" transform="translate(387 89.2)"/>
</clipPath>
<clipPath id="clip6">
<rect width="73" height="16.8" fill="white" transform="translate(417 147.6)"/>
</clipPath>
<clipPath id="clip7">
<rect width="73" height="16.8" fill="white" transform="translate(387 197.6)"/>
</clipPath>
<clipPath id="clip8">
<rect width="73" height="16.8" fill="white" transform="translate(417 247.6)"/>
</clipPath>
<clipPath id="clip9">
<rect width="167" height="18.8" fill="white" transform="translate(578 164.1)"/>
</clipPath>
<clipPath id="clip10">
<rect width="167" height="15.6" fill="white" transform="translate(578 216.7)"/>
</clipPath>
<clipPath id="clip11">
<rect width="167" height="15.6" fill="white" transform="translate(578 263.7)"/>
</clipPath>
<clipPath id="clip12">
<rect width="167" height="15.6" fill="white" transform="translate(578 404.7)"/>
</clipPath>
<clipPath id="clip13">
<rect width="167" height="15.6" fill="white" transform="translate(578 357.7)"/>
</clipPath>
<clipPath id="clip14">
<rect width="167" height="15.6" fill="white" transform="translate(578 310.7)"/>
</clipPath>
</defs>
</svg>
