<svg width="1100" height="600" viewBox="0 0 1100 600" fill="none" xmlns="http://www.w3.org/2000/svg">
<g clip-path="url(#clip0)">
<g opacity="0.2">
<path opacity="0.2" d="M526.378 405.239C636.874 405.239 726.448 314.233 726.448 201.971C726.448 89.7099 636.874 -1.29602 526.378 -1.29602C415.882 -1.29602 326.307 89.7099 326.307 201.971C326.307 314.233 415.882 405.239 526.378 405.239Z" fill="#2F2E41"/>
<path opacity="0.2" d="M489.161 657.999C508.858 657.999 524.826 641.776 524.826 621.764C524.826 601.752 508.858 585.529 489.161 585.529C469.464 585.529 453.496 601.752 453.496 621.764C453.496 641.776 469.464 657.999 489.161 657.999Z" fill="#9AA8CF"/>
<path opacity="0.2" fill-rule="evenodd" clip-rule="evenodd" d="M334.335 -57L376.972 -13.6821L334.335 29.6359L291.699 -13.6821L334.335 -57Z" fill="#9AA8CF"/>
<path opacity="0.2" fill-rule="evenodd" clip-rule="evenodd" d="M216.02 552.83L236.897 574.041L216.02 595.251L195.143 574.041L216.02 552.83Z" fill="#FFA434"/>
<path opacity="0.2" fill-rule="evenodd" clip-rule="evenodd" d="M517.866 -1.29614L528.305 9.30915L517.866 19.9144L507.428 9.30915L517.866 -1.29614Z" fill="#2026A2"/>
</g>
<path d="M1010.06 149.98H869.639V147H805.968V149.98H664.969C663.722 149.98 662.487 150.233 661.334 150.725C660.182 151.216 659.135 151.937 658.253 152.845C657.371 153.753 656.671 154.832 656.194 156.018C655.716 157.205 655.471 158.477 655.471 159.761V357.761C655.471 360.355 656.471 362.843 658.253 364.677C660.034 366.511 662.45 367.542 664.969 367.542H1010.06C1012.58 367.542 1014.99 366.511 1016.78 364.677C1018.56 362.843 1019.56 360.355 1019.56 357.761V159.761C1019.56 158.477 1019.31 157.205 1018.83 156.018C1018.36 154.832 1017.66 153.753 1016.78 152.845C1015.89 151.937 1014.85 151.216 1013.69 150.725C1012.54 150.233 1011.31 149.98 1010.06 149.98Z" fill="#191847"/>
<path d="M1006.82 167.266H668.206V363.965H1006.82V167.266Z" fill="#89C5CC"/>
<path d="M837.225 161.901C839.143 161.901 840.698 160.3 840.698 158.325C840.698 156.35 839.143 154.749 837.225 154.749C835.307 154.749 833.752 156.35 833.752 158.325C833.752 160.3 835.307 161.901 837.225 161.901Z" fill="#89C5CC"/>
<path opacity="0.1" d="M909.985 363.966H668.206V167.266L909.985 363.966Z" fill="black"/>
<path d="M721.189 349.247C739.165 349.247 753.738 334.24 753.738 315.729C753.738 297.218 739.165 282.211 721.189 282.211C703.212 282.211 688.64 297.218 688.64 315.729C688.64 334.24 703.212 349.247 721.189 349.247Z" fill="#F2F2F2"/>
<path d="M947.864 273.348H916.233V280.154H947.864V273.348Z" fill="#191847"/>
<path d="M986.104 220.358H877.994V223.274H986.104V220.358Z" fill="#191847"/>
<path d="M986.104 229.594H877.994V232.511H986.104V229.594Z" fill="#191847"/>
<path d="M986.104 238.831H877.994V241.748H986.104V238.831Z" fill="#191847"/>
<path d="M986.104 248.068H877.994V250.985H986.104V248.068Z" fill="#191847"/>
<path d="M986.104 257.305H877.994V260.222H986.104V257.305Z" fill="#191847"/>
<path d="M986.105 171.257H972.886V184.869H986.105V171.257Z" fill="#F2F2F2"/>
<path d="M992.242 191.189H976.19V174.66H992.242V191.189ZM976.888 190.47H991.544V175.378H976.888V190.47Z" fill="#191847"/>
<path d="M1029.07 360.389H996.018V357.937C996.018 357.873 996.006 357.81 995.982 357.751C995.959 357.692 995.924 357.639 995.88 357.593C995.836 357.548 995.784 357.513 995.727 357.488C995.67 357.464 995.608 357.451 995.546 357.451H984.216C984.154 357.451 984.092 357.464 984.035 357.488C983.978 357.513 983.926 357.548 983.882 357.593C983.838 357.639 983.803 357.692 983.78 357.751C983.756 357.81 983.744 357.873 983.744 357.937V360.389H976.662V357.937C976.662 357.873 976.65 357.81 976.626 357.751C976.603 357.692 976.568 357.639 976.524 357.593C976.48 357.548 976.428 357.513 976.371 357.488C976.314 357.464 976.252 357.451 976.19 357.451H964.86C964.798 357.451 964.736 357.464 964.679 357.488C964.622 357.513 964.57 357.548 964.526 357.593C964.482 357.639 964.447 357.692 964.424 357.751C964.4 357.81 964.388 357.873 964.388 357.937V360.389H957.306V357.937C957.306 357.873 957.294 357.81 957.27 357.751C957.247 357.692 957.212 357.639 957.168 357.593C957.124 357.548 957.072 357.513 957.015 357.488C956.958 357.464 956.896 357.451 956.834 357.451H945.504C945.442 357.451 945.38 357.464 945.323 357.488C945.266 357.513 945.214 357.548 945.17 357.593C945.126 357.639 945.091 357.692 945.068 357.751C945.044 357.81 945.032 357.873 945.032 357.937V360.389H937.95V357.937C937.95 357.873 937.938 357.81 937.914 357.751C937.891 357.692 937.856 357.639 937.812 357.593C937.768 357.548 937.716 357.513 937.659 357.488C937.601 357.464 937.54 357.451 937.478 357.451H926.148C926.086 357.451 926.024 357.464 925.967 357.488C925.91 357.513 925.858 357.548 925.814 357.593C925.77 357.639 925.735 357.692 925.712 357.751C925.688 357.81 925.676 357.873 925.676 357.937V360.389H918.594V357.937C918.594 357.873 918.582 357.81 918.558 357.751C918.534 357.692 918.5 357.639 918.456 357.593C918.412 357.548 918.36 357.513 918.303 357.488C918.245 357.464 918.184 357.451 918.122 357.451H906.792C906.73 357.451 906.668 357.464 906.611 357.488C906.554 357.513 906.502 357.548 906.458 357.593C906.414 357.639 906.379 357.692 906.355 357.751C906.332 357.81 906.32 357.873 906.32 357.937V360.389H899.238V357.937C899.238 357.873 899.226 357.81 899.202 357.751C899.178 357.692 899.144 357.639 899.1 357.593C899.056 357.548 899.004 357.513 898.947 357.488C898.889 357.464 898.828 357.451 898.766 357.451H887.436C887.374 357.451 887.312 357.464 887.255 357.488C887.198 357.513 887.146 357.548 887.102 357.593C887.058 357.639 887.023 357.692 886.999 357.751C886.976 357.81 886.964 357.873 886.964 357.937V360.389H879.882V357.937C879.882 357.873 879.87 357.81 879.846 357.751C879.822 357.692 879.788 357.639 879.744 357.593C879.7 357.548 879.648 357.513 879.591 357.488C879.533 357.464 879.472 357.451 879.41 357.451H790.655C790.593 357.451 790.532 357.464 790.475 357.488C790.417 357.513 790.365 357.548 790.322 357.593C790.278 357.639 790.243 357.692 790.219 357.751C790.195 357.81 790.183 357.873 790.183 357.937V360.389H783.102V357.937C783.102 357.873 783.09 357.81 783.066 357.751C783.042 357.692 783.007 357.639 782.963 357.593C782.92 357.548 782.868 357.513 782.81 357.488C782.753 357.464 782.692 357.451 782.63 357.451H771.299C771.237 357.451 771.176 357.464 771.119 357.488C771.061 357.513 771.009 357.548 770.965 357.593C770.922 357.639 770.887 357.692 770.863 357.751C770.839 357.81 770.827 357.873 770.827 357.937V360.389H763.746V357.937C763.746 357.873 763.733 357.81 763.71 357.751C763.686 357.692 763.651 357.639 763.607 357.593C763.564 357.548 763.512 357.513 763.454 357.488C763.397 357.464 763.336 357.451 763.274 357.451H751.943C751.881 357.451 751.82 357.464 751.763 357.488C751.705 357.513 751.653 357.548 751.609 357.593C751.566 357.639 751.531 357.692 751.507 357.751C751.483 357.81 751.471 357.873 751.471 357.937V360.389H744.39V357.937C744.39 357.873 744.377 357.81 744.354 357.751C744.33 357.692 744.295 357.639 744.251 357.593C744.208 357.548 744.155 357.513 744.098 357.488C744.041 357.464 743.98 357.451 743.918 357.451H732.587C732.525 357.451 732.464 357.464 732.407 357.488C732.349 357.513 732.297 357.548 732.253 357.593C732.21 357.639 732.175 357.692 732.151 357.751C732.127 357.81 732.115 357.873 732.115 357.937V360.389H725.034V357.937C725.034 357.873 725.021 357.81 724.998 357.751C724.974 357.692 724.939 357.639 724.895 357.593C724.852 357.548 724.799 357.513 724.742 357.488C724.685 357.464 724.624 357.451 724.562 357.451H713.231C713.169 357.451 713.108 357.464 713.05 357.488C712.993 357.513 712.941 357.548 712.897 357.593C712.853 357.639 712.819 357.692 712.795 357.751C712.771 357.81 712.759 357.873 712.759 357.937V360.389H705.678V357.937C705.678 357.873 705.665 357.81 705.642 357.751C705.618 357.692 705.583 357.639 705.539 357.593C705.495 357.548 705.443 357.513 705.386 357.488C705.329 357.464 705.267 357.451 705.205 357.451H693.875C693.813 357.451 693.752 357.464 693.694 357.488C693.637 357.513 693.585 357.548 693.541 357.593C693.497 357.639 693.463 357.692 693.439 357.751C693.415 357.81 693.403 357.873 693.403 357.937V360.389H686.321V357.937C686.321 357.873 686.309 357.81 686.286 357.751C686.262 357.692 686.227 357.639 686.183 357.593C686.139 357.548 686.087 357.513 686.03 357.488C685.973 357.464 685.911 357.451 685.849 357.451H674.519C674.457 357.451 674.396 357.464 674.338 357.488C674.281 357.513 674.229 357.548 674.185 357.593C674.141 357.639 674.107 357.692 674.083 357.751C674.059 357.81 674.047 357.873 674.047 357.937V360.389H652.33C649.325 360.389 646.443 361.618 644.319 363.806C642.194 365.995 641 368.962 641 372.057V377.332C641 380.427 642.194 383.395 644.319 385.583C646.443 387.771 649.325 389 652.33 389H1029.07C1032.07 389 1034.95 387.771 1037.08 385.583C1039.2 383.395 1040.4 380.427 1040.4 377.332V372.057C1040.4 368.962 1039.2 365.995 1037.08 363.806C1034.95 361.618 1032.07 360.389 1029.07 360.389Z" fill="#191847"/>
<path d="M729.068 336.664C720.955 336.664 713.024 334.186 706.279 329.545C699.533 324.904 694.276 318.307 691.171 310.588C688.067 302.87 687.254 294.377 688.837 286.183C690.42 277.99 694.326 270.463 700.063 264.556C705.8 258.649 713.109 254.626 721.065 252.996C729.022 251.366 737.27 252.203 744.765 255.4C752.26 258.597 758.667 264.011 763.174 270.957C767.681 277.903 770.087 286.07 770.087 294.424C770.075 305.623 765.749 316.359 758.059 324.278C750.369 332.197 739.943 336.651 729.068 336.664ZM729.068 253.296C721.169 253.296 713.447 255.708 706.879 260.227C700.311 264.746 695.191 271.17 692.169 278.685C689.146 286.2 688.355 294.47 689.896 302.448C691.437 310.426 695.241 317.754 700.826 323.506C706.412 329.258 713.529 333.175 721.276 334.762C729.024 336.349 737.054 335.534 744.352 332.421C751.65 329.308 757.888 324.037 762.276 317.273C766.665 310.51 769.007 302.558 769.007 294.424C768.995 283.52 764.784 273.066 757.296 265.356C749.809 257.645 739.657 253.308 729.068 253.296Z" fill="#191847"/>
<path fill-rule="evenodd" clip-rule="evenodd" d="M179.601 46.9866L334.431 41.4934C351.932 40.8725 366.614 54.7829 367.225 72.5631L380.677 463.925C381.288 481.705 367.597 496.622 350.096 497.243L195.266 502.736C177.765 503.357 163.083 489.447 162.471 471.667L149.02 80.3048C148.409 62.5245 162.1 47.6075 179.601 46.9866Z" fill="black"/>
<path fill-rule="evenodd" clip-rule="evenodd" d="M204.008 59.4304C204.235 66.0295 209.592 71.2176 216.05 71.1751L216.397 71.1678L299.353 68.2246C305.848 67.9942 310.955 62.5508 310.913 55.9903L310.906 55.6378L310.783 52.0598L335.133 51.1958C346.801 50.7819 356.589 60.0555 356.996 71.909L370.497 464.7C370.905 476.554 361.777 486.499 350.11 486.912L193.911 492.454C182.244 492.868 172.456 483.595 172.048 471.741L158.547 78.9497C158.14 67.0962 167.268 57.1515 178.935 56.7376L203.885 55.8524L204.008 59.4304Z" fill="#89C5CC"/>
<path fill-rule="evenodd" clip-rule="evenodd" d="M511.724 255.033C502.967 261.214 492.681 283.065 497.723 287.59C499.734 289.394 505.41 290.462 511.97 289.987L497.464 310.999L516.066 320.629L524.871 286.989C530.578 284.578 535.612 280.61 538.142 274.553C545.429 257.098 520.481 248.853 511.724 255.033Z" fill="#D4A181"/>
<path fill-rule="evenodd" clip-rule="evenodd" d="M509.395 238.977C510.47 237.8 512.097 237.159 513.668 237.532C514.049 237.623 514.416 237.77 514.757 237.964C514.88 238.034 514.897 238.089 514.999 238.03C515.076 237.987 515.157 237.826 515.214 237.758C515.39 237.546 515.579 237.345 515.78 237.158C516.468 236.52 517.31 236.075 518.197 235.793C519.856 235.265 521.733 235.28 523.356 235.947C524.244 236.312 525.018 236.89 525.681 237.587C526.024 237.948 526.337 238.338 526.63 238.742C526.718 238.864 526.954 239.358 527.082 239.4C527.224 239.447 527.654 239.252 527.802 239.224C529.637 238.879 531.468 239.318 533.104 240.18C534.951 241.154 536.689 242.172 537.659 244.121C537.865 244.534 538.043 244.961 538.199 245.395C538.282 245.624 538.356 245.855 538.421 246.089C538.46 246.23 538.495 246.373 538.526 246.516C538.579 246.759 538.528 246.804 538.782 246.785C539.757 246.711 540.727 246.942 541.541 247.5C542.024 247.832 542.447 248.249 542.82 248.702C542.947 248.857 543.181 249.332 543.353 249.425C543.523 249.516 544.024 249.447 544.234 249.472C545.367 249.609 546.44 250.053 547.36 250.737C548.309 251.444 549.115 252.389 549.701 253.423C549.983 253.92 550.196 254.419 550.284 254.986C550.322 255.231 550.342 255.48 550.403 255.721C550.439 255.862 550.557 256.049 550.541 256.195C550.55 256.107 551.937 256.253 552.061 256.281C552.721 256.428 553.298 256.766 553.773 257.252C554.666 258.166 555.185 259.448 555.529 260.665C555.706 261.29 555.812 261.935 555.851 262.583C555.87 262.894 555.874 263.205 555.864 263.516C555.859 263.667 555.82 263.838 555.839 263.986C555.864 264.177 555.927 264.213 556.069 264.364C556.79 265.131 557.325 266.074 557.576 267.104C557.83 268.146 557.783 269.243 557.48 270.268C557.463 270.328 557.354 270.56 557.371 270.606C557.393 270.67 557.579 270.743 557.642 270.786C557.859 270.933 558.068 271.093 558.268 271.265C558.635 271.581 558.967 271.94 559.255 272.332C560.376 273.861 560.739 275.829 560.467 277.69C560.181 279.643 559.213 281.549 557.734 282.846C557.495 283.055 557.24 283.246 556.969 283.412C556.803 283.514 556.774 283.499 556.755 283.686C556.733 283.894 556.769 284.126 556.762 284.337C556.74 285.024 556.623 285.705 556.435 286.364C556.126 287.445 555.698 288.529 555.017 289.427C554.701 289.845 554.327 290.219 553.896 290.513C553.676 290.663 553.441 290.792 553.197 290.897C553.071 290.952 552.941 290.999 552.81 291.041C552.735 291.065 552.647 291.075 552.576 291.108C552.404 291.19 552.438 291.067 552.392 291.295C552.327 291.612 552.359 291.975 552.327 292.3C552.295 292.636 552.249 292.969 552.195 293.301C552.084 293.974 551.94 294.642 551.734 295.292C551.338 296.538 550.69 297.749 549.624 298.529C549.167 298.863 548.639 299.089 548.085 299.191C547.814 299.241 547.538 299.262 547.262 299.254C547.12 299.25 546.963 299.198 546.855 299.283C546.738 299.375 546.701 299.657 546.653 299.802C546.23 301.059 545.696 302.332 544.777 303.303C543.93 304.197 542.767 304.771 541.554 304.922C539.201 305.215 536.874 303.926 535.515 302.013C535.161 301.514 534.868 300.971 534.652 300.397C532.933 301.264 530.858 300.134 529.567 298.965C527.959 297.509 527.128 295.427 527.133 293.26C525.232 294.104 523.006 292.358 522.982 290.363C522.976 289.874 523.071 289.388 523.228 288.928C523.311 288.687 523.445 288.469 523.534 288.233C523.648 287.932 523.599 287.557 523.63 287.225C523.689 286.578 523.838 285.955 524.123 285.372C524.272 285.068 524.458 284.792 524.637 284.506C524.798 284.249 524.85 283.959 524.942 283.67C525.378 283.996 526.024 284.166 526.543 284.258C527.052 284.348 527.646 284.199 528.122 284.029C529.229 283.633 530.175 282.854 530.98 282.007C532.745 280.148 533.798 277.367 532.225 275.031C531.492 273.943 528.45 272.37 527.101 272.023C525.683 271.657 522.813 273.761 522.608 273.992C522.481 274.135 522.4 274.352 522.194 274.385C521.743 274.457 521.411 273.754 521.273 273.42C521.033 272.844 520.974 272.212 520.958 271.593C520.922 270.246 521.035 268.879 521.292 267.558C521.491 266.539 521.793 265.539 521.904 264.504C522.015 263.473 521.894 262.439 521.349 261.541C520.757 260.564 519.912 259.774 519.137 258.951C518.368 258.135 517.652 257.255 517.28 256.176C517.198 255.939 517.125 255.695 517.088 255.446C517.059 255.25 517.097 254.923 516.988 254.752C516.82 254.486 516.285 254.674 516.01 254.7C514.655 254.831 513.34 255.31 512.147 255.959C510.96 256.605 509.915 257.277 508.898 258.158C508.144 258.812 507.4 259.764 506.464 260.134C506.046 260.3 503.977 259.46 503.469 258.864C502.962 258.268 502.589 257.209 502.59 256.667C502.591 256.112 502.782 255.6 503.118 255.166C503.316 254.911 503.561 254.704 503.763 254.457C503.933 254.25 504.091 254.053 504.311 253.896C504.728 253.599 505.238 253.495 505.737 253.6C505.496 252.936 505.374 252.229 505.399 251.523C505.425 250.788 505.557 249.947 505.818 249.262C506.03 248.705 506.387 248.199 506.901 247.892C507.439 247.57 508.125 247.533 508.733 247.472C508.312 246.553 508.052 245.566 507.935 244.561C507.708 242.607 508.036 240.463 509.395 238.977Z" fill="#4A312C"/>
<path fill-rule="evenodd" clip-rule="evenodd" d="M499.445 385.849L456.75 495.637L428.114 588.454H416.807L462.324 385.849L499.445 385.849Z" fill="#D4A181"/>
<path fill-rule="evenodd" clip-rule="evenodd" d="M508.042 385.849C508.497 424.429 515.127 476.372 516.186 478.777C516.892 480.38 541.272 500.768 589.324 539.942L581.536 548.409C524.839 514.823 495.178 495.79 492.554 491.31C488.619 484.591 475.806 422.758 465.52 385.849H508.042Z" fill="#D4A181"/>
<path fill-rule="evenodd" clip-rule="evenodd" d="M590.366 537.115C592.982 538.054 594.784 538.945 595.772 539.787C596.973 540.812 598.559 542.51 600.528 544.882C599.359 546.298 588.846 559.026 568.991 583.067C564.943 581.306 563.673 579.247 565.181 576.89C566.689 574.533 567.924 572.559 568.884 570.968L575.755 546.581C575.887 546.111 576.368 545.84 576.83 545.974C576.838 545.977 576.846 545.979 576.854 545.981L580.52 547.163C583.063 545.958 584.846 544.738 585.868 543.5C586.698 542.495 587.445 540.766 588.109 538.313L588.109 538.313C588.364 537.372 589.321 536.819 590.248 537.077C590.288 537.088 590.327 537.101 590.366 537.115Z" fill="#E4E4E4"/>
<path fill-rule="evenodd" clip-rule="evenodd" d="M432.745 584.17C433.718 586.809 434.205 588.784 434.205 590.094C434.205 591.688 433.944 594.013 433.421 597.071C431.601 597.071 415.247 597.071 384.359 597.071C383.084 592.789 383.82 590.477 386.567 590.135C389.313 589.794 391.595 589.486 393.412 589.21L416.216 578.882C416.655 578.683 417.169 578.883 417.365 579.329C417.368 579.337 417.371 579.345 417.374 579.352L418.84 582.965C421.383 584.17 423.45 584.773 425.039 584.773C426.331 584.773 428.115 584.243 430.391 583.183L430.391 583.183C431.265 582.776 432.297 583.166 432.698 584.053C432.715 584.091 432.731 584.13 432.745 584.17Z" fill="#E4E4E4"/>
<path fill-rule="evenodd" clip-rule="evenodd" d="M470.739 578.894L416.977 572.966L460.3 385.849H504.974L470.739 578.894Z" fill="#637296"/>
<path fill-rule="evenodd" clip-rule="evenodd" d="M578.203 526.281L542.938 568.689C505.795 527.474 484.14 500.58 477.974 488.01C471.808 475.439 466.265 441.385 461.345 385.849H515.556C518.244 434.707 520.055 460.273 520.991 462.547C521.927 464.821 540.997 486.065 578.203 526.281Z" fill="#9AA8CF"/>
<path fill-rule="evenodd" clip-rule="evenodd" d="M560.958 385.884L542.806 384.989C552.118 422.328 557.163 442.146 557.94 444.442C559.689 449.607 555.039 457.084 553.007 461.127C558.791 464.135 558.674 454.132 565.963 458.061C572.617 461.647 577.503 467.762 585.637 463.244C586.636 462.689 587.816 460.459 585.343 458.536C579.183 453.746 570.377 445.466 569.265 442.836C567.748 439.25 564.979 420.266 560.958 385.884ZM396.359 316.186L396.558 316.732C398.207 321.292 399.643 326.002 398.264 327.097C396.83 328.236 394.066 325.878 392.258 327.863C391.052 329.186 395.908 332.364 406.825 337.397L425.351 361.041L438.236 350.805L411.002 329.412C406.975 322.631 402.813 317.198 398.516 313.113C397.143 312.253 394.63 311.461 396.359 316.186Z" fill="#D4A181"/>
<path fill-rule="evenodd" clip-rule="evenodd" d="M512.788 303.85L505.801 300.729C486.06 312.37 470.336 348.366 458.519 350.665C447.347 352.838 434.267 344.683 418.899 334.253L410.852 344.676C422.05 365.416 451.224 387.932 466.461 383.157C490.823 375.522 507.103 330.337 512.788 303.85Z" fill="#637296"/>
<path fill-rule="evenodd" clip-rule="evenodd" d="M521.735 405.095C492.471 397.682 470.945 392.229 457.156 388.736C454.206 387.989 455.824 383.801 456.787 381.724C467.897 357.76 493.784 335.451 502.591 299.563L521.947 301.314C531.176 330.392 528.898 362.738 521.735 405.095Z" fill="#C7D1D9"/>
<path fill-rule="evenodd" clip-rule="evenodd" d="M515.774 299.75C484.839 353.429 470.759 390.849 473.534 412.012L531.665 426.737C534.204 412.409 534.913 396.755 534.441 381.198C541.684 408.661 548.487 428.834 554.85 441.719L569.047 442.454C573.81 385.305 558.511 338.36 523.149 301.618L515.774 299.75Z" fill="#9AA8CF"/>
<mask id="mask0" mask-type="alpha" maskUnits="userSpaceOnUse" x="158" y="-57" width="440" height="715">
<path d="M350.11 486.913L193.911 492.455C182.244 492.869 172.456 483.595 172.048 471.742L158.547 78.9506C158.14 67.0971 167.268 57.1524 178.935 56.7385L216.02 -56.9733H597.55V658H429.946C378.216 543.889 351.604 486.86 350.11 486.913Z" fill="white"/>
</mask>
<g mask="url(#mask0)">
<path fill-rule="evenodd" clip-rule="evenodd" d="M408.026 110.588C403.079 128.403 374.062 157.433 364.054 151.665C360.062 149.364 355.199 140.636 352.297 129.597L326.965 165.092L301.278 139.89L349.871 106.744C350.523 96.0321 354.027 85.5595 362.251 78.0412C385.947 56.3779 412.973 92.7733 408.026 110.588Z" fill="#D4A181"/>
<mask id="mask1" mask-type="alpha" maskUnits="userSpaceOnUse" x="316" y="53" width="97" height="62">
<path fill-rule="evenodd" clip-rule="evenodd" d="M410.672 104.394C411.794 102.756 412.901 102.498 411.08 92.9943C409.259 83.491 404.667 69.8849 393.585 62.9736C379.204 54.0043 366.957 57.3182 358.72 56.6904C351.295 56.1246 346.776 52.4739 340.225 54.3841C333.675 56.2944 320.574 67.4267 318.015 74.4512C314.484 84.1412 318.537 91.6603 320.903 97.772C324.962 108.254 338.594 114.764 339.402 114.419C345.649 111.753 368.197 109.063 379.547 109.773C387.892 110.295 405.406 112.083 410.672 104.394Z" fill="white"/>
</mask>
<g mask="url(#mask1)">
<path fill-rule="evenodd" clip-rule="evenodd" d="M410.672 104.394C411.794 102.756 412.901 102.498 411.08 92.9943C409.259 83.491 404.667 69.8849 393.585 62.9736C379.204 54.0043 366.957 57.3182 358.72 56.6904C351.295 56.1246 346.776 52.4739 340.225 54.3841C333.675 56.2944 320.574 67.4267 318.015 74.4512C314.484 84.1412 318.537 91.6603 320.903 97.772C324.962 108.254 338.594 114.764 339.402 114.419C345.649 111.753 368.197 109.063 379.547 109.773C387.892 110.295 405.406 112.083 410.672 104.394Z" fill="#5C63AB"/>
<path fill-rule="evenodd" clip-rule="evenodd" d="M351.962 53.9203C342.503 70.298 338.784 90.8951 340.807 115.712C334.399 91.2758 336.285 69.7059 346.466 51.0017L351.962 53.9203ZM361.216 53.8869C351.397 68.1351 345.712 84.3997 344.161 102.681C341.757 85.7954 345.457 69.1122 355.259 52.6311L361.216 53.8869Z" fill="black" fill-opacity="0.2"/>
</g>
<path fill-rule="evenodd" clip-rule="evenodd" d="M200.111 238.558L213.484 438.163L222.949 585.197L251.02 591.259L278.521 255.491L200.111 238.558Z" fill="#637296"/>
<path fill-rule="evenodd" clip-rule="evenodd" d="M186.004 235.512C164.489 332.255 149.259 384.267 146.134 392.804C143.009 401.341 111.908 453.226 52.8319 548.46L81.9116 554.74C150.338 465.917 188.69 415.598 196.966 403.782C205.243 391.965 233.451 342.756 278.68 255.525L186.004 235.512Z" fill="#9AA8CF"/>
<path fill-rule="evenodd" clip-rule="evenodd" d="M213.439 610.975L221.394 580.223L251.949 586.821C264.27 600.305 281.431 612.773 303.431 624.224L302.193 630.142L246.904 618.202L228.608 611.158L227.989 614.117L213.439 610.975Z" fill="#191847"/>
<path fill-rule="evenodd" clip-rule="evenodd" d="M176.065 167.596L195.461 186.133C137.129 220.658 106.112 238.798 102.409 240.552C94.0775 244.497 90.5537 259.185 88.0752 266.524C77.5588 262.864 89.8064 251.137 76.3854 246.688C64.1353 242.627 50.9236 243.778 46.7238 228.247C46.2075 226.338 47.504 222.217 52.7711 223.026C65.8933 225.04 86.384 226.221 90.8895 224.489C97.0334 222.127 125.425 203.163 176.065 167.596ZM348.3 298.795L369.148 354.715C378.055 364.793 384.724 374.422 389.156 383.6C389.855 386.311 389.876 390.879 383.134 385.643C376.391 380.408 369.068 375.208 366.52 377.018C363.971 378.828 366.388 384.598 362.291 386.605C359.559 387.944 356.866 378.292 354.211 357.65L325.394 315.059L348.3 298.795Z" fill="#D4A181"/>
<path fill-rule="evenodd" clip-rule="evenodd" d="M343.635 146.15C337.299 197.442 338.55 251.487 355.513 308.139C360.874 311.145 365.893 315.681 370.56 321.662C372.857 324.606 372.371 328.88 369.474 331.208C367.793 332.561 365.668 332.959 363.732 332.48C364.333 334.079 364.948 335.681 365.577 337.285L342.24 351.459C313.648 302.202 284.233 259.88 288.693 212.648C290.19 196.795 317.963 157.917 326.739 142.897L343.635 146.15Z" fill="#637296"/>
<path fill-rule="evenodd" clip-rule="evenodd" d="M192.874 248.05C229.309 278.307 260.188 298.68 285.511 309.171C288.648 310.47 296.328 298.182 297.165 293.995C310.194 228.779 321.229 182.025 344.279 145.965C339.327 145.485 332.667 141.508 324.298 134.035C275.695 154.801 237.018 189.903 192.874 248.05Z" fill="#191847"/>
<path fill-rule="evenodd" clip-rule="evenodd" d="M330.418 133.754C290.404 187.062 269.88 347.54 183.022 438.853C140.618 422.807 104.429 361.805 39.6206 348.706C68.4446 307.872 138.424 283.731 181.663 249.377C181.142 247.228 181.666 244.863 183.263 243.124L186.304 239.812C188.364 237.569 191.571 237.061 194.15 238.351C195.786 236.731 197.354 235.082 198.85 233.405C211.481 219.246 217.093 200.893 227.033 185.793C195.864 189.923 158.692 208.04 115.516 240.143L96.4456 217.556C99.5123 214.759 102.585 212.025 105.663 209.354C103.941 205.998 105.356 196.709 108.413 197.016C111.569 197.333 114.631 198.11 117.595 199.334C181.417 147.554 247.628 122.572 316.226 124.391L330.418 133.754Z" fill="#9AA8CF"/>
<path fill-rule="evenodd" clip-rule="evenodd" d="M320.57 129.058L301.292 144.897L304.632 168.51L285.351 172.613L282.22 240.56L278.97 168.543L298.105 164.204L295.103 143.303L320.57 129.058Z" fill="black" fill-opacity="0.1"/>
<path fill-rule="evenodd" clip-rule="evenodd" d="M238.502 307.118C241.259 308.937 242.044 312.679 240.256 315.476C238.468 318.273 234.784 319.066 232.028 317.247C229.271 315.428 228.485 311.686 230.273 308.889C232.061 306.092 235.745 305.299 238.502 307.118ZM255.868 277.174C258.624 278.993 259.41 282.735 257.622 285.532C255.834 288.329 252.15 289.122 249.393 287.303C246.637 285.485 245.851 281.743 247.639 278.946C249.427 276.149 253.111 275.356 255.868 277.174ZM268.242 243.937C270.999 245.756 271.784 249.498 269.996 252.295C268.208 255.092 264.524 255.885 261.768 254.066C259.011 252.247 258.225 248.505 260.013 245.708C261.801 242.911 265.485 242.119 268.242 243.937Z" fill="black" fill-opacity="0.4"/>
</g>
<path fill-rule="evenodd" clip-rule="evenodd" d="M515.999 52.0797C513.847 52.4075 511.946 54.1506 511.359 56.3338C510.206 60.6262 514.715 64.3085 519.197 62.7341L520.022 62.4444L520.455 62.9042C521.592 64.1126 521.568 63.924 521.54 71.2718L521.519 76.8678H515.999H510.479V74.341V71.8142L510.743 71.5826C510.888 71.4551 511.232 71.173 511.508 70.9557C513.789 69.1576 512.319 65.4924 509.317 65.4924C506.139 65.4924 504.747 69.3186 507.262 71.1407C508.172 71.7996 508.169 71.7896 508.135 74.4478L508.105 76.7622L502.972 76.7885C496.101 76.8243 496.162 76.8486 494.528 73.3883C494.189 72.6721 493.866 72.0063 493.809 71.9087C493.727 71.7687 493.796 71.6628 494.139 71.4044C495.75 70.1897 496.536 67.5676 495.876 65.6063C494.134 60.4284 486.674 60.3422 484.738 65.4777C483.409 69.0025 486.654 73.0549 490.548 72.7343C491.556 72.6515 491.822 72.8027 492.201 73.6744C494.081 77.9914 495.344 78.8643 499.714 78.8643C500.82 78.8643 502.031 78.8946 502.404 78.9318L503.082 78.9994V81.1913V83.383H499.605H496.127V85.5897V87.7966H491.207C485.696 87.7966 486.018 87.8438 485.523 86.9608C483.173 82.7639 476.421 84.7083 477.04 89.4033C477.609 93.7153 483.427 94.6336 485.571 90.7498C486.128 89.7404 485.809 89.793 491.332 89.793H496.127V93.839V97.8846L493.892 97.8843C491.369 97.8838 491.202 97.842 490.712 97.0869C488.951 94.3751 484.334 95.9185 484.679 99.1037C485.013 102.179 488.87 103.021 490.828 100.445C491.149 100.023 491.388 99.9865 493.802 99.9865H496.127V102.193V104.4H499.605H503.082V106.539V108.677L499.311 108.734C494.934 108.8 495.063 108.821 494.632 107.963C492.633 103.981 486.325 105.745 486.66 110.192C486.948 114.022 492.726 115.24 494.528 111.851C495.073 110.825 494.588 110.876 502.911 110.967L509.982 111.045V114.264V117.483L511.106 117.513L512.231 117.543L512.266 118.613C512.331 120.628 512.147 120.875 509.554 122.244C508.575 122.761 507.352 123.411 506.836 123.688C506.32 123.965 505.428 124.44 504.854 124.742L503.811 125.292L503.254 124.842C497.538 120.23 489.825 127.783 495.197 132.731C499.14 136.362 505.348 133.596 505.033 128.349C504.985 127.549 505.004 127.186 505.101 127.063C505.223 126.907 508.268 125.249 510.589 124.074C513.709 122.494 514.368 121.63 514.435 119.033L514.474 117.536H515.676H516.879L516.908 120.82L516.937 124.103L520.337 124.125L523.736 124.147L523.759 127.383L523.782 130.619L524.97 130.648L526.159 130.678L526.129 133.849L526.1 137.02L525.438 137.238C518.683 139.467 521.195 149.038 528.238 147.908C533.858 147.005 534.753 139.836 529.543 137.456C528.171 136.829 528.243 137.05 528.279 133.576L528.308 130.724L529.495 130.694L530.682 130.664V127.384V124.103L534.102 124.133L537.523 124.162L537.552 120.875L537.581 117.588L539.921 117.56L542.261 117.532L542.295 122.183L542.329 126.836L542.641 127.442C543.072 128.278 543.267 128.478 545.354 130.224C548.708 133.031 548.637 132.946 548.45 133.966C547.745 137.818 552.802 140.354 555.652 137.577C559.067 134.249 554.924 129.074 550.546 131.2L550.102 131.416L549.475 130.912C548.571 130.186 548.383 130.03 546.594 128.517C545.466 127.563 544.903 127.009 544.73 126.682L544.481 126.213V118.59V110.968L550.857 111.02C558.64 111.085 557.486 110.732 559.593 113.692C560.855 115.465 560.853 115.46 560.315 116.073C556.566 120.345 561.894 126.681 567.289 124.367C573.684 121.625 570.191 112.229 563.446 114.03C562.57 114.264 562.572 114.265 561.212 112.334C558.876 109.017 558.459 108.82 553.782 108.816L551.326 108.813V106.622V104.431L557.481 104.354C564.558 104.266 564.072 104.218 564.785 105.082C566.472 107.126 569.359 106.789 570.517 104.412C572.198 100.965 566.404 98.3577 564.588 101.745C564.284 102.314 564.382 102.298 561.142 102.298H558.281V96.5187V90.7389H563.792C570.091 90.7389 569.554 90.6708 569.981 91.5233C571.753 95.0566 577.222 94.1416 577.936 90.1926C578.725 85.8196 572.014 83.8561 569.976 87.8636C569.532 88.7355 570.114 88.6643 563.552 88.6493L558.281 88.6373V86.0101V83.383H554.803H551.326V82.227V81.0712L553.285 81.0675C558.275 81.058 558.622 80.9653 563.941 78.214L565.35 77.4849L565.925 77.964C571.643 82.7247 579.323 75.1448 573.957 70.037C570.103 66.3686 563.731 69.3624 564.18 74.631C564.27 75.6958 564.333 75.6256 562.365 76.6743C558.267 78.8592 557.27 79.1168 553.424 78.9863L551.381 78.917L551.35 77.8924L551.318 76.8678H548.396H545.475L545.455 75.1076C545.42 71.8709 545.467 71.785 548.014 70.4371C548.287 70.2928 549.268 69.7653 550.193 69.265C552.165 68.2001 551.862 68.27 552.528 68.7255C555.961 71.0731 560.606 68.1423 559.566 64.2839C558.266 59.4554 550.916 60.2317 550.822 65.2077C550.795 66.6249 550.938 66.4717 548.333 67.8831C543.318 70.6003 543.313 70.6057 543.191 74.6345L543.123 76.8678H539.662H536.202V70.7252C536.202 63.9677 536.172 64.2518 536.927 63.7974C539.029 62.5314 538.779 59.3144 536.506 58.3678C533.64 57.1743 530.744 59.8984 532.042 62.566C532.261 63.0159 532.401 63.1625 533.442 64.0356L533.938 64.4526L533.969 70.6602L533.999 76.8678H532.34H530.682V80.1254V83.383H527.204H523.727V73.8949C523.727 62.7424 523.762 63.0439 522.298 61.6878C521.738 61.1686 521.738 61.0553 522.311 59.7148C524.098 55.5286 520.66 51.3695 515.999 52.0797ZM518.509 55.1864C520.402 56.0419 520.416 59.061 518.53 59.9791C516.115 61.1546 513.625 59.3631 514.232 56.887C514.652 55.1764 516.691 54.3654 518.509 55.1864ZM535.816 60.3958C536.162 60.679 536.284 61.339 536.065 61.7356C535.589 62.5941 533.993 62.2247 533.993 61.256C533.993 60.2855 535.064 59.7804 535.816 60.3958ZM556.045 63.4735C556.933 63.8266 557.333 64.4849 557.266 65.4825C557.114 67.76 553.697 67.9438 553.208 65.7008C552.869 64.1476 554.507 62.8615 556.045 63.4735ZM491.222 64.6223C493.149 65.1695 493.853 67.4971 492.535 68.9624C490.749 70.9497 487.456 69.7688 487.474 67.1475C487.488 65.2721 489.274 64.0689 491.222 64.6223ZM510.267 67.7342C510.908 68.3435 510.895 69.0998 510.235 69.6358C508.829 70.7785 507.023 69.056 508.253 67.7448C508.842 67.1171 509.615 67.1128 510.267 67.7342ZM570.939 71.2779C574.208 72.5455 573.125 77.0061 569.613 76.7378C566.504 76.5005 566.02 72.2532 568.989 71.2693C569.64 71.0537 570.369 71.0568 570.939 71.2779ZM523.727 86.6263V89.8696L524.239 89.9366C524.901 90.023 528.97 90.0219 529.936 89.9348L530.682 89.8678V86.609V83.3503L540.866 83.417C546.467 83.4538 551.075 83.4901 551.105 83.4984C551.135 83.5064 551.195 83.5081 551.237 83.5024C551.28 83.4964 551.317 88.1755 551.321 93.9C551.326 100.879 551.291 104.287 551.217 104.243C551.155 104.207 551.105 104.228 551.105 104.291C551.105 104.37 550.118 104.398 547.849 104.384C546.057 104.374 544.564 104.391 544.53 104.423C544.497 104.455 544.47 105.891 544.471 107.614C544.472 109.336 544.429 110.796 544.376 110.857C544.31 110.932 543.262 110.951 541.096 110.914C539.024 110.879 537.842 110.898 537.71 110.969C537.519 111.069 537.507 111.271 537.516 114.197C537.525 117.175 537.516 117.324 537.313 117.427C537.179 117.495 535.918 117.531 533.933 117.524C531.373 117.514 530.746 117.54 530.667 117.655C530.613 117.734 530.582 119.152 530.598 120.806C530.619 123.029 530.592 123.845 530.495 123.931C530.269 124.131 523.983 124.081 523.901 123.878C523.763 123.534 523.831 118.501 523.975 118.451C524.085 118.412 524.085 118.375 523.975 118.263C523.899 118.187 523.837 117.992 523.837 117.83V117.536H520.361H516.885L516.856 114.259L516.827 110.983L513.404 110.975L509.982 110.968L509.962 107.71L509.942 104.453L506.512 104.425L503.082 104.397V93.89V83.383H513.404H523.727V86.6263ZM482.729 87.2267C484.381 88.4009 483.562 90.844 481.517 90.844C479.459 90.844 478.653 88.2264 480.396 87.205C480.971 86.8677 482.241 86.8797 482.729 87.2267ZM574.724 88.1482C575.991 88.946 575.976 90.4803 574.694 91.1658C572.978 92.0839 571.042 90.2252 572.143 88.7163C572.801 87.8158 573.835 87.5882 574.724 88.1482ZM488.42 97.3518C489.828 97.8895 489.88 99.6649 488.502 100.137C487.723 100.403 487.07 100.186 486.635 99.5166C485.916 98.4093 487.179 96.8778 488.42 97.3518ZM568.138 102.405C568.805 102.904 568.744 103.687 568.001 104.163C567.523 104.47 567.07 104.405 566.644 103.97C565.747 103.057 567.107 101.633 568.138 102.405ZM544.088 107.553C544.088 108.969 544.103 109.548 544.122 108.84C544.141 108.132 544.141 106.973 544.122 106.265C544.103 105.557 544.088 106.137 544.088 107.553ZM491.884 108.339C492.979 108.95 493.073 110.266 492.084 111.145C490.859 112.234 489.062 111.392 489.062 109.729C489.062 108.361 490.582 107.612 491.884 108.339ZM566.285 116.811C568.533 117.817 568.293 121.226 565.921 121.996C565.284 122.203 564.282 122.205 563.871 122.001C563.697 121.915 563.507 121.844 563.448 121.844C562.864 121.844 562.034 120.378 562.037 119.352C562.043 117.186 564.216 115.886 566.285 116.811ZM500.063 126.194C501.737 126.618 502.596 128.176 502.073 129.839C501.465 131.771 498.357 132.25 496.969 130.624C495.185 128.534 497.307 125.496 500.063 126.194ZM553.368 133.08C554.297 133.495 554.66 134.159 554.494 135.137C554.285 136.361 552.581 136.972 551.521 136.202C549.73 134.902 551.344 132.176 553.368 133.08ZM528.185 139.838C529.264 140.144 530.137 141.408 530.125 142.644C530.096 145.445 526.024 146.285 524.672 143.769C523.47 141.531 525.632 139.112 528.185 139.838Z" fill="#07060C"/>
<path fill-rule="evenodd" clip-rule="evenodd" d="M516.578 54.9206C514.982 55.0982 513.961 56.3787 514.157 57.9568C514.541 61.0403 519.211 61.1987 519.883 58.151C520.316 56.1837 518.774 54.6766 516.578 54.9206ZM509 67.3258C507.675 67.5953 507.437 69.3209 508.649 69.8684C509.243 70.137 510.258 69.9377 510.258 69.5522C510.258 69.4723 510.318 69.4186 510.391 69.4328C510.464 69.4475 510.579 69.3028 510.647 69.1118C510.998 68.1231 510.063 67.1096 509 67.3258ZM568.99 71.2693C566.02 72.2531 566.505 76.5004 569.614 76.7378C572.605 76.9663 574.074 73.7156 571.833 71.8236C571.004 71.1232 570.013 70.9299 568.99 71.2693ZM510.089 83.5144C510.061 83.5866 510.025 86.5538 510.01 90.1083L509.983 96.5711L506.533 96.5988L503.083 96.6267L503.084 100.277C503.085 102.284 503.115 104.033 503.152 104.162L503.218 104.397L506.58 104.425L509.943 104.453L509.963 107.71L509.983 110.968L513.405 110.975L516.827 110.983L516.856 114.259L516.885 117.536H520.361H523.837V117.83C523.837 117.992 523.899 118.187 523.975 118.263C524.086 118.375 524.086 118.412 523.975 118.451C523.831 118.501 523.763 123.534 523.902 123.878C523.983 124.081 530.269 124.131 530.495 123.931C530.592 123.845 530.619 123.029 530.598 120.806C530.582 119.152 530.614 117.734 530.667 117.655C530.746 117.54 531.373 117.514 533.933 117.523C535.918 117.531 537.18 117.495 537.313 117.427C537.516 117.324 537.525 117.175 537.516 114.197C537.507 111.271 537.519 111.069 537.71 110.968C537.842 110.898 539.025 110.879 541.096 110.914C543.262 110.951 544.311 110.932 544.377 110.857C544.43 110.796 544.472 109.336 544.471 107.614C544.47 105.891 544.497 104.455 544.531 104.423C544.565 104.391 546.058 104.374 547.849 104.384C550.118 104.398 551.105 104.37 551.105 104.291C551.105 104.228 551.156 104.207 551.217 104.243C551.291 104.287 551.326 100.879 551.321 93.9C551.318 88.1755 551.28 83.4963 551.238 83.5024C551.195 83.5081 551.136 83.5064 551.105 83.4984C551.075 83.4901 546.467 83.4537 540.866 83.417L530.682 83.3503V86.609V89.8678L529.937 89.9348C528.97 90.0218 524.902 90.023 524.239 89.9365L523.727 89.8695V86.6263V83.383H516.934C511.601 83.383 510.13 83.4113 510.089 83.5144ZM487.35 97.4004C486.869 97.5997 486.413 98.2746 486.413 98.7855C486.413 99.2454 486.858 99.9865 487.134 99.9865C487.223 99.9865 487.296 100.028 487.296 100.078C487.296 100.535 488.884 100.154 489.261 99.607C490.088 98.4052 488.724 96.8303 487.35 97.4004ZM544.122 108.84C544.103 109.548 544.088 108.969 544.088 107.553C544.088 106.137 544.103 105.557 544.122 106.265C544.142 106.973 544.142 108.132 544.122 108.84ZM563.691 116.727C562.375 117.121 561.563 119.29 562.251 120.574C562.482 121.005 563.273 121.844 563.448 121.844C563.507 121.844 563.697 121.915 563.871 122.001C565.003 122.563 566.941 121.833 567.562 120.612C568.768 118.239 566.441 115.903 563.691 116.727ZM498.377 126.24C495.898 127.056 495.579 130.197 497.862 131.307C498.661 131.696 500.185 131.683 500.833 131.282C503.755 129.475 501.654 125.162 498.377 126.24ZM551.908 133.034C551.568 133.175 550.891 133.748 550.879 133.906C550.876 133.947 550.846 134.249 550.814 134.577C550.633 136.415 553.029 137.302 554.178 135.821C554.441 135.483 554.447 135.449 554.43 134.537C554.408 133.328 553.092 132.544 551.908 133.034Z" fill="#CB1C21"/>
<path fill-rule="evenodd" clip-rule="evenodd" d="M484.342 67.1474C484.343 67.3784 484.366 67.4606 484.393 67.33C484.419 67.1991 484.418 67.0102 484.39 66.9097C484.363 66.8091 484.341 66.9159 484.342 67.1474ZM521.451 70.9303C521.451 71.6818 521.469 71.9753 521.49 71.5827C521.511 71.1901 521.511 70.5753 521.49 70.2165C521.468 69.8577 521.451 70.179 521.451 70.9303ZM508.085 73.6101C508.085 73.9855 508.105 74.1393 508.13 73.9514C508.154 73.7636 508.154 73.4563 508.13 73.2685C508.105 73.0806 508.085 73.2344 508.085 73.6101ZM530.62 80.1252C530.62 81.946 530.635 82.6908 530.654 81.7804C530.672 80.87 530.672 79.3805 530.654 78.4701C530.635 77.5598 530.62 78.3046 530.62 80.1252ZM499.025 78.9395C499.192 78.9635 499.465 78.9635 499.632 78.9395C499.799 78.9154 499.662 78.8957 499.329 78.8957C498.995 78.8957 498.858 78.9154 499.025 78.9395ZM503.018 81.0711C503.018 82.2558 503.034 82.7405 503.054 82.1481C503.074 81.5556 503.074 80.5863 503.054 79.9938C503.034 79.4013 503.018 79.8862 503.018 81.0711ZM488.813 87.7701C490.164 87.7867 492.375 87.7867 493.726 87.7701C495.077 87.7533 493.972 87.7398 491.27 87.7398C488.567 87.7398 487.462 87.7533 488.813 87.7701ZM493.45 97.8576C493.951 97.8771 494.771 97.8771 495.272 97.8576C495.772 97.8381 495.363 97.8224 494.361 97.8224C493.359 97.8224 492.949 97.8381 493.45 97.8576ZM559.191 102.271C559.723 102.291 560.592 102.291 561.123 102.271C561.655 102.252 561.22 102.236 560.157 102.236C559.095 102.236 558.66 102.252 559.191 102.271ZM499.657 104.478L502.967 104.508L503.001 106.582L503.034 108.656L503.03 106.554L503.027 104.452L499.687 104.45L496.348 104.448L499.657 104.478ZM553.126 104.478C554.087 104.496 555.627 104.496 556.549 104.478C557.471 104.461 556.685 104.446 554.803 104.447C552.921 104.447 552.166 104.461 553.126 104.478ZM510.451 117.613C510.77 117.634 511.291 117.634 511.61 117.613C511.929 117.592 511.668 117.574 511.031 117.574C510.393 117.574 510.132 117.592 510.451 117.613ZM514.869 117.612C515.068 117.635 515.365 117.635 515.531 117.61C515.697 117.586 515.535 117.568 515.171 117.568C514.806 117.569 514.67 117.588 514.869 117.612ZM516.622 117.606C516.692 117.654 516.774 117.811 516.805 117.956C516.854 118.182 516.859 118.176 516.844 117.911C516.834 117.738 516.754 117.586 516.661 117.562C516.55 117.533 516.537 117.548 516.622 117.606ZM538.774 117.614C539.43 117.633 540.473 117.633 541.092 117.614C541.711 117.595 541.175 117.58 539.899 117.58C538.624 117.58 538.118 117.595 538.774 117.614ZM516.82 121.266C516.82 122.826 516.835 123.48 516.854 122.717C516.873 121.955 516.873 120.678 516.854 119.88C516.835 119.082 516.82 119.705 516.82 121.266ZM524.916 130.747L526.051 130.783L526.02 133.927C526.003 135.656 526.027 137.035 526.074 136.991C526.12 136.946 526.145 135.518 526.129 133.817L526.1 130.724L524.941 130.718L523.781 130.712L524.916 130.747ZM528.947 130.749C529.298 130.77 529.844 130.77 530.161 130.748C530.478 130.727 530.19 130.71 529.522 130.71C528.854 130.711 528.595 130.728 528.947 130.749ZM533.03 142.44C533.03 142.7 533.051 142.807 533.078 142.677C533.104 142.547 533.104 142.334 533.078 142.204C533.051 142.074 533.03 142.181 533.03 142.44ZM530.047 142.598C530.048 142.83 530.071 142.911 530.097 142.781C530.124 142.65 530.122 142.461 530.095 142.36C530.067 142.26 530.046 142.367 530.047 142.598ZM527.012 145.247C527.149 145.272 527.348 145.271 527.454 145.245C527.559 145.219 527.447 145.198 527.204 145.199C526.961 145.201 526.875 145.222 527.012 145.247Z" fill="#9FA0A0"/>
<path fill-rule="evenodd" clip-rule="evenodd" d="M504.539 96.5972C505.309 96.6152 506.601 96.6152 507.409 96.5972C508.217 96.5791 507.587 96.5645 506.008 96.5642C504.429 96.5642 503.768 96.5791 504.539 96.5972ZM554.445 134.717C554.446 134.948 554.469 135.03 554.495 134.9C554.522 134.769 554.52 134.58 554.493 134.479C554.465 134.379 554.444 134.486 554.445 134.717Z" fill="#7C7C7C"/>
<path fill-rule="evenodd" clip-rule="evenodd" d="M520.856 53.3617C520.856 53.3797 521.018 53.5335 521.215 53.703L521.574 54.0117L521.25 53.6701C520.947 53.3519 520.856 53.2803 520.856 53.3617ZM536.117 61.2102C536.117 61.4123 536.14 61.4951 536.167 61.394C536.195 61.2929 536.195 61.1274 536.167 61.0262C536.14 60.9249 536.117 61.0076 536.117 61.2102ZM512.466 61.138C512.466 61.156 512.628 61.3095 512.825 61.4793L513.184 61.788L512.86 61.4464C512.558 61.1282 512.466 61.0566 512.466 61.138ZM516.689 63.1768C516.856 63.2008 517.129 63.2008 517.296 63.1768C517.463 63.1527 517.327 63.133 516.993 63.133C516.659 63.133 516.522 63.1527 516.689 63.1768ZM490.139 64.5419C490.275 64.5668 490.499 64.5668 490.635 64.5419C490.772 64.5167 490.66 64.4963 490.387 64.4963C490.114 64.4963 490.002 64.5167 490.139 64.5419ZM523.78 74.2932C523.779 79.3213 523.793 81.394 523.809 78.8984C523.826 76.4031 523.826 72.289 523.809 69.7561C523.793 67.2231 523.78 69.2647 523.78 74.2932ZM487.432 67.1998C487.432 67.4023 487.455 67.4851 487.482 67.3836C487.51 67.2826 487.51 67.1171 487.482 67.016C487.455 66.9149 487.432 66.9977 487.432 67.1998ZM485.971 71.0159C485.971 71.0339 486.132 71.1876 486.33 71.3575L486.689 71.6661L486.364 71.3245C486.062 71.0061 485.971 70.9348 485.971 71.0159ZM508.05 75.7333C508.02 76.3518 508.035 76.8206 508.082 76.7748C508.13 76.7289 508.155 76.2229 508.137 75.6499L508.104 74.6085L508.05 75.7333ZM499.571 76.8409C500.221 76.8595 501.314 76.8595 502 76.8412C502.687 76.8226 502.155 76.8074 500.819 76.8074C499.484 76.8074 498.922 76.8226 499.571 76.8409ZM513.211 76.8415C514.745 76.8578 517.253 76.8578 518.787 76.8415C520.32 76.8248 519.065 76.8114 515.999 76.8114C512.933 76.8114 511.678 76.8248 513.211 76.8415ZM531.482 76.8406C531.953 76.8604 532.723 76.8604 533.193 76.8406C533.664 76.8211 533.279 76.8049 532.338 76.8049C531.396 76.8049 531.012 76.8211 531.482 76.8406ZM537.947 76.8412C538.938 76.8586 540.528 76.8586 541.48 76.8412C542.432 76.8237 541.622 76.8094 539.679 76.8094C537.736 76.8097 536.957 76.8237 537.947 76.8412ZM548.369 76.8406L551.318 76.8713L551.356 77.8681L551.394 78.8648L551.388 77.84L551.381 76.8151L548.4 76.8126L545.42 76.81L548.369 76.8406ZM500.516 78.9419C500.835 78.9631 501.356 78.9631 501.675 78.9419C501.994 78.9206 501.733 78.9032 501.096 78.9032C500.458 78.9032 500.197 78.9206 500.516 78.9419ZM552.074 78.9413C552.334 78.9636 552.731 78.9633 552.957 78.9407C553.183 78.9181 552.971 78.9001 552.485 78.9004C552 78.9007 551.815 78.9193 552.074 78.9413ZM554.997 79.0447C555.164 79.0687 555.437 79.0687 555.604 79.0447C555.771 79.0206 555.634 79.0008 555.3 79.0008C554.966 79.0008 554.83 79.0206 554.997 79.0447ZM555.99 81.0412C556.157 81.0655 556.431 81.0655 556.597 81.0412C556.764 81.0171 556.628 80.9976 556.294 80.9976C555.96 80.9976 555.823 81.0171 555.99 81.0412ZM551.368 82.227C551.368 82.8916 551.386 83.1636 551.408 82.8312C551.429 82.499 551.429 81.9552 551.408 81.6228C551.386 81.2905 551.368 81.5624 551.368 82.227ZM481.253 84.6143C481.421 84.6384 481.669 84.6378 481.805 84.6129C481.941 84.588 481.803 84.5682 481.5 84.5691C481.196 84.5697 481.085 84.5903 481.253 84.6143ZM573.543 87.8691C573.65 87.8954 573.824 87.8954 573.93 87.8691C574.036 87.8425 573.949 87.821 573.737 87.821C573.524 87.821 573.437 87.8425 573.543 87.8691ZM488.814 89.8718C490.165 89.8887 492.375 89.8887 493.726 89.8718C495.077 89.8552 493.972 89.8414 491.27 89.8414C488.568 89.8414 487.463 89.8552 488.814 89.8718ZM487.765 95.6453C487.871 95.6717 488.045 95.6717 488.151 95.6453C488.257 95.6187 488.171 95.5972 487.958 95.5972C487.745 95.5972 487.659 95.6187 487.765 95.6453ZM487.765 102.055C487.871 102.082 488.045 102.082 488.151 102.055C488.257 102.029 488.171 102.007 487.958 102.007C487.745 102.007 487.659 102.029 487.765 102.055ZM559.627 104.373C560.398 104.392 561.689 104.392 562.497 104.373C563.305 104.355 562.675 104.341 561.096 104.341C559.517 104.341 558.856 104.355 559.627 104.373ZM551.373 106.607C551.373 107.849 551.389 108.358 551.408 107.736C551.428 107.115 551.428 106.099 551.408 105.477C551.389 104.856 551.373 105.364 551.373 106.607ZM567.418 106.471C567.555 106.496 567.754 106.495 567.859 106.469C567.965 106.442 567.853 106.422 567.61 106.423C567.367 106.424 567.28 106.446 567.418 106.471ZM495.938 108.786C496.228 108.807 496.675 108.807 496.931 108.785C497.187 108.763 496.95 108.745 496.403 108.746C495.857 108.746 495.647 108.764 495.938 108.786ZM492.731 109.759C492.731 109.961 492.753 110.044 492.781 109.943C492.809 109.842 492.809 109.676 492.781 109.575C492.753 109.474 492.731 109.557 492.731 109.759ZM497.977 110.994C498.903 111.011 500.418 111.011 501.344 110.994C502.27 110.976 501.512 110.962 499.66 110.962C497.808 110.962 497.051 110.976 497.977 110.994ZM487.517 112.419C487.517 112.437 487.678 112.591 487.875 112.761L488.234 113.07L487.91 112.728C487.608 112.409 487.517 112.338 487.517 112.419ZM564.656 113.827C564.793 113.852 565.017 113.852 565.153 113.827C565.29 113.802 565.178 113.781 564.905 113.781C564.632 113.781 564.52 113.802 564.656 113.827ZM537.576 120.898C537.576 122.719 537.591 123.464 537.609 122.553C537.627 121.643 537.627 120.153 537.609 119.243C537.591 118.333 537.576 119.078 537.576 120.898ZM498.917 123.391C499.084 123.415 499.333 123.414 499.469 123.389C499.604 123.364 499.467 123.345 499.164 123.345C498.86 123.346 498.749 123.366 498.917 123.391ZM495.072 125.023L494.748 125.364L495.106 125.056C495.441 124.768 495.516 124.681 495.43 124.681C495.412 124.681 495.25 124.835 495.072 125.023ZM505.095 128.885C505.095 129.087 505.118 129.17 505.146 129.069C505.174 128.967 505.174 128.802 505.146 128.701C505.118 128.6 505.095 128.683 505.095 128.885ZM528.301 133.193C528.301 134.551 528.316 135.107 528.335 134.428C528.355 133.749 528.355 132.638 528.335 131.958C528.316 131.279 528.301 131.835 528.301 133.193ZM499.08 134.423C499.217 134.448 499.441 134.448 499.578 134.423C499.714 134.398 499.602 134.378 499.329 134.378C499.056 134.378 498.944 134.398 499.08 134.423Z" fill="#747C7C"/>
<path fill-rule="evenodd" clip-rule="evenodd" d="M509.979 90.0034C509.979 93.6158 509.993 95.0934 510.01 93.2874C510.027 91.4813 510.027 88.5258 510.01 86.7195C509.993 84.9135 509.979 86.3913 509.979 90.0034Z" fill="#BC9CB4"/>
</g>
<defs>
<clipPath id="clip0">
<rect width="1100" height="600" fill="white"/>
</clipPath>
</defs>
</svg>
