<svg width="45" height="45" viewBox="0 0 45 45" fill="none" xmlns="http://www.w3.org/2000/svg">
<path d="M22.5045 0C12.2684 0 3.96991 3.02498 3.96991 6.7583V12.3039C3.96991 16.0377 12.2684 19.0617 22.5045 19.0617C32.7401 19.0617 41.0386 16.0372 41.0386 12.3039V6.7583C41.0386 3.02498 32.7401 0 22.5045 0Z" fill="#263455"/>
<path d="M22.5045 22.2934C12.7316 22.2934 4.67445 19.5339 3.9699 16.0348C3.93631 16.2018 3.9699 25.193 3.9699 25.193C3.9699 28.9273 12.2684 31.9513 22.5045 31.9513C32.7401 31.9513 41.0386 28.9263 41.0386 25.193C41.0386 25.193 41.0594 16.2013 41.0263 16.0348C40.3208 19.5344 32.2769 22.2934 22.5045 22.2934Z" fill="#263455"/>
<path d="M41.0211 29.083C40.317 32.5802 32.2774 35.3412 22.5045 35.3412C12.7316 35.3412 4.67255 32.5797 3.968 29.083L3.9699 38.2417C3.9699 41.9755 12.2684 44.9995 22.5045 44.9995C32.7401 44.9995 41.0386 41.9746 41.0386 38.2417L41.0211 29.083Z" fill="#263455"/>
</svg>
