<?xml version="1.0" standalone="no"?>
<!DOCTYPE svg PUBLIC "-//W3C//DTD SVG 20010904//EN"
 "http://www.w3.org/TR/2001/REC-SVG-20010904/DTD/svg10.dtd">
<svg version="1.0" xmlns="http://www.w3.org/2000/svg"
 width="200.000000pt" height="200.000000pt" viewBox="0 0 200.000000 200.000000"
 preserveAspectRatio="xMidYMid meet">

<g transform="translate(0.000000,200.000000) scale(0.100000,-0.100000)"
fill="#000000" stroke="none">
<path d="M0 1000 l0 -1000 1000 0 1000 0 0 1000 0 1000 -1000 0 -1000 0 0
-1000z m1346 149 c186 -121 343 -224 349 -230 5 -5 -4 -9 -25 -9 -27 0 -97 41
-349 206 -175 114 -322 203 -330 201 -9 -2 -155 -95 -325 -206 -252 -163 -316
-201 -345 -201 -19 0 -31 3 -27 7 15 16 692 452 702 452 5 1 163 -98 350 -220z
m-456 -304 c0 -8 -4 -15 -9 -15 -13 0 -22 16 -14 24 11 11 23 6 23 -9z m150
-63 l0 -79 -52 1 c-48 1 -53 3 -62 28 -7 19 -6 35 2 54 11 22 18 26 47 22 33
-4 35 -2 35 24 0 18 5 28 15 28 12 0 15 -15 15 -78z m-512 56 c16 -16 15 -38
-3 -58 -17 -18 -9 -60 11 -60 8 0 14 -4 14 -10 0 -23 -40 -8 -55 20 -9 18 -23
30 -35 30 -16 0 -20 -7 -20 -30 0 -20 -5 -30 -15 -30 -12 0 -15 15 -15 75 l0
75 53 0 c29 0 58 -5 65 -12z m660 0 c16 -16 15 -38 -3 -58 -17 -18 -9 -60 11
-60 8 0 14 -4 14 -10 0 -23 -40 -8 -55 20 -9 18 -23 30 -35 30 -16 0 -20 -7
-20 -30 0 -20 -5 -30 -15 -30 -12 0 -15 15 -15 75 l0 75 53 0 c29 0 58 -5 65
-12z m362 -14 c0 -8 9 -14 20 -14 11 0 20 -4 20 -10 0 -5 -9 -10 -20 -10 -16
0 -20 -7 -20 -36 0 -34 2 -36 26 -30 19 5 25 3 22 -6 -6 -18 -59 -23 -69 -6
-5 7 -9 27 -9 45 0 17 -6 34 -12 36 -9 4 -10 8 -2 14 6 4 13 16 17 26 8 20 27
14 27 -9z m-882 -32 c6 -9 12 -28 12 -42 0 -14 5 -31 11 -37 8 -8 -6 -11 -52
-10 -58 2 -64 4 -67 24 -3 18 4 24 37 34 23 7 41 16 41 21 0 12 -48 10 -55 -2
-4 -6 -11 -8 -16 -4 -22 13 32 46 61 36 8 -3 21 -12 28 -20z m166 -14 c7 -19
6 -35 -2 -54 -11 -22 -18 -26 -47 -22 -30 3 -34 1 -37 -21 -2 -13 -9 -26 -15
-29 -10 -3 -13 17 -13 76 l0 79 52 -1 c48 -1 53 -3 62 -28z m56 -23 c0 -30 -4
-55 -10 -55 -5 0 -10 25 -10 55 0 30 5 55 10 55 6 0 10 -25 10 -55z m438 43
c7 -7 12 -20 12 -30 0 -14 -8 -18 -41 -18 -28 0 -39 -4 -36 -12 2 -8 20 -13
41 -12 46 2 43 -20 -3 -24 -58 -6 -94 54 -55 92 18 19 65 21 82 4z m144 -1 c4
-7 8 -31 8 -54 0 -32 -4 -43 -15 -43 -11 0 -15 12 -15 46 0 41 -2 45 -22 42
-19 -2 -24 -10 -26 -45 -2 -29 -8 -43 -18 -43 -10 0 -14 14 -14 54 l0 53 47 1
c27 1 51 -4 55 -11z"/>
<path d="M951 772 c-13 -25 8 -56 35 -50 29 5 27 62 -3 66 -13 2 -26 -4 -32
-16z"/>
<path d="M440 804 c0 -23 3 -25 33 -22 24 2 33 8 35 26 3 19 -1 22 -32 22 -32
0 -36 -3 -36 -26z"/>
<path d="M1100 804 c0 -23 3 -25 33 -22 24 2 33 8 35 26 3 19 -1 22 -32 22
-32 0 -36 -3 -36 -26z"/>
<path d="M600 740 c-12 -8 -12 -10 3 -16 20 -7 47 1 47 16 0 12 -30 13 -50 0z"/>
<path d="M751 772 c-13 -25 8 -56 35 -50 29 5 27 62 -3 66 -13 2 -26 -4 -32
-16z"/>
<path d="M1271 786 c-9 -10 -8 -15 4 -20 8 -3 22 -3 30 0 12 5 13 10 4 20 -6
8 -15 14 -19 14 -4 0 -13 -6 -19 -14z"/>
</g>
</svg>
