<svg id="svg" version="1.1" xmlns="http://www.w3.org/2000/svg" xmlns:xlink="http://www.w3.org/1999/xlink" width="400" height="550.2439024390244" viewBox="0, 0, 400,550.2439024390244"><g id="svgg"><path id="path0" d="M167.805 70.281 C 161.424 71.303,155.878 76.645,154.138 83.446 C 150.783 96.564,163.519 107.822,176.700 103.390 L 179.675 102.390 180.941 103.797 C 184.271 107.494,184.192 106.856,184.120 129.512 L 184.065 146.992 167.805 146.992 L 151.545 146.992 151.545 139.172 L 151.545 131.353 152.323 130.636 C 152.750 130.241,153.765 129.368,154.577 128.696 C 161.302 123.126,156.974 111.789,148.123 111.789 C 138.570 111.789,134.589 123.752,142.257 129.417 C 144.694 131.217,144.742 131.424,144.641 139.594 L 144.553 146.665 129.431 146.747 L 114.309 146.829 112.448 146.078 C 109.086 144.719,107.338 142.483,104.269 135.610 C 103.430 133.732,102.611 131.956,102.450 131.664 C 102.223 131.254,102.442 130.902,103.404 130.129 C 116.467 119.631,106.270 97.661,89.482 100.134 C 68.693 103.197,70.999 133.618,92.060 134.143 C 96.308 134.248,96.576 134.390,97.717 137.135 C 103.270 150.496,106.923 153.168,119.638 153.173 C 122.788 153.174,126.354 153.269,127.561 153.383 L 129.756 153.590 129.756 160.372 L 129.756 167.154 119.512 167.154 L 109.268 167.154 109.268 173.984 L 109.268 180.813 94.775 180.813 C 78.541 180.813,79.487 180.959,78.030 178.226 C 71.095 165.214,50.981 171.379,53.036 185.888 C 54.924 199.221,71.865 201.953,78.176 189.943 C 79.812 186.830,78.879 186.992,95.143 186.992 L 109.268 186.992 109.268 199.512 L 109.268 212.033 102.683 212.031 C 95.243 212.030,94.760 211.902,93.304 209.546 C 87.150 199.587,71.601 208.199,76.350 218.935 C 79.647 226.388,87.847 226.755,93.949 219.723 C 94.863 218.669,95.833 218.537,102.623 218.537 L 109.268 218.537 109.268 225.366 L 109.268 232.195 119.512 232.195 L 129.756 232.195 129.756 238.813 L 129.756 245.431 118.646 245.607 C 105.754 245.811,106.132 245.876,104.864 243.222 C 99.216 231.406,81.463 235.751,81.463 248.949 C 81.463 261.646,98.911 266.410,104.556 255.254 C 106.166 252.073,104.735 252.232,129.289 252.519 L 149.919 252.761 149.919 262.803 L 149.919 272.846 153.312 272.846 L 156.705 272.846 156.808 276.169 C 156.999 282.352,156.384 283.250,149.287 287.156 C 146.683 288.588,141.708 291.357,138.231 293.308 L 131.910 296.856 130.264 295.460 C 113.573 281.309,90.830 304.283,106.296 319.672 C 117.884 331.203,136.439 322.713,135.502 306.308 C 135.361 303.835,135.417 302.711,135.701 302.331 C 136.062 301.849,145.033 296.716,151.870 293.079 C 161.060 288.192,163.002 285.517,163.199 277.480 L 163.313 272.846 166.855 272.846 L 170.397 272.846 170.483 283.008 L 170.569 293.171 180.569 293.257 L 190.569 293.343 190.569 303.419 L 190.569 313.496 194.151 313.496 L 197.733 313.496 197.647 323.319 L 197.561 333.142 195.610 333.818 C 178.081 339.894,180.940 365.325,199.344 367.036 C 218.397 368.807,225.152 343.077,207.865 334.585 C 203.635 332.507,203.873 333.249,203.979 322.486 L 204.065 313.659 207.561 313.566 L 211.057 313.474 211.057 303.322 L 211.057 293.171 221.133 293.261 L 231.210 293.351 231.296 283.180 L 231.382 273.008 238.274 272.920 L 245.166 272.833 245.266 287.229 L 245.366 301.626 246.287 303.503 C 247.557 306.090,248.130 306.707,254.278 312.113 C 264.158 320.800,263.949 320.535,263.399 323.693 C 260.778 338.745,282.013 344.399,287.521 330.116 C 291.580 319.589,279.918 309.855,269.572 315.133 L 268.264 315.800 264.132 312.245 C 256.608 305.770,253.215 302.614,252.538 301.463 C 251.883 300.347,251.868 299.871,251.780 276.423 L 251.691 252.520 270.480 252.683 C 293.098 252.879,290.051 251.991,295.528 259.982 C 299.986 266.486,299.957 266.398,298.351 268.321 C 287.306 281.541,303.000 301.148,318.895 293.987 C 337.749 285.492,327.458 256.417,307.573 261.997 C 304.993 262.720,304.998 262.724,300.992 256.748 C 294.112 246.484,292.883 245.873,279.106 245.860 L 271.870 245.854 271.870 239.072 L 271.870 232.291 290.000 232.054 C 310.849 231.781,309.416 231.631,311.518 234.306 C 317.516 241.938,329.382 237.959,329.215 228.372 C 329.056 219.185,315.806 215.480,311.324 223.369 C 309.945 225.794,310.408 225.691,300.913 225.691 L 292.358 225.691 292.358 207.805 L 292.358 189.919 308.591 189.919 C 327.147 189.919,325.565 189.708,326.824 192.346 C 331.158 201.428,344.944 201.269,349.116 192.089 C 355.884 177.199,335.365 166.782,326.902 180.813 C 325.147 183.723,326.081 183.591,308.019 183.490 L 292.358 183.402 292.358 175.278 L 292.358 167.154 282.114 167.154 L 271.870 167.154 271.870 163.577 L 271.870 160.000 277.642 159.989 C 292.342 159.959,293.362 159.672,309.030 151.158 L 313.181 148.902 314.876 150.385 C 331.705 165.106,354.397 141.584,338.543 125.854 C 327.123 114.523,308.410 123.757,309.734 140.070 C 310.001 143.365,310.185 143.148,304.390 146.393 C 292.316 153.155,289.380 153.952,278.049 153.548 L 272.033 153.333 271.939 150.163 L 271.846 146.992 263.240 146.992 L 254.634 146.992 254.577 141.545 C 254.465 130.845,253.711 131.912,266.579 124.580 C 274.607 120.006,273.434 120.373,275.430 121.808 C 285.533 129.066,299.204 119.985,296.144 108.049 C 292.301 93.056,270.734 95.492,270.371 110.961 C 270.269 115.314,270.689 114.841,263.054 119.187 C 248.280 127.596,248.267 127.613,247.906 140.081 L 247.706 146.992 237.511 146.992 L 227.317 146.992 227.317 127.983 C 227.317 107.071,227.229 107.950,229.453 106.543 C 237.665 101.348,233.672 89.067,223.740 88.971 C 215.344 88.889,210.552 100.632,217.003 105.479 C 217.515 105.864,218.546 106.717,219.292 107.375 L 220.650 108.571 220.739 127.781 L 220.828 146.992 215.943 146.992 L 211.057 146.992 211.057 157.073 L 211.057 167.154 200.813 167.154 L 190.569 167.154 190.569 137.590 C 190.569 102.968,190.709 104.219,186.368 100.015 C 184.709 98.409,184.711 98.061,186.398 93.909 C 191.664 80.954,181.536 68.083,167.805 70.281 M174.109 79.420 C 180.523 81.315,181.300 91.638,175.261 94.727 C 168.147 98.365,160.812 92.821,162.602 85.158 C 163.739 80.287,168.689 77.819,174.109 79.420 M226.181 96.017 C 227.947 97.536,227.313 101.140,225.209 101.542 C 222.029 102.150,219.885 99.628,221.175 96.796 C 221.908 95.188,224.710 94.752,226.181 96.017 M285.631 105.512 C 291.375 107.560,290.472 116.341,284.425 117.248 C 279.509 117.985,275.797 113.253,277.821 108.831 C 279.289 105.626,282.328 104.334,285.631 105.512 M94.819 109.096 C 100.454 110.777,102.554 118.010,98.710 122.500 C 93.542 128.538,83.897 125.135,83.791 117.236 C 83.711 111.214,88.952 107.346,94.819 109.096 M150.895 118.738 C 152.018 119.896,152.195 120.276,152.195 121.534 C 152.195 125.857,146.597 127.407,144.404 123.691 C 141.895 119.438,147.456 115.195,150.895 118.738 M329.138 129.479 C 336.041 131.811,337.672 140.960,331.895 144.942 C 324.618 149.956,315.722 143.204,318.575 134.832 C 319.948 130.802,325.191 128.146,329.138 129.479 M190.569 177.201 C 190.569 186.062,190.630 187.271,191.084 187.445 C 191.763 187.706,208.733 187.700,210.041 187.439 L 211.057 187.236 211.057 177.142 L 211.057 167.048 240.991 167.256 C 274.097 167.485,272.401 167.364,271.540 169.443 C 271.237 170.175,271.231 170.516,271.517 170.860 C 271.947 171.380,271.866 230.239,271.433 231.382 C 271.193 232.015,270.930 232.030,261.447 231.942 C 253.713 231.870,251.705 231.937,251.696 232.267 C 251.690 232.496,251.682 236.960,251.678 242.187 C 251.674 247.956,251.548 251.767,251.357 251.885 C 251.184 251.992,246.838 252.077,241.700 252.073 C 233.969 252.068,232.230 252.150,231.617 252.551 L 230.876 253.035 230.895 262.371 C 230.905 267.506,230.909 271.890,230.904 272.114 C 230.896 272.429,228.884 272.520,221.951 272.520 C 215.016 272.520,213.007 272.429,213.003 272.114 C 213.000 271.828,212.927 271.815,212.759 272.070 C 212.628 272.269,212.227 272.524,211.869 272.635 C 210.636 273.019,210.564 273.688,210.732 283.171 C 210.859 290.391,210.807 292.358,210.488 292.358 C 210.264 292.358,210.081 292.483,210.081 292.637 C 210.081 293.220,192.662 293.103,192.075 292.516 C 191.681 292.122,191.539 292.097,191.522 292.416 C 191.509 292.652,191.373 292.553,191.220 292.195 C 190.844 291.321,190.816 276.310,191.189 275.919 C 191.351 275.749,191.385 275.024,191.265 274.309 L 191.046 273.008 180.726 272.922 L 170.407 272.836 170.407 262.760 C 170.407 254.935,170.316 252.674,170.000 252.645 C 169.776 252.624,165.381 252.638,160.233 252.676 C 153.179 252.728,150.753 252.646,150.387 252.342 C 149.975 251.999,149.905 250.459,149.929 242.148 L 149.956 232.358 139.856 232.272 L 129.756 232.186 129.756 199.670 L 129.756 167.154 160.163 167.154 L 190.569 167.154 190.569 177.201 M69.260 178.781 C 73.378 180.853,73.322 187.552,69.170 189.562 C 64.496 191.825,59.667 188.462,60.271 183.363 C 60.769 179.157,65.358 176.818,69.260 178.781 M339.289 181.161 C 343.149 182.233,344.844 186.968,342.375 189.780 C 339.685 192.843,335.829 192.728,333.224 189.505 C 330.186 185.747,334.489 179.828,339.289 181.161 M87.044 210.616 C 90.690 212.346,90.650 217.277,86.977 218.902 C 82.765 220.765,78.910 216.043,81.541 212.246 C 82.962 210.195,84.930 209.612,87.044 210.616 M321.396 226.021 C 323.042 227.316,323.208 229.661,321.745 230.934 C 319.411 232.963,316.595 231.993,316.197 229.020 C 315.825 226.249,319.206 224.299,321.396 226.021 M96.554 244.254 C 99.839 246.257,100.348 249.667,97.795 252.574 C 94.283 256.575,88.455 254.167,88.455 248.715 C 88.455 244.604,93.011 242.095,96.554 244.254 M315.867 270.606 C 324.122 274.749,320.890 287.184,311.568 287.147 C 304.057 287.118,300.449 277.311,305.975 271.947 C 308.173 269.815,312.989 269.161,315.867 270.606 M120.390 299.555 C 128.037 301.187,129.748 311.087,123.128 315.387 C 121.219 316.628,116.731 316.667,114.377 315.464 C 105.587 310.973,110.686 297.483,120.390 299.555 M277.886 320.942 C 283.740 323.652,281.539 332.250,275.147 331.636 C 269.438 331.088,268.327 323.097,273.639 320.784 C 275.017 320.184,276.357 320.234,277.886 320.942 M204.390 342.229 C 210.703 345.175,211.188 354.528,205.184 357.571 C 199.055 360.677,192.409 356.734,192.386 349.977 C 192.365 343.815,198.837 339.637,204.390 342.229 M168.130 402.927 L 168.130 419.512 177.398 419.512 L 186.667 419.512 186.667 416.423 L 186.667 413.333 180.488 413.333 L 174.309 413.333 174.309 406.992 L 174.309 400.650 180.488 400.650 L 186.667 400.650 186.667 397.561 L 186.667 394.472 180.488 394.472 L 174.309 394.472 174.309 390.407 L 174.309 386.341 171.220 386.341 L 168.130 386.341 168.130 402.927 M144.390 403.902 L 144.390 419.512 147.480 419.512 L 150.569 419.512 150.569 414.959 L 150.569 410.407 156.748 410.407 L 162.927 410.407 162.927 407.317 L 162.927 404.228 156.748 404.228 L 150.569 404.228 150.569 399.350 L 150.569 394.472 156.748 394.472 L 162.927 394.472 162.927 391.382 L 162.927 388.293 153.659 388.293 L 144.390 388.293 144.390 403.902 M81.626 401.951 L 81.626 409.431 91.057 409.431 L 100.488 409.431 100.488 411.707 L 100.488 413.984 91.057 413.984 L 81.626 413.984 81.626 416.748 L 81.626 419.512 94.146 419.512 L 106.667 419.512 106.667 412.033 L 106.667 404.553 97.236 404.553 L 87.805 404.553 87.805 402.439 L 87.805 400.325 97.236 400.325 L 106.667 400.325 106.667 397.398 L 106.667 394.472 94.146 394.472 L 81.626 394.472 81.626 401.951 M112.846 406.992 L 112.846 419.512 125.366 419.512 L 137.886 419.512 137.886 406.992 L 137.886 394.472 125.366 394.472 L 112.846 394.472 112.846 406.992 M193.171 406.992 L 193.171 419.512 208.780 419.512 L 224.390 419.512 224.390 406.992 L 224.390 394.472 221.301 394.472 L 218.211 394.472 218.211 403.902 L 218.211 413.333 214.959 413.333 L 211.707 413.333 211.707 403.902 L 211.707 394.472 208.780 394.472 L 205.854 394.472 205.854 403.902 L 205.854 413.333 202.602 413.333 L 199.350 413.333 199.350 403.902 L 199.350 394.472 196.260 394.472 L 193.171 394.472 193.171 406.992 M230.569 397.561 L 230.569 400.650 240.000 400.650 L 249.431 400.650 249.431 402.602 L 249.431 404.553 240.000 404.553 L 230.569 404.553 230.569 412.033 L 230.569 419.512 243.089 419.512 L 255.610 419.512 255.610 406.992 L 255.610 394.472 243.089 394.472 L 230.569 394.472 230.569 397.561 M262.114 406.992 L 262.114 419.512 265.203 419.512 L 268.293 419.512 268.293 410.081 L 268.293 400.650 271.870 400.650 L 275.447 400.650 275.447 403.740 L 275.447 406.829 278.537 406.829 L 281.626 406.829 281.626 400.650 L 281.626 394.472 271.870 394.472 L 262.114 394.472 262.114 406.992 M287.154 406.992 L 287.154 419.512 299.675 419.512 L 312.195 419.512 312.195 416.423 L 312.195 413.333 302.764 413.333 L 293.333 413.333 293.333 411.382 L 293.333 409.431 302.764 409.431 L 312.195 409.431 312.195 401.951 L 312.195 394.472 299.675 394.472 L 287.154 394.472 287.154 406.992 M306.016 402.114 L 306.016 404.228 299.675 404.228 L 293.333 404.228 293.333 402.114 L 293.333 400.000 299.675 400.000 L 306.016 400.000 306.016 402.114 M131.707 406.992 L 131.707 413.333 125.366 413.333 L 119.024 413.333 119.024 406.992 L 119.024 400.650 125.366 400.650 L 131.707 400.650 131.707 406.992 M249.431 411.870 L 249.431 413.984 243.089 413.984 L 236.748 413.984 236.748 411.870 L 236.748 409.756 243.089 409.756 L 249.431 409.756 249.431 411.870 M192.847 443.333 C 192.848 452.142,192.943 461.215,193.060 463.496 L 193.271 467.642 196.798 467.642 L 200.325 467.642 200.325 447.480 L 200.325 427.317 196.585 427.317 L 192.846 427.317 192.847 443.333 M83.577 449.153 L 83.577 468.387 85.772 468.179 C 86.980 468.065,88.736 467.971,89.675 467.970 L 91.382 467.967 91.382 462.276 L 91.382 456.585 98.862 456.585 L 106.341 456.585 106.341 452.846 L 106.341 449.106 98.699 449.106 L 91.057 449.106 91.057 443.252 L 91.057 437.398 98.699 437.398 L 106.341 437.398 106.341 433.659 L 106.341 429.919 94.959 429.919 L 83.577 429.919 83.577 449.153 M248.537 436.657 L 246.179 436.776 246.178 438.957 C 246.177 441.339,245.442 439.446,254.406 460.163 L 257.431 467.154 261.338 467.245 L 265.245 467.336 270.834 454.232 C 276.346 441.307,276.423 441.095,276.423 438.775 L 276.423 436.423 273.059 436.423 L 269.696 436.423 267.658 441.545 C 266.537 444.362,264.734 448.898,263.650 451.626 C 262.566 454.354,261.579 456.585,261.456 456.585 C 261.332 456.585,259.343 452.085,257.036 446.585 C 252.259 435.200,253.300 436.416,248.537 436.657 M288.537 436.666 L 281.951 436.761 281.951 451.877 L 281.951 466.992 297.398 466.992 L 312.846 466.992 312.846 463.415 L 312.846 459.837 301.301 459.837 L 289.756 459.837 289.756 457.450 L 289.756 455.062 295.662 454.848 C 298.910 454.730,304.121 454.634,307.241 454.634 C 312.281 454.634,312.893 454.577,312.718 454.120 C 312.609 453.837,312.520 449.739,312.520 445.014 L 312.520 436.423 303.821 436.497 C 299.037 436.538,292.159 436.614,288.537 436.666 M218.736 436.992 L 207.715 437.082 207.954 452.281 C 208.086 460.640,208.221 467.510,208.256 467.547 C 208.290 467.583,215.154 467.523,223.509 467.413 L 238.699 467.212 238.699 451.980 L 238.699 436.748 234.228 436.825 C 231.768 436.867,224.797 436.942,218.736 436.992 M157.753 437.317 L 151.116 437.412 151.330 444.775 C 151.448 448.824,151.544 455.663,151.544 459.971 L 151.543 467.805 155.365 467.706 L 159.187 467.607 159.090 456.243 L 158.993 444.878 162.017 444.874 C 163.680 444.873,165.570 444.783,166.216 444.676 L 167.392 444.482 167.629 448.461 L 167.867 452.441 169.543 452.240 C 170.465 452.129,172.134 452.037,173.252 452.035 L 175.285 452.033 175.285 444.553 L 175.285 437.073 169.837 437.147 C 166.841 437.188,161.404 437.264,157.753 437.317 M112.520 445.801 C 112.520 450.423,112.617 457.301,112.735 461.086 L 112.949 467.967 128.182 467.967 L 143.415 467.967 143.415 452.683 L 143.415 437.398 127.967 437.398 L 112.520 437.398 112.520 445.801 M304.973 445.935 L 304.878 448.618 297.317 448.705 L 289.756 448.792 289.756 446.022 L 289.756 443.252 297.412 443.252 L 305.067 443.252 304.973 445.935 M230.894 452.195 L 230.894 459.837 223.252 459.837 L 215.610 459.837 215.610 452.195 L 215.610 444.553 223.252 444.553 L 230.894 444.553 230.894 452.195 M135.610 452.683 L 135.610 460.488 127.967 460.488 L 120.325 460.488 120.325 452.683 L 120.325 444.878 127.967 444.878 L 135.610 444.878 135.610 452.683 " stroke="none" fill="#0f0d12" fill-rule="evenodd"></path><path id="path1" d="M167.754 79.341 C 164.259 80.397,161.899 84.406,162.380 88.469 C 163.510 98.011,177.266 98.501,179.245 89.069 C 180.626 82.485,174.504 77.302,167.754 79.341 M145.828 118.012 C 145.277 118.348,144.582 119.137,144.283 119.767 C 142.069 124.432,148.499 128.180,151.496 123.970 C 154.042 120.395,149.591 115.717,145.828 118.012 M323.761 129.700 C 317.611 131.741,316.084 140.199,321.072 144.589 C 328.241 150.900,339.221 142.002,334.309 133.862 C 331.866 129.812,328.009 128.291,323.761 129.700 M150.396 167.561 C 150.312 167.785,150.207 176.967,150.162 187.967 L 150.081 207.967 139.919 208.053 L 129.756 208.139 129.756 220.163 L 129.756 232.186 139.856 232.272 L 149.956 232.358 149.929 242.148 C 149.905 250.459,149.975 251.999,150.387 252.342 C 150.753 252.646,153.179 252.728,160.233 252.676 C 165.381 252.638,169.776 252.624,170.000 252.645 C 170.316 252.674,170.407 254.935,170.407 262.760 L 170.407 272.836 180.726 272.922 L 191.046 273.008 191.265 274.309 C 191.385 275.024,191.351 275.749,191.189 275.919 C 190.816 276.310,190.844 291.321,191.220 292.195 C 191.373 292.553,191.509 292.652,191.522 292.416 C 191.539 292.097,191.681 292.122,192.075 292.516 C 192.662 293.103,210.081 293.220,210.081 292.637 C 210.081 292.483,210.264 292.358,210.488 292.358 C 210.807 292.358,210.859 290.391,210.732 283.171 C 210.564 273.688,210.636 273.019,211.869 272.635 C 212.227 272.524,212.628 272.269,212.759 272.070 C 212.927 271.815,213.000 271.828,213.003 272.114 C 213.007 272.429,215.016 272.520,221.951 272.520 C 228.884 272.520,230.896 272.429,230.904 272.114 C 230.909 271.890,230.905 267.506,230.895 262.371 L 230.876 253.035 231.617 252.551 C 232.230 252.150,233.969 252.068,241.700 252.073 C 246.838 252.077,251.184 251.992,251.357 251.885 C 251.548 251.767,251.674 247.956,251.678 242.187 C 251.682 236.960,251.690 232.496,251.696 232.267 C 251.705 231.937,253.713 231.870,261.447 231.942 C 270.930 232.030,271.193 232.015,271.433 231.382 C 271.866 230.239,271.947 171.380,271.517 170.860 C 271.231 170.516,271.237 170.175,271.540 169.443 C 272.401 167.364,274.097 167.485,240.991 167.256 L 211.057 167.048 211.057 177.142 L 211.057 187.236 210.041 187.439 C 208.733 187.700,191.763 187.706,191.084 187.445 C 190.630 187.271,190.569 186.062,190.569 177.201 L 190.569 167.154 170.559 167.154 C 154.849 167.154,150.516 167.242,150.396 167.561 M83.411 210.533 C 81.041 211.566,79.966 214.913,81.307 217.082 C 83.711 220.973,89.756 219.414,89.756 214.903 C 89.756 211.573,86.373 209.243,83.411 210.533 M308.361 270.328 C 304.394 271.599,302.007 278.243,304.067 282.281 C 308.319 290.614,320.486 287.711,320.443 278.374 C 320.413 272.015,314.788 268.269,308.361 270.328 M115.775 299.765 C 111.437 301.040,108.770 306.474,110.298 310.927 C 112.820 318.278,124.760 318.124,126.834 310.714 C 128.818 303.627,122.823 297.692,115.775 299.765 M273.639 320.784 C 268.327 323.097,269.438 331.088,275.147 331.636 C 281.539 332.250,283.740 323.652,277.886 320.942 C 276.357 320.234,275.017 320.184,273.639 320.784 " stroke="none" fill="#cb1c22" fill-rule="evenodd"></path><path id="path2" d="M0.000 275.122 L 0.000 550.244 200.000 550.244 L 400.000 550.244 400.000 275.122 L 400.000 0.000 200.000 0.000 L 0.000 0.000 0.000 275.122 M174.675 70.283 C 185.017 72.501,190.843 83.552,186.808 93.295 C 184.683 98.426,184.699 97.950,186.581 99.940 C 190.974 104.584,190.882 103.768,190.889 138.293 L 190.894 167.154 200.813 167.154 L 210.732 167.154 210.732 156.911 L 210.732 146.667 215.772 146.667 L 220.813 146.667 220.813 128.395 C 220.813 108.268,220.814 108.275,218.747 106.992 C 210.286 101.742,213.766 88.814,223.646 88.788 C 229.866 88.771,233.341 92.044,233.743 98.298 C 233.996 102.238,233.027 104.065,228.938 107.351 L 227.480 108.522 227.391 127.595 L 227.302 146.667 237.553 146.667 L 247.805 146.667 247.807 140.732 C 247.812 129.709,249.070 126.870,255.557 123.243 C 270.243 115.031,270.373 114.933,270.113 112.346 C 269.535 106.615,272.408 101.569,277.665 99.078 C 282.523 96.776,290.102 98.119,293.015 101.797 C 293.579 102.510,294.173 103.011,294.334 102.911 C 294.495 102.812,294.545 102.943,294.446 103.202 C 294.346 103.462,294.417 103.768,294.603 103.883 C 296.363 104.971,297.170 112.133,295.942 115.772 C 293.142 124.070,282.958 127.194,275.400 122.074 L 273.659 120.895 271.707 121.955 C 261.514 127.496,255.810 131.169,255.553 132.358 C 255.495 132.626,255.301 132.950,255.122 133.077 C 254.929 133.214,254.754 136.032,254.691 139.988 L 254.586 146.667 263.391 146.667 L 272.195 146.667 272.195 149.873 L 272.195 153.079 279.106 153.305 C 288.247 153.603,292.450 152.753,298.494 149.384 C 299.680 148.723,302.480 147.176,304.715 145.946 C 310.082 142.994,309.705 143.530,309.634 138.963 C 309.486 129.496,314.483 122.972,323.323 121.092 C 336.584 118.271,348.184 132.450,342.598 144.652 C 342.155 145.619,341.889 146.578,342.006 146.783 C 342.122 146.987,342.096 147.044,341.947 146.908 C 341.797 146.772,341.444 147.008,341.163 147.431 C 335.236 156.332,323.708 157.887,315.202 150.932 C 312.755 148.931,313.902 148.755,307.778 152.067 C 293.193 159.951,293.765 159.778,281.707 159.935 L 272.195 160.059 272.195 163.607 L 272.195 167.154 282.276 167.154 L 292.358 167.154 292.358 175.285 L 292.358 183.415 308.211 183.410 C 326.011 183.404,325.229 183.508,326.504 180.979 C 332.522 169.037,350.402 173.174,350.387 186.504 C 350.372 199.957,333.166 204.376,326.704 192.588 C 325.115 189.689,326.773 189.928,308.211 189.923 L 292.358 189.919 292.358 207.642 L 292.358 225.366 298.293 225.446 C 309.517 225.598,309.118 225.621,310.056 224.740 C 310.517 224.306,310.894 223.815,310.894 223.649 C 310.894 221.778,315.456 219.086,318.922 218.911 C 321.401 218.786,325.559 220.226,325.994 221.360 C 326.093 221.619,326.344 221.725,326.552 221.596 C 326.769 221.462,326.843 221.504,326.725 221.695 C 326.612 221.878,326.824 222.303,327.197 222.639 C 329.262 224.507,329.994 228.760,328.797 231.931 C 326.140 238.966,316.732 240.939,312.143 235.423 C 311.546 234.706,310.642 233.662,310.135 233.104 L 309.214 232.090 296.505 232.305 C 289.515 232.424,281.186 232.520,277.996 232.520 L 272.195 232.520 272.195 239.164 L 272.195 245.807 281.057 245.921 C 292.444 246.067,294.064 246.654,298.063 252.086 C 298.818 253.112,299.550 253.849,299.689 253.724 C 299.828 253.598,299.840 253.674,299.715 253.891 C 299.585 254.116,300.166 255.233,301.068 256.492 C 301.937 257.706,303.076 259.399,303.600 260.254 C 304.716 262.076,305.468 262.358,307.574 261.746 C 326.141 256.350,337.624 283.037,321.074 293.121 C 305.202 302.793,286.988 283.808,297.716 268.774 C 298.525 267.640,299.187 266.480,299.187 266.195 C 299.187 265.414,297.530 263.070,297.146 263.308 C 296.961 263.422,296.904 263.363,297.019 263.177 C 297.301 262.720,291.942 254.846,290.790 254.026 C 288.979 252.735,287.690 252.659,269.431 252.754 L 251.870 252.846 251.870 276.098 C 251.870 294.342,251.961 299.606,252.292 300.541 C 252.869 302.166,254.990 304.163,267.719 315.057 C 268.225 315.490,268.496 315.442,270.321 314.599 C 283.128 308.684,294.593 325.004,284.680 335.040 C 276.400 343.423,263.266 337.297,263.245 325.041 C 263.236 320.061,263.458 320.523,259.350 316.913 C 257.561 315.341,255.146 313.214,253.984 312.187 C 252.821 311.160,251.200 309.754,250.382 309.062 C 248.624 307.578,246.944 305.476,246.026 303.614 C 245.397 302.340,245.361 301.586,245.272 287.724 L 245.178 273.171 238.361 273.171 L 231.545 273.171 231.545 283.252 L 231.545 293.333 221.301 293.333 L 211.057 293.333 211.057 303.577 L 211.057 313.821 207.642 313.821 L 204.228 313.821 204.228 323.066 L 204.228 332.311 205.085 332.985 C 205.556 333.355,206.105 333.659,206.304 333.659 C 210.205 333.662,216.566 340.742,217.770 346.422 C 220.989 361.604,202.958 373.497,190.859 364.174 C 190.213 363.677,189.567 363.375,189.424 363.505 C 189.281 363.634,189.262 363.569,189.382 363.359 C 189.502 363.150,189.258 362.710,188.839 362.381 C 185.143 359.473,182.836 351.608,184.036 346.009 C 185.264 340.286,189.752 335.421,195.447 333.641 L 197.236 333.082 197.322 323.451 L 197.408 313.821 193.989 313.821 L 190.569 313.821 190.569 303.577 L 190.569 293.333 180.325 293.333 L 170.081 293.333 170.081 283.252 L 170.081 273.171 166.625 273.171 L 163.168 273.171 163.386 276.341 C 163.918 284.067,161.362 288.180,153.333 292.518 C 138.897 300.316,135.066 302.702,135.436 303.667 C 137.167 308.175,134.986 315.763,130.740 320.009 C 116.995 333.754,94.358 317.465,103.108 300.125 C 108.047 290.337,122.215 287.640,130.097 294.988 C 132.055 296.813,131.710 296.813,134.806 294.991 C 136.355 294.079,137.675 293.333,137.740 293.333 C 137.805 293.333,138.578 292.909,139.458 292.390 C 140.337 291.871,141.917 290.973,142.968 290.394 C 144.018 289.815,145.537 288.976,146.341 288.531 C 147.146 288.085,149.122 286.993,150.732 286.103 C 155.995 283.195,156.730 282.041,156.741 276.667 L 156.748 273.171 153.333 273.171 L 149.919 273.171 149.919 262.920 L 149.919 252.669 128.327 252.757 C 103.849 252.857,106.086 252.588,104.547 255.623 C 100.963 262.690,90.151 263.727,84.435 257.553 C 78.512 251.156,80.963 240.203,89.025 237.035 C 93.005 235.471,99.483 236.379,101.864 238.834 C 103.636 240.661,104.642 241.945,105.017 242.859 C 105.258 243.447,105.739 244.289,106.085 244.729 L 106.714 245.528 118.072 245.528 L 129.431 245.528 129.431 239.024 L 129.431 232.520 119.350 232.520 L 109.268 232.520 109.268 225.505 L 109.268 218.490 102.244 218.595 L 95.220 218.699 93.057 221.036 C 86.220 228.422,75.447 224.690,75.447 214.936 C 75.447 206.641,86.734 201.325,91.683 207.288 C 91.916 207.568,92.273 207.703,92.476 207.587 C 92.679 207.470,92.744 207.489,92.619 207.627 C 92.244 208.043,94.969 211.372,95.870 211.598 C 96.880 211.852,97.354 211.862,103.984 211.776 L 109.268 211.707 109.268 199.512 L 109.268 187.317 94.938 187.317 C 78.712 187.317,79.760 187.138,78.290 190.161 C 71.747 203.615,51.774 198.082,52.764 183.089 C 53.635 169.903,72.356 166.195,78.213 178.049 C 79.530 180.714,78.021 180.488,94.522 180.488 L 109.268 180.488 109.268 173.821 L 109.268 167.154 119.350 167.154 L 129.431 167.154 129.431 160.376 L 129.431 153.599 120.894 153.398 C 111.701 153.183,110.147 152.941,107.317 151.282 C 106.512 150.810,105.744 150.457,105.610 150.497 C 105.476 150.537,105.391 150.459,105.421 150.325 C 105.452 150.191,104.757 149.331,103.877 148.413 C 101.843 146.293,100.576 144.171,98.553 139.501 C 96.274 134.235,96.360 134.309,92.451 134.309 C 84.909 134.309,79.529 130.995,76.384 124.414 C 69.190 109.358,85.716 93.941,100.565 101.856 C 111.013 107.425,112.525 123.170,103.308 130.421 C 102.323 131.195,102.229 130.835,104.902 136.483 C 109.774 146.776,109.506 146.667,129.791 146.667 L 144.341 146.667 144.449 140.081 C 144.591 131.409,144.647 131.593,140.942 128.620 C 134.253 123.251,139.151 111.729,148.130 111.712 C 158.600 111.693,161.658 123.851,152.841 130.441 L 151.707 131.289 151.609 138.978 L 151.511 146.667 167.741 146.667 L 183.970 146.667 183.936 127.886 L 183.902 109.106 183.005 107.278 C 182.511 106.272,181.525 104.789,180.814 103.980 L 179.521 102.511 177.586 103.293 C 163.585 108.948,149.494 95.781,154.392 81.619 C 157.274 73.287,165.983 68.419,174.675 70.283 M223.089 95.514 C 219.788 96.721,220.721 101.458,224.261 101.462 C 227.296 101.466,228.007 97.125,225.190 95.788 C 224.069 95.256,223.868 95.230,223.089 95.514 M281.772 105.468 C 279.223 106.459,277.390 108.881,277.406 111.241 C 277.418 113.191,279.008 115.990,280.126 116.031 C 280.285 116.037,280.528 116.224,280.665 116.447 C 281.498 117.794,286.249 117.007,287.775 115.269 C 291.609 110.903,287.030 103.427,281.772 105.468 M89.053 109.455 C 83.252 111.241,82.210 120.327,87.391 123.946 C 93.849 128.457,102.664 121.788,100.024 114.390 C 99.452 112.788,97.939 110.824,97.490 111.101 C 97.276 111.233,97.229 111.169,97.370 110.940 C 98.206 109.587,92.142 108.504,89.053 109.455 M129.756 187.480 L 129.756 207.805 139.837 207.805 L 149.919 207.805 149.919 187.480 L 149.919 167.154 139.837 167.154 L 129.756 167.154 129.756 187.480 M63.902 178.683 C 60.807 179.822,59.410 184.196,61.160 187.273 C 64.079 192.405,72.181 190.166,72.181 184.228 C 72.181 180.035,67.944 177.197,63.902 178.683 M335.773 181.651 C 332.941 183.127,331.618 186.244,332.829 188.586 C 334.999 192.783,340.919 192.822,342.951 188.653 C 344.930 184.592,339.776 179.564,335.773 181.651 M318.211 225.743 C 315.277 227.357,316.222 231.870,319.494 231.870 C 320.732 231.870,322.602 229.977,322.602 228.723 C 322.602 226.548,319.982 224.770,318.211 225.743 M91.870 244.051 C 87.595 245.611,87.368 251.114,91.468 253.801 C 93.786 255.320,97.484 253.807,98.745 250.823 C 100.511 246.645,96.254 242.452,91.870 244.051 M197.886 342.227 C 193.099 344.457,191.249 349.414,193.511 353.945 C 196.301 359.531,204.447 360.005,207.959 354.786 C 212.360 348.245,204.910 338.955,197.886 342.227 M174.309 390.407 L 174.309 394.472 180.650 394.472 L 186.992 394.472 186.992 397.561 L 186.992 400.650 180.650 400.650 L 174.309 400.650 174.309 406.992 L 174.309 413.333 180.650 413.333 L 186.992 413.333 186.992 416.423 L 186.992 419.512 177.561 419.512 L 168.130 419.512 168.130 402.927 L 168.130 386.341 171.220 386.341 L 174.309 386.341 174.309 390.407 M163.252 391.382 L 163.252 394.472 157.073 394.472 L 150.894 394.472 150.894 399.350 L 150.894 404.228 157.073 404.228 L 163.252 404.228 163.252 407.317 L 163.252 410.407 157.073 410.407 L 150.894 410.407 150.894 414.959 L 150.894 419.512 147.642 419.512 L 144.390 419.512 144.390 403.902 L 144.390 388.293 153.821 388.293 L 163.252 388.293 163.252 391.382 M106.992 397.398 L 106.992 400.325 97.561 400.325 L 88.130 400.325 88.130 402.439 L 88.130 404.553 97.561 404.553 L 106.992 404.553 106.992 412.033 L 106.992 419.512 94.333 419.512 L 81.674 419.512 81.569 416.747 L 81.463 413.982 90.813 413.983 L 100.163 413.984 100.163 411.707 L 100.163 409.431 90.894 409.431 L 81.626 409.431 81.626 401.951 L 81.626 394.472 94.309 394.472 L 106.992 394.472 106.992 397.398 M138.211 406.992 L 138.211 419.512 125.528 419.512 L 112.846 419.512 112.846 406.992 L 112.846 394.472 125.528 394.472 L 138.211 394.472 138.211 406.992 M199.426 403.821 L 199.512 413.171 202.520 413.264 L 205.528 413.358 205.528 403.915 L 205.528 394.472 208.780 394.472 L 212.033 394.472 212.033 403.902 L 212.033 413.333 214.959 413.333 L 217.886 413.333 217.886 403.902 L 217.886 394.472 221.301 394.472 L 224.715 394.472 224.715 406.992 L 224.715 419.512 208.943 419.512 L 193.171 419.512 193.171 406.992 L 193.171 394.472 196.255 394.472 L 199.340 394.472 199.426 403.821 M255.935 406.992 L 255.935 419.512 243.252 419.512 L 230.569 419.512 230.569 412.033 L 230.569 404.553 239.837 404.553 L 249.106 404.553 249.106 402.602 L 249.106 400.650 239.837 400.650 L 230.569 400.650 230.569 397.561 L 230.569 394.472 243.252 394.472 L 255.935 394.472 255.935 406.992 M281.951 400.650 L 281.951 406.829 278.537 406.829 L 275.122 406.829 275.122 403.740 L 275.122 400.650 271.870 400.650 L 268.618 400.650 268.618 410.081 L 268.618 419.512 265.366 419.512 L 262.114 419.512 262.114 406.992 L 262.114 394.472 272.033 394.472 L 281.951 394.472 281.951 400.650 M312.520 401.951 L 312.520 409.431 303.089 409.431 L 293.659 409.431 293.659 411.382 L 293.659 413.333 303.089 413.333 L 312.520 413.333 312.520 416.423 L 312.520 419.512 299.837 419.512 L 287.154 419.512 287.154 406.992 L 287.154 394.472 299.837 394.472 L 312.520 394.472 312.520 401.951 M293.659 402.114 L 293.659 404.228 299.675 404.228 L 305.691 404.228 305.691 402.114 L 305.691 400.000 299.675 400.000 L 293.659 400.000 293.659 402.114 M119.350 406.992 L 119.350 413.333 125.366 413.333 L 131.382 413.333 131.382 406.992 L 131.382 400.650 125.366 400.650 L 119.350 400.650 119.350 406.992 M237.073 411.870 L 237.073 413.984 243.089 413.984 L 249.106 413.984 249.106 411.870 L 249.106 409.756 243.089 409.756 L 237.073 409.756 237.073 411.870 M200.572 447.561 L 200.655 467.967 196.750 467.967 L 192.846 467.967 192.845 461.382 C 192.845 457.760,192.748 448.536,192.629 440.884 L 192.414 426.971 196.451 427.063 L 200.488 427.154 200.572 447.561 M106.667 433.445 L 106.667 437.297 101.737 437.510 C 99.026 437.628,95.587 437.724,94.095 437.724 L 91.382 437.724 91.382 443.427 L 91.382 449.131 98.943 449.037 L 106.504 448.943 106.595 452.927 L 106.687 456.911 98.995 456.911 L 91.303 456.911 91.424 462.520 L 91.545 468.130 87.398 468.221 L 83.252 468.312 83.252 448.953 L 83.252 429.593 94.959 429.593 L 106.667 429.593 106.667 433.445 M276.738 438.618 L 276.729 441.138 271.085 454.309 L 265.441 467.480 261.392 467.570 L 257.342 467.661 253.660 459.115 C 245.234 439.558,245.854 441.180,245.854 438.673 L 245.854 436.401 249.487 436.493 L 253.121 436.585 257.189 446.260 C 259.426 451.581,261.344 455.935,261.449 455.935 C 261.555 455.935,263.236 451.947,265.184 447.073 C 267.132 442.199,268.923 437.736,269.164 437.154 L 269.602 436.098 273.175 436.098 L 276.748 436.098 276.738 438.618 M312.769 445.610 L 312.856 454.959 301.263 454.959 L 289.671 454.959 289.873 456.179 C 289.983 456.850,290.076 457.971,290.078 458.670 L 290.081 459.942 301.463 459.739 L 312.846 459.536 312.846 463.427 L 312.846 467.317 297.236 467.317 L 281.626 467.317 281.626 451.873 L 281.626 436.429 296.504 436.336 C 304.687 436.285,311.675 436.247,312.033 436.252 C 312.666 436.260,312.685 436.509,312.769 445.610 M238.821 437.764 C 238.933 438.323,239.024 445.274,239.024 453.211 L 239.024 467.642 223.421 467.642 L 207.817 467.642 207.730 452.195 L 207.642 436.748 223.130 436.748 L 238.618 436.748 238.821 437.764 M143.526 442.003 C 143.644 444.714,143.740 451.642,143.740 457.399 L 143.740 467.864 137.346 468.079 C 133.830 468.196,126.805 468.293,121.736 468.293 L 112.520 468.293 112.520 456.799 C 112.520 450.478,112.425 443.535,112.309 441.372 L 112.097 437.438 113.691 437.314 C 114.567 437.246,121.591 437.164,129.299 437.132 L 143.313 437.073 143.526 442.003 M175.610 444.715 L 175.610 452.358 171.545 452.358 L 167.480 452.358 167.480 448.618 L 167.480 444.878 163.415 444.878 L 159.350 444.878 159.350 456.423 L 159.350 467.967 155.285 467.967 L 151.220 467.967 151.220 452.520 L 151.220 437.073 163.415 437.073 L 175.610 437.073 175.610 444.715 M289.756 446.022 L 289.756 448.467 297.154 448.380 L 304.553 448.293 304.648 445.935 L 304.744 443.577 297.250 443.577 L 289.756 443.577 289.756 446.022 M215.935 452.201 L 215.935 459.850 223.333 459.762 L 230.732 459.675 230.846 458.699 C 230.909 458.163,230.856 454.760,230.729 451.138 L 230.498 444.553 223.216 444.553 L 215.935 444.553 215.935 452.201 M120.650 452.683 L 120.650 460.163 128.178 460.163 L 135.706 460.163 135.497 457.480 C 135.382 456.004,135.288 452.638,135.287 450.000 L 135.285 445.203 127.967 445.203 L 120.650 445.203 120.650 452.683 " stroke="none" fill="none" fill-rule="evenodd"></path><path id="path3" d="M183.866 128.618 C 183.867 130.943,183.919 131.852,183.981 130.637 C 184.044 129.422,184.044 127.520,183.980 126.409 C 183.917 125.299,183.866 126.293,183.866 128.618 M144.491 136.748 C 144.493 137.821,144.554 138.221,144.626 137.636 C 144.698 137.052,144.697 136.174,144.623 135.685 C 144.548 135.197,144.489 135.675,144.491 136.748 M210.876 157.724 C 210.876 163.000,210.920 165.159,210.975 162.520 C 211.030 159.882,211.030 155.565,210.975 152.927 C 210.920 150.289,210.876 152.447,210.876 157.724 M117.642 153.400 C 118.045 153.478,118.703 153.478,119.106 153.400 C 119.508 153.323,119.179 153.259,118.374 153.259 C 117.569 153.259,117.240 153.323,117.642 153.400 M129.568 160.000 C 129.568 163.667,129.615 165.167,129.673 163.333 C 129.731 161.500,129.731 158.500,129.673 156.667 C 129.615 154.833,129.568 156.333,129.568 160.000 M87.724 180.731 C 91.703 180.783,98.215 180.783,102.195 180.731 C 106.175 180.680,102.919 180.637,94.959 180.637 C 87.000 180.637,83.744 180.680,87.724 180.731 M134.573 208.048 C 137.312 208.103,141.702 208.103,144.329 208.048 C 146.956 207.993,144.715 207.949,139.350 207.949 C 133.984 207.949,131.834 207.994,134.573 208.048 M101.382 211.949 C 102.858 212.010,105.272 212.010,106.748 211.949 C 108.224 211.889,107.016 211.840,104.065 211.840 C 101.114 211.840,99.907 211.889,101.382 211.949 M296.356 225.608 C 297.751 225.669,299.946 225.669,301.234 225.607 C 302.523 225.545,301.382 225.495,298.699 225.496 C 296.016 225.496,294.962 225.547,296.356 225.608 M115.854 232.438 C 118.134 232.494,121.866 232.494,124.146 232.438 C 126.427 232.382,124.561 232.336,120.000 232.336 C 115.439 232.336,113.573 232.382,115.854 232.438 M277.642 232.438 C 280.191 232.493,284.362 232.493,286.911 232.438 C 289.459 232.383,287.374 232.338,282.276 232.338 C 277.179 232.338,275.093 232.383,277.642 232.438 M129.566 239.024 C 129.566 242.333,129.614 243.687,129.673 242.033 C 129.732 240.378,129.732 237.671,129.673 236.016 C 129.614 234.362,129.566 235.715,129.566 239.024 M152.114 273.084 C 152.874 273.152,154.118 273.152,154.878 273.084 C 155.638 273.015,155.016 272.959,153.496 272.959 C 151.976 272.959,151.354 273.015,152.114 273.084 M165.122 273.084 C 165.882 273.152,167.126 273.152,167.886 273.084 C 168.646 273.015,168.024 272.959,166.504 272.959 C 164.984 272.959,164.362 273.015,165.122 273.084 M234.715 273.088 C 236.549 273.146,239.549 273.146,241.382 273.088 C 243.215 273.030,241.715 272.983,238.049 272.983 C 234.382 272.983,232.882 273.030,234.715 273.088 M192.770 313.732 C 193.355 313.804,194.233 313.803,194.721 313.728 C 195.210 313.654,194.732 313.595,193.659 313.597 C 192.585 313.599,192.186 313.659,192.770 313.732 M205.947 313.737 C 206.982 313.801,208.592 313.801,209.524 313.735 C 210.457 313.670,209.610 313.617,207.642 313.618 C 205.675 313.618,204.912 313.672,205.947 313.737 M197.398 323.643 C 197.309 328.955,197.348 333.189,197.485 333.052 C 197.622 332.915,197.695 328.569,197.647 323.393 L 197.560 313.984 197.398 323.643 M217.975 349.919 C 217.975 350.724,218.038 351.053,218.116 350.650 C 218.193 350.248,218.193 349.589,218.116 349.187 C 218.038 348.785,217.975 349.114,217.975 349.919 M209.188 350.407 C 209.191 351.122,209.258 351.376,209.336 350.972 C 209.413 350.567,209.411 349.982,209.329 349.671 C 209.248 349.360,209.184 349.691,209.188 350.407 M106.780 397.398 C 106.780 398.919,106.836 399.541,106.905 398.780 C 106.973 398.020,106.973 396.776,106.905 396.016 C 106.836 395.256,106.780 395.878,106.780 397.398 M138.034 406.992 C 138.034 413.789,138.077 416.615,138.130 413.273 C 138.182 409.932,138.182 404.371,138.130 400.916 C 138.077 397.461,138.034 400.195,138.034 406.992 M205.672 403.902 C 205.672 409.000,205.717 411.085,205.772 408.537 C 205.827 405.988,205.827 401.817,205.772 399.268 C 205.717 396.720,205.672 398.805,205.672 403.902 M218.028 403.089 C 218.028 407.740,218.074 409.597,218.129 407.217 C 218.185 404.836,218.185 401.031,218.129 398.761 C 218.073 396.491,218.028 398.439,218.028 403.089 M312.334 401.951 C 312.334 405.976,312.381 407.622,312.438 405.610 C 312.495 403.598,312.495 400.305,312.438 398.293 C 312.381 396.280,312.334 397.927,312.334 401.951 M255.757 407.317 C 255.757 414.114,255.800 416.941,255.853 413.599 C 255.906 410.257,255.906 404.696,255.853 401.241 C 255.801 397.786,255.757 400.520,255.757 407.317 M281.760 400.650 C 281.760 403.780,281.809 405.061,281.868 403.496 C 281.928 401.931,281.928 399.370,281.868 397.805 C 281.809 396.240,281.760 397.520,281.760 400.650 M305.795 402.276 C 305.795 403.439,305.854 403.915,305.926 403.333 C 305.998 402.752,305.998 401.801,305.926 401.220 C 305.854 400.638,305.795 401.114,305.795 402.276 M131.518 406.829 C 131.518 410.317,131.566 411.744,131.625 410.000 C 131.683 408.256,131.683 405.402,131.625 403.659 C 131.566 401.915,131.518 403.341,131.518 406.829 M249.210 402.602 C 249.210 403.764,249.269 404.240,249.341 403.659 C 249.413 403.077,249.413 402.126,249.341 401.545 C 249.269 400.963,249.210 401.439,249.210 402.602 M275.239 403.577 C 275.239 405.276,275.294 405.972,275.361 405.122 C 275.428 404.272,275.428 402.882,275.361 402.033 C 275.294 401.183,275.239 401.878,275.239 403.577 M106.806 412.033 C 106.806 416.057,106.852 417.703,106.909 415.691 C 106.966 413.679,106.966 410.386,106.909 408.374 C 106.852 406.362,106.806 408.008,106.806 412.033 M100.272 411.707 C 100.272 413.049,100.329 413.598,100.400 412.927 C 100.470 412.256,100.470 411.159,100.400 410.488 C 100.329 409.817,100.272 410.366,100.272 411.707 M249.212 411.870 C 249.214 413.122,249.273 413.594,249.343 412.920 C 249.413 412.245,249.412 411.220,249.340 410.643 C 249.269 410.066,249.211 410.618,249.212 411.870 M312.312 416.260 C 312.312 417.959,312.367 418.654,312.434 417.805 C 312.501 416.955,312.501 415.565,312.434 414.715 C 312.367 413.866,312.312 414.561,312.312 416.260 M192.647 427.456 C 192.549 427.711,192.534 428.260,192.613 428.676 C 192.724 429.256,192.767 429.189,192.801 428.384 L 192.846 427.338 196.667 427.235 L 200.488 427.132 196.656 427.062 C 193.591 427.006,192.790 427.085,192.647 427.456 M87.417 429.837 C 89.618 429.893,93.131 429.893,95.222 429.836 C 97.313 429.780,95.512 429.734,91.220 429.734 C 86.927 429.734,85.216 429.780,87.417 429.837 M276.524 438.211 C 276.525 439.285,276.586 439.684,276.658 439.100 C 276.731 438.515,276.729 437.637,276.655 437.149 C 276.581 436.660,276.522 437.138,276.524 438.211 M209.197 436.987 C 210.052 437.055,211.369 437.054,212.124 436.986 C 212.878 436.917,212.179 436.862,210.569 436.863 C 208.959 436.864,208.342 436.920,209.197 436.987 M281.767 444.715 C 281.767 449.187,281.813 451.061,281.869 448.881 C 281.925 446.700,281.925 443.042,281.869 440.751 C 281.813 438.460,281.767 440.244,281.767 444.715 M134.374 437.315 C 135.930 437.375,138.564 437.375,140.227 437.316 C 141.891 437.257,140.618 437.208,137.398 437.208 C 134.179 437.207,132.818 437.256,134.374 437.315 M175.424 444.390 C 175.424 448.504,175.471 450.142,175.528 448.030 C 175.584 445.919,175.584 442.553,175.527 440.551 C 175.470 438.549,175.424 440.276,175.424 444.390 M245.958 439.024 C 245.958 440.187,246.017 440.663,246.089 440.081 C 246.161 439.500,246.161 438.549,246.089 437.967 C 246.017 437.386,245.958 437.862,245.958 439.024 M200.466 450.894 C 200.466 455.366,200.512 457.240,200.568 455.060 C 200.624 452.879,200.624 449.220,200.568 446.930 C 200.512 444.639,200.466 446.423,200.466 450.894 M291.626 443.493 C 292.744 443.556,294.573 443.556,295.691 443.493 C 296.809 443.429,295.894 443.377,293.659 443.377 C 291.423 443.377,290.508 443.429,291.626 443.493 M123.513 445.121 C 125.356 445.179,128.283 445.179,130.017 445.120 C 131.752 445.062,130.244 445.014,126.667 445.015 C 123.089 445.015,121.670 445.063,123.513 445.121 M159.138 447.480 C 159.138 449.000,159.194 449.622,159.263 448.862 C 159.331 448.102,159.331 446.858,159.263 446.098 C 159.194 445.337,159.138 445.959,159.138 447.480 M215.744 450.569 C 215.744 453.789,215.793 455.062,215.852 453.398 C 215.911 451.735,215.911 449.101,215.852 447.545 C 215.792 445.989,215.744 447.350,215.744 450.569 M83.393 454.634 C 83.393 459.195,83.439 461.061,83.495 458.780 C 83.551 456.500,83.551 452.768,83.495 450.488 C 83.439 448.207,83.393 450.073,83.393 454.634 M120.477 453.740 L 120.488 460.325 126.992 460.335 L 133.496 460.345 127.080 460.247 L 120.664 460.149 120.565 453.652 L 120.467 447.154 120.477 453.740 M292.129 448.697 C 293.523 448.758,295.718 448.758,297.007 448.696 C 298.295 448.635,297.154 448.585,294.472 448.585 C 291.789 448.586,290.734 448.636,292.129 448.697 M106.463 452.846 C 106.464 454.813,106.517 455.576,106.582 454.541 C 106.647 453.506,106.646 451.896,106.581 450.964 C 106.515 450.031,106.462 450.878,106.463 452.846 M238.836 460.976 C 238.836 464.553,238.883 466.061,238.941 464.326 C 239.000 462.592,239.000 459.665,238.942 457.822 C 238.884 455.979,238.836 457.398,238.836 460.976 M100.744 456.826 C 101.869 456.890,103.625 456.890,104.647 456.825 C 105.668 456.761,104.748 456.709,102.602 456.710 C 100.455 456.710,99.620 456.763,100.744 456.826 M143.533 462.927 C 143.534 464.715,143.589 465.406,143.655 464.461 C 143.721 463.516,143.720 462.052,143.653 461.209 C 143.586 460.365,143.533 461.138,143.533 462.927 M151.324 465.366 C 151.324 466.528,151.383 467.004,151.455 466.423 C 151.527 465.841,151.527 464.890,151.455 464.309 C 151.383 463.728,151.324 464.203,151.324 465.366 M288.230 467.235 C 290.521 467.291,294.180 467.291,296.360 467.235 C 298.541 467.178,296.667 467.133,292.195 467.133 C 287.724 467.133,285.939 467.179,288.230 467.235 M234.724 467.556 C 235.489 467.624,236.660 467.623,237.326 467.553 C 237.992 467.484,237.366 467.427,235.935 467.429 C 234.504 467.430,233.959 467.487,234.724 467.556 M114.076 468.208 C 115.021 468.274,116.484 468.273,117.328 468.206 C 118.172 468.139,117.398 468.085,115.610 468.086 C 113.821 468.087,113.131 468.142,114.076 468.208 " stroke="none" fill="#989898" fill-rule="evenodd"></path><path id="path4" d="" stroke="none" fill="#7c7c7c" fill-rule="evenodd"></path><path id="path5" d="M224.538 406.992 C 224.538 413.789,224.581 416.615,224.634 413.273 C 224.686 409.932,224.687 404.371,224.634 400.916 C 224.581 397.461,224.538 400.195,224.538 406.992 M200.465 434.797 C 200.465 439.000,200.511 440.720,200.568 438.618 C 200.625 436.516,200.625 433.077,200.568 430.976 C 200.511 428.874,200.465 430.593,200.465 434.797 M192.662 437.398 C 192.662 441.959,192.707 443.825,192.763 441.545 C 192.819 439.264,192.819 435.533,192.763 433.252 C 192.707 430.972,192.662 432.837,192.662 437.398 M106.460 433.984 C 106.461 435.772,106.516 436.463,106.582 435.518 C 106.647 434.573,106.647 433.109,106.580 432.266 C 106.513 431.422,106.459 432.195,106.460 433.984 M271.789 436.336 C 272.549 436.404,273.793 436.404,274.553 436.336 C 275.313 436.267,274.691 436.211,273.171 436.211 C 271.650 436.211,271.028 436.267,271.789 436.336 M119.106 437.316 C 121.386 437.372,125.118 437.372,127.398 437.316 C 129.679 437.260,127.813 437.215,123.252 437.215 C 118.691 437.215,116.825 437.260,119.106 437.316 M94.239 437.639 C 95.184 437.704,96.647 437.704,97.491 437.637 C 98.334 437.570,97.561 437.516,95.772 437.517 C 93.984 437.518,93.294 437.573,94.239 437.639 M112.288 441.138 C 112.291 442.033,112.354 442.360,112.428 441.865 C 112.503 441.371,112.501 440.639,112.424 440.239 C 112.347 439.839,112.286 440.244,112.288 441.138 M238.838 446.829 C 238.838 450.854,238.885 452.500,238.942 450.488 C 238.999 448.476,238.999 445.183,238.942 443.171 C 238.885 441.159,238.838 442.805,238.838 446.829 M299.767 443.492 C 300.712 443.558,302.175 443.557,303.019 443.491 C 303.863 443.424,303.089 443.370,301.301 443.371 C 299.512 443.372,298.822 443.426,299.767 443.492 M133.740 445.102 C 134.053 445.184,134.565 445.184,134.878 445.102 C 135.191 445.020,134.935 444.953,134.309 444.953 C 133.683 444.953,133.427 445.020,133.740 445.102 M143.554 452.195 C 143.554 456.309,143.601 457.947,143.658 455.835 C 143.714 453.724,143.714 450.358,143.657 448.356 C 143.600 446.354,143.554 448.081,143.554 452.195 M230.688 447.967 C 230.689 449.756,230.743 450.446,230.809 449.501 C 230.875 448.556,230.874 447.093,230.808 446.249 C 230.741 445.406,230.687 446.179,230.688 447.967 M135.418 451.057 C 135.418 454.187,135.467 455.467,135.527 453.902 C 135.586 452.337,135.586 449.776,135.527 448.211 C 135.467 446.646,135.418 447.927,135.418 451.057 M99.579 449.021 C 100.779 449.084,102.828 449.084,104.132 449.022 C 105.437 448.960,104.455 448.909,101.951 448.909 C 99.447 448.908,98.380 448.959,99.579 449.021 M281.760 460.813 C 281.760 463.943,281.809 465.224,281.868 463.659 C 281.928 462.093,281.928 459.533,281.868 457.967 C 281.809 456.402,281.760 457.683,281.760 460.813 M289.849 458.049 C 289.852 458.943,289.915 459.270,289.989 458.776 C 290.064 458.282,290.062 457.550,289.985 457.150 C 289.908 456.750,289.847 457.154,289.849 458.049 M307.561 459.752 C 308.500 459.818,310.037 459.818,310.976 459.752 C 311.915 459.686,311.146 459.633,309.268 459.633 C 307.390 459.633,306.622 459.686,307.561 459.752 M83.366 465.691 C 83.366 467.211,83.422 467.833,83.490 467.073 C 83.559 466.313,83.559 465.069,83.490 464.309 C 83.422 463.549,83.366 464.171,83.366 465.691 M91.464 466.829 C 91.468 467.545,91.534 467.799,91.612 467.395 C 91.690 466.990,91.687 466.405,91.606 466.094 C 91.524 465.783,91.461 466.114,91.464 466.829 M261.301 467.317 L 257.073 467.509 261.200 467.576 C 263.675 467.616,265.408 467.512,265.528 467.317 C 265.639 467.138,265.684 467.022,265.629 467.058 C 265.574 467.095,263.626 467.211,261.301 467.317 M303.838 467.235 C 305.591 467.293,308.372 467.293,310.017 467.234 C 311.662 467.175,310.228 467.127,306.829 467.127 C 303.431 467.128,302.085 467.176,303.838 467.235 M196.179 467.881 C 197.028 467.948,198.419 467.948,199.268 467.881 C 200.118 467.814,199.423 467.760,197.724 467.760 C 196.024 467.760,195.329 467.814,196.179 467.881 M123.352 468.211 C 125.643 468.267,129.302 468.266,131.482 468.210 C 133.663 468.154,131.789 468.108,127.317 468.108 C 122.846 468.109,121.061 468.155,123.352 468.211 " stroke="none" fill="#c8c7c8" fill-rule="evenodd"></path><path id="path6" d="M182.114 74.248 C 182.114 74.304,182.589 74.780,183.171 75.305 L 184.228 76.260 183.272 75.203 C 182.382 74.218,182.114 73.997,182.114 74.248 M227.067 98.537 C 227.067 99.163,227.134 99.419,227.216 99.106 C 227.298 98.793,227.298 98.280,227.216 97.967 C 227.134 97.654,227.067 97.911,227.067 98.537 M157.398 98.313 C 157.398 98.369,157.874 98.845,158.455 99.370 L 159.512 100.325 158.557 99.268 C 157.667 98.283,157.398 98.062,157.398 98.313 M169.837 104.623 C 170.329 104.698,171.134 104.698,171.626 104.623 C 172.118 104.549,171.715 104.488,170.732 104.488 C 169.748 104.488,169.346 104.549,169.837 104.623 M91.626 108.847 C 92.028 108.925,92.687 108.925,93.089 108.847 C 93.492 108.770,93.163 108.706,92.358 108.706 C 91.553 108.706,91.224 108.770,91.626 108.847 M190.725 139.024 C 190.725 154.585,190.764 160.999,190.813 153.276 C 190.861 145.554,190.861 132.822,190.813 124.984 C 190.764 117.145,190.725 123.463,190.725 139.024 M83.653 117.073 C 83.653 117.699,83.720 117.955,83.801 117.642 C 83.883 117.329,83.883 116.817,83.801 116.504 C 83.720 116.191,83.653 116.447,83.653 117.073 M144.388 143.481 C 144.300 145.396,144.343 146.846,144.484 146.704 C 144.625 146.563,144.697 144.996,144.645 143.223 L 144.549 140.000 144.388 143.481 M119.413 146.909 C 121.326 146.967,124.545 146.967,126.567 146.910 C 128.589 146.852,127.024 146.805,123.089 146.805 C 119.154 146.805,117.500 146.852,119.413 146.909 M159.593 146.910 C 164.110 146.961,171.500 146.961,176.016 146.910 C 180.533 146.859,176.837 146.818,167.805 146.818 C 158.772 146.818,155.077 146.859,159.593 146.910 M213.415 146.908 C 214.801 146.969,217.069 146.969,218.455 146.908 C 219.841 146.847,218.707 146.798,215.935 146.798 C 213.163 146.798,212.028 146.847,213.415 146.908 M232.460 146.910 C 235.377 146.964,240.060 146.964,242.866 146.910 C 245.672 146.856,243.285 146.812,237.561 146.812 C 231.837 146.812,229.542 146.856,232.460 146.910 M263.159 146.908 L 271.846 147.002 271.958 150.087 L 272.070 153.172 272.051 150.001 L 272.033 146.829 263.252 146.821 L 254.472 146.813 263.159 146.908 M122.206 153.411 C 123.151 153.477,124.614 153.476,125.458 153.409 C 126.302 153.343,125.528 153.289,123.740 153.290 C 121.951 153.290,121.261 153.345,122.206 153.411 M274.074 153.409 C 274.839 153.478,276.009 153.477,276.675 153.407 C 277.341 153.337,276.715 153.281,275.285 153.282 C 273.854 153.283,273.309 153.341,274.074 153.409 M282.683 153.729 C 283.175 153.803,283.980 153.803,284.472 153.729 C 284.963 153.654,284.561 153.593,283.577 153.593 C 282.593 153.593,282.191 153.654,282.683 153.729 M285.610 159.908 C 286.102 159.982,286.907 159.982,287.398 159.908 C 287.890 159.833,287.488 159.772,286.504 159.772 C 285.520 159.772,285.118 159.833,285.610 159.908 M271.993 163.577 C 271.993 165.634,272.046 166.476,272.110 165.447 C 272.175 164.419,272.175 162.736,272.110 161.707 C 272.046 160.679,271.993 161.520,271.993 163.577 M65.452 170.965 C 65.946 171.040,66.678 171.038,67.078 170.961 C 67.478 170.883,67.073 170.822,66.179 170.825 C 65.285 170.827,64.957 170.890,65.452 170.965 M87.724 187.235 C 91.703 187.287,98.215 187.287,102.195 187.235 C 106.175 187.184,102.919 187.141,94.959 187.141 C 87.000 187.141,83.744 187.184,87.724 187.235 M84.634 205.102 C 84.947 205.184,85.459 205.184,85.772 205.102 C 86.085 205.020,85.829 204.953,85.203 204.953 C 84.577 204.953,84.321 205.020,84.634 205.102 M84.634 224.940 C 84.947 225.021,85.459 225.021,85.772 224.940 C 86.085 224.858,85.829 224.791,85.203 224.791 C 84.577 224.791,84.321 224.858,84.634 224.940 M296.322 232.113 C 298.592 232.169,302.397 232.169,304.778 232.113 C 307.158 232.057,305.301 232.012,300.650 232.012 C 296.000 232.011,294.052 232.057,296.322 232.113 M272.008 239.024 C 272.008 242.870,272.055 244.443,272.113 242.520 C 272.170 240.598,272.170 237.451,272.113 235.528 C 272.055 233.606,272.008 235.179,272.008 239.024 M319.272 238.604 C 319.677 238.682,320.262 238.679,320.573 238.597 C 320.884 238.516,320.553 238.452,319.837 238.456 C 319.122 238.460,318.868 238.526,319.272 238.604 M108.709 245.768 C 109.564 245.835,110.881 245.834,111.636 245.766 C 112.391 245.698,111.691 245.643,110.081 245.644 C 108.472 245.645,107.854 245.701,108.709 245.768 M99.262 248.780 C 99.262 249.407,99.329 249.663,99.411 249.350 C 99.493 249.037,99.493 248.524,99.411 248.211 C 99.329 247.898,99.262 248.154,99.262 248.780 M114.715 252.601 C 117.443 252.655,121.907 252.655,124.634 252.601 C 127.362 252.547,125.130 252.502,119.675 252.502 C 114.220 252.502,111.988 252.547,114.715 252.601 M83.902 257.012 C 83.902 257.068,84.378 257.544,84.959 258.069 L 86.016 259.024 85.061 257.967 C 84.171 256.982,83.902 256.761,83.902 257.012 M311.138 261.368 C 311.541 261.445,312.199 261.445,312.602 261.368 C 313.004 261.290,312.675 261.227,311.870 261.227 C 311.065 261.227,310.736 261.290,311.138 261.368 M231.364 283.252 C 231.364 288.886,231.409 291.191,231.463 288.374 C 231.517 285.557,231.517 280.947,231.463 278.130 C 231.409 275.313,231.364 277.618,231.364 283.252 M117.484 290.965 C 117.978 291.040,118.710 291.038,119.110 290.961 C 119.510 290.883,119.106 290.822,118.211 290.825 C 117.317 290.827,116.990 290.890,117.484 290.965 M106.158 296.016 L 105.203 297.073 106.260 296.118 C 107.245 295.228,107.467 294.959,107.215 294.959 C 107.159 294.959,106.684 295.435,106.158 296.016 M135.685 307.967 C 135.685 308.593,135.752 308.850,135.834 308.537 C 135.916 308.224,135.916 307.711,135.834 307.398 C 135.752 307.085,135.685 307.341,135.685 307.967 M204.042 321.301 C 204.042 325.504,204.089 327.224,204.145 325.122 C 204.202 323.020,204.202 319.581,204.145 317.480 C 204.089 315.378,204.042 317.098,204.042 321.301 M117.967 325.108 C 118.370 325.185,119.028 325.185,119.431 325.108 C 119.833 325.030,119.504 324.967,118.699 324.967 C 117.894 324.967,117.565 325.030,117.967 325.108 M163.046 391.382 C 163.046 393.171,163.101 393.861,163.167 392.916 C 163.233 391.971,163.232 390.507,163.165 389.664 C 163.099 388.820,163.045 389.593,163.046 391.382 M150.700 399.350 C 150.700 402.122,150.750 403.256,150.811 401.870 C 150.872 400.484,150.872 398.215,150.811 396.829 C 150.750 395.443,150.700 396.577,150.700 399.350 M211.851 403.902 C 211.851 409.179,211.896 411.337,211.951 408.699 C 212.005 406.061,212.005 401.744,211.951 399.106 C 211.896 396.467,211.851 398.626,211.851 403.902 M186.784 397.724 C 186.784 399.423,186.839 400.118,186.906 399.268 C 186.973 398.419,186.973 397.028,186.906 396.179 C 186.839 395.329,186.784 396.024,186.784 397.724 M293.437 401.951 C 293.437 403.114,293.496 403.589,293.569 403.008 C 293.641 402.427,293.641 401.476,293.569 400.894 C 293.496 400.313,293.437 400.789,293.437 401.951 M87.909 402.602 C 87.909 403.764,87.968 404.240,88.040 403.659 C 88.112 403.077,88.112 402.126,88.040 401.545 C 87.968 400.963,87.909 401.439,87.909 402.602 M119.161 406.992 C 119.161 410.569,119.208 412.077,119.267 410.343 C 119.325 408.608,119.325 405.681,119.267 403.838 C 119.209 401.996,119.161 403.415,119.161 406.992 M268.437 410.081 C 268.437 415.358,268.481 417.516,268.536 414.878 C 268.591 412.240,268.591 407.923,268.536 405.285 C 268.481 402.646,268.437 404.805,268.437 410.081 M163.046 407.317 C 163.046 409.106,163.101 409.796,163.167 408.851 C 163.233 407.906,163.232 406.442,163.165 405.599 C 163.099 404.755,163.045 405.528,163.046 407.317 M236.855 411.870 C 236.856 413.122,236.915 413.594,236.985 412.920 C 237.056 412.245,237.055 411.220,236.983 410.643 C 236.911 410.066,236.853 410.618,236.855 411.870 M293.434 411.545 C 293.436 412.618,293.497 413.018,293.569 412.433 C 293.641 411.849,293.640 410.971,293.566 410.482 C 293.491 409.993,293.432 410.472,293.434 411.545 M150.698 414.959 C 150.698 417.553,150.749 418.614,150.811 417.317 C 150.872 416.020,150.872 413.898,150.811 412.602 C 150.749 411.305,150.698 412.366,150.698 414.959 M186.784 416.585 C 186.784 418.285,186.839 418.980,186.906 418.130 C 186.973 417.280,186.973 415.890,186.906 415.041 C 186.839 414.191,186.784 414.886,186.784 416.585 M100.744 429.835 C 101.869 429.898,103.625 429.898,104.647 429.833 C 105.668 429.769,104.748 429.717,102.602 429.718 C 100.455 429.718,99.620 429.771,100.744 429.835 M83.393 438.049 C 83.393 442.610,83.439 444.476,83.495 442.195 C 83.551 439.915,83.551 436.183,83.495 433.902 C 83.439 431.622,83.393 433.488,83.393 438.049 M247.236 436.660 C 247.907 436.730,249.004 436.730,249.675 436.660 C 250.346 436.590,249.797 436.532,248.455 436.532 C 247.114 436.532,246.565 436.590,247.236 436.660 M285.122 436.665 C 286.955 436.723,289.955 436.723,291.789 436.665 C 293.622 436.607,292.122 436.560,288.455 436.560 C 284.789 436.560,283.289 436.607,285.122 436.665 M217.317 436.991 C 219.598 437.047,223.329 437.047,225.610 436.991 C 227.890 436.935,226.024 436.889,221.463 436.889 C 216.902 436.889,215.037 436.935,217.317 436.991 M154.390 437.316 C 156.224 437.374,159.224 437.374,161.057 437.316 C 162.890 437.258,161.390 437.210,157.724 437.210 C 154.057 437.210,152.557 437.258,154.390 437.316 M91.191 443.089 C 91.192 446.309,91.240 447.582,91.299 445.919 C 91.359 444.255,91.358 441.621,91.299 440.065 C 91.239 438.509,91.191 439.870,91.191 443.089 M312.662 445.854 C 312.662 450.415,312.707 452.280,312.763 450.000 C 312.819 447.720,312.819 443.988,312.763 441.707 C 312.707 439.427,312.662 441.293,312.662 445.854 M304.825 445.528 C 304.825 446.870,304.882 447.419,304.952 446.748 C 305.023 446.077,305.023 444.980,304.952 444.309 C 304.882 443.638,304.825 444.187,304.825 445.528 M151.361 455.122 C 151.360 459.593,151.406 461.468,151.462 459.287 C 151.518 457.107,151.519 453.448,151.463 451.157 C 151.407 448.866,151.361 450.650,151.361 455.122 M301.951 448.455 L 299.024 448.658 301.851 448.719 C 303.454 448.754,304.764 448.640,304.878 448.455 C 304.989 448.276,305.034 448.158,304.979 448.192 C 304.923 448.225,303.561 448.344,301.951 448.455 M167.580 450.569 C 167.582 451.642,167.643 452.042,167.715 451.458 C 167.788 450.873,167.786 449.995,167.712 449.506 C 167.638 449.018,167.579 449.496,167.580 450.569 M159.166 458.537 C 159.166 463.098,159.211 464.963,159.267 462.683 C 159.323 460.402,159.323 456.671,159.267 454.390 C 159.211 452.110,159.166 453.976,159.166 458.537 M171.301 452.271 C 172.061 452.339,173.305 452.339,174.065 452.271 C 174.825 452.202,174.203 452.146,172.683 452.146 C 171.163 452.146,170.541 452.202,171.301 452.271 M207.943 460.325 C 207.944 464.260,207.991 465.825,208.048 463.803 C 208.105 461.781,208.105 458.561,208.047 456.649 C 207.990 454.736,207.943 456.390,207.943 460.325 M301.401 454.877 C 303.602 454.934,307.114 454.933,309.206 454.877 C 311.297 454.820,309.496 454.774,305.203 454.774 C 300.911 454.775,299.199 454.821,301.401 454.877 M93.265 456.826 C 94.390 456.890,96.146 456.890,97.167 456.825 C 98.189 456.761,97.268 456.709,95.122 456.710 C 92.976 456.710,92.140 456.763,93.265 456.826 M215.707 458.211 C 215.707 459.195,215.768 459.598,215.843 459.106 C 215.917 458.614,215.917 457.809,215.843 457.317 C 215.768 456.825,215.707 457.228,215.707 458.211 M112.650 463.415 C 112.650 466.008,112.700 467.069,112.762 465.772 C 112.824 464.476,112.824 462.354,112.762 461.057 C 112.700 459.760,112.650 460.821,112.650 463.415 M200.452 463.252 C 200.452 465.577,200.504 466.486,200.567 465.271 C 200.629 464.056,200.629 462.154,200.566 461.043 C 200.502 459.933,200.451 460.927,200.452 463.252 M192.961 464.878 C 192.960 466.488,193.015 467.187,193.083 466.433 C 193.151 465.678,193.152 464.361,193.085 463.506 C 193.018 462.651,192.962 463.268,192.961 464.878 M221.238 467.560 C 223.529 467.616,227.188 467.616,229.369 467.560 C 231.549 467.504,229.675 467.458,225.203 467.458 C 220.732 467.458,218.948 467.504,221.238 467.560 M153.753 467.883 C 154.877 467.947,156.634 467.947,157.655 467.882 C 158.676 467.818,157.756 467.766,155.610 467.766 C 153.463 467.767,152.628 467.820,153.753 467.883 M87.732 468.206 C 88.497 468.275,89.668 468.274,90.334 468.204 C 91.000 468.134,90.374 468.078,88.943 468.079 C 87.512 468.080,86.967 468.137,87.732 468.206 " stroke="none" fill="#747c7c" fill-rule="evenodd"></path><path id="path7" d="" stroke="none" fill="#bcbcbc" fill-rule="evenodd"></path><path id="path8" d="M150.072 187.642 C 150.072 198.821,150.113 203.394,150.162 197.805 C 150.212 192.215,150.212 183.069,150.162 177.480 C 150.113 171.890,150.072 176.463,150.072 187.642 M170.223 282.927 C 170.223 287.667,170.269 289.606,170.324 287.236 C 170.380 284.866,170.380 280.988,170.324 278.618 C 170.269 276.248,170.223 278.187,170.223 282.927 " stroke="none" fill="#bcb4b4" fill-rule="evenodd"></path></g></svg>