<svg width="48" height="43" viewBox="0 0 48 43" fill="none" xmlns="http://www.w3.org/2000/svg">
<g clip-path="url(#clip0_1937_1382)">
<path d="M46.4933 38.473L40 32.6919V10.4514L36.9333 5.39887C36.7071 5.01366 36.3677 4.69114 35.9518 4.46614C35.5359 4.24114 35.0592 4.12222 34.5733 4.12222C34.0875 4.12222 33.6108 4.24114 33.1949 4.46614C32.779 4.69114 32.4396 5.01366 32.2133 5.39887L29.3333 10.4633V23.1841L4.94668 1.44525C4.76019 1.2768 4.52192 1.16192 4.26225 1.11525C4.00259 1.06859 3.7333 1.09225 3.4887 1.18323C3.24411 1.27421 3.0353 1.42837 2.8889 1.62608C2.7425 1.82378 2.66514 2.05606 2.66668 2.29331V11.9444H5.56001V13.8555H2.66668V21.5H5.56001V23.4111H2.66668V31.3541H5.56001V33.2653H2.66668V39.3211C2.66668 39.6379 2.80715 39.9417 3.0572 40.1657C3.30725 40.3897 3.64639 40.5155 4.00001 40.5155H45.5467C45.8115 40.5169 46.0708 40.4476 46.2915 40.3165C46.5122 40.1853 46.6843 39.9983 46.7858 39.7791C46.8874 39.56 46.9138 39.3188 46.8617 39.0862C46.8096 38.8535 46.6814 38.6401 46.4933 38.473ZM13.3333 31.0555V20.2339L25.4267 31.0555H13.3333ZM37.3333 33.5758H32V30.6733H37.3333V33.5758ZM37.3333 28.798H32V11.0486L34.5867 6.54553L37.3333 11.0605V28.798Z" fill="#263455"/>
</g>
<defs>
<clipPath id="clip0_1937_1382">
<rect width="48" height="43" fill="white"/>
</clipPath>
</defs>
</svg>
