<svg width="45" height="48" viewBox="0 0 45 48" fill="none" xmlns="http://www.w3.org/2000/svg">
<path d="M30.3152 40.2772C30.082 40.1258 29.8788 39.9229 29.7173 39.6771C29.6427 39.5637 29.5797 39.4438 29.5275 39.3199H3.03071V11.462H38.9963V29.6522C39.7641 29.7262 40.4084 30.2641 40.6789 31.0007C40.9184 30.8607 41.1853 30.7741 41.4658 30.7477C41.6556 30.7301 41.8441 30.7427 42.0269 30.7812V4.52205C42.0269 3.03654 40.8941 1.828 39.5016 1.828H2.52556C1.13301 1.828 0 3.03654 0 4.52205V39.8588C0 41.3443 1.13301 42.5527 2.52556 42.5527H30.085C29.8699 42.0882 29.8189 41.5638 29.9455 41.0592C30.0184 40.769 30.1447 40.5043 30.3152 40.2772ZM36.2229 6.35183C36.2229 5.80248 36.6404 5.35704 37.1554 5.35704H38.0879C38.6031 5.35704 39.0204 5.80237 39.0204 6.35183V7.47922C39.0204 8.02856 38.6029 8.4739 38.0879 8.4739H37.1554C36.6403 8.4739 36.2229 8.02856 36.2229 7.47922V6.35183ZM31.8867 6.35183C31.8867 5.80248 32.3042 5.35704 32.8192 5.35704H33.7518C34.2669 5.35704 34.6843 5.80237 34.6843 6.35183V7.47922C34.6843 8.02856 34.2668 8.4739 33.7518 8.4739H32.8192C32.3042 8.4739 31.8867 8.02856 31.8867 7.47922V6.35183ZM27.5503 6.35183C27.5503 5.80248 27.9679 5.35704 28.4828 5.35704H29.4153C29.9305 5.35704 30.3479 5.80237 30.3479 6.35183V7.47922C30.3479 8.02856 29.9305 8.4739 29.4153 8.4739H28.4828C27.9679 8.4739 27.5503 8.02856 27.5503 7.47922V6.35183Z" fill="#263455"/>
<path d="M44.994 38.38L44.7138 36.6849C44.676 36.4566 44.472 36.3041 44.2578 36.3444L42.8446 36.61C42.6749 36.1854 42.4583 35.7876 42.2011 35.4235L43.1242 34.2499C43.1912 34.1648 43.2239 34.0545 43.2149 33.9435C43.2057 33.8325 43.1556 33.7301 43.0756 33.6584L41.8396 32.552C41.7597 32.4804 41.6561 32.4457 41.5521 32.4554C41.4481 32.4651 41.352 32.5185 41.285 32.6038L40.3627 33.7765C39.9841 33.5708 39.5792 33.4121 39.1549 33.3074V31.7766C39.1549 31.5448 38.9787 31.3567 38.7613 31.3567H37.1475C36.9303 31.3567 36.7539 31.5448 36.7539 31.7766V33.3074C36.3294 33.412 35.9249 33.5708 35.5461 33.7765L34.6237 32.6039C34.4839 32.4262 34.2357 32.4031 34.0691 32.5521L32.833 33.6584C32.7531 33.7301 32.703 33.8325 32.6938 33.9435C32.6848 34.0545 32.7174 34.1649 32.7845 34.2502L33.7076 35.4236C33.4509 35.7876 33.2338 36.1856 33.0642 36.6101L31.6509 36.3444C31.4372 36.3042 31.2329 36.4566 31.195 36.6849L30.9148 38.38C30.8967 38.4896 30.9202 38.6023 30.9799 38.6937C31.04 38.785 31.131 38.8471 31.2338 38.8664L32.6482 39.1323C32.6712 39.5996 32.7475 40.0518 32.8703 40.4824L31.6272 41.2477C31.5368 41.3031 31.4709 41.395 31.4438 41.5025C31.4168 41.61 31.431 41.7246 31.4831 41.821L32.2899 43.3117C32.3419 43.4082 32.428 43.4785 32.5288 43.5073C32.5623 43.5169 32.5965 43.5215 32.6307 43.5215C32.6992 43.5215 32.767 43.5026 32.8274 43.4653L34.0715 42.6991C34.364 43.0335 34.6943 43.3297 35.0552 43.5803L34.564 45.0197C34.5284 45.1244 34.533 45.2399 34.5771 45.3408C34.6213 45.4417 34.7011 45.5198 34.7992 45.5578L36.3153 46.1463C36.3588 46.1632 36.4044 46.1719 36.45 46.1719C36.5068 46.1719 36.5639 46.1588 36.6165 46.1325C36.7111 46.0855 36.7841 46.0002 36.8198 45.8955L37.3109 44.4561C37.5215 44.4833 37.7358 44.4974 37.9532 44.4974C38.1707 44.4974 38.385 44.4831 38.5956 44.4561L39.0868 45.8955C39.1224 46.0002 39.1957 46.0855 39.2901 46.1325C39.3426 46.1587 39.3995 46.1719 39.4566 46.1719C39.502 46.1719 39.5477 46.1635 39.5912 46.1463L41.1075 45.5578C41.2053 45.5198 41.2853 45.4415 41.3293 45.3408C41.3735 45.2399 41.3782 45.1244 41.3425 45.0197L40.8513 43.5805C41.2119 43.33 41.5421 43.0335 41.835 42.6994L43.079 43.4655C43.1394 43.5026 43.2073 43.5218 43.2758 43.5218C43.3099 43.5218 43.3444 43.5169 43.3777 43.5075C43.4785 43.4787 43.5645 43.4082 43.6166 43.3119L44.4234 41.821C44.4755 41.7248 44.4897 41.61 44.4627 41.5025C44.4356 41.3953 44.3697 41.3034 44.2792 41.2477L43.0364 40.4826C43.1592 40.0519 43.2353 39.5998 43.2583 39.1325L44.6726 38.8665C44.7755 38.8472 44.8668 38.7851 44.9266 38.6938C44.9886 38.6023 45.0121 38.4896 44.994 38.38ZM37.9545 41.0737C36.7591 41.0737 35.7899 40.0398 35.7899 38.7647C35.7899 37.4895 36.7593 36.4557 37.9545 36.4557C39.15 36.4557 40.1193 37.4895 40.1193 38.7647C40.1193 40.0398 39.15 41.0737 37.9545 41.0737Z" fill="#263455"/>
<path d="M17.6488 26.9043C17.6488 26.3611 17.3504 25.8622 16.8884 25.6334L12.6604 23.5379L16.8885 21.4423C17.3504 21.2132 17.6488 20.7144 17.6488 20.1714V20.135C17.6488 19.6537 17.4217 19.212 17.0417 18.9537C16.8315 18.8105 16.5866 18.7347 16.3338 18.7347C16.1433 18.7347 15.952 18.7794 15.7809 18.8642L9.02141 22.2171C8.55966 22.4462 8.26143 22.945 8.26143 23.4879V23.5881C8.26143 24.1303 8.55955 24.6287 9.02152 24.8589L15.7816 28.2122C15.9564 28.2985 16.1425 28.3423 16.3348 28.3423C16.5853 28.3423 16.8294 28.2664 17.0417 28.1223C17.4219 27.8631 17.6489 27.4217 17.6489 26.941L17.6488 26.9043Z" fill="#263455"/>
<path d="M24.3181 15.3182C24.0716 14.9582 23.675 14.7433 23.2571 14.7433H23.2235C22.6498 14.7433 22.1467 15.1348 21.972 15.7167L17.5184 30.4359C17.3916 30.8609 17.463 31.329 17.7092 31.6889C17.9558 32.0488 18.3524 32.2638 18.7702 32.2638H18.804C19.3775 32.2638 19.8802 31.8722 20.0548 31.2903L24.5078 16.5723C24.6358 16.1476 24.5648 15.6789 24.3181 15.3182Z" fill="#263455"/>
<path d="M33.0055 22.2169L26.2459 18.864C26.0753 18.7794 25.8844 18.7347 25.6939 18.7347C25.4412 18.7347 25.1962 18.8103 24.9861 18.9533C24.6054 19.212 24.3784 19.6536 24.3784 20.1349V20.1713C24.3784 20.7138 24.6766 21.2127 25.1389 21.4427L29.3668 23.5379L25.1388 25.6332C24.6768 25.8621 24.3784 26.361 24.3784 26.9042V26.9409C24.3784 27.4215 24.6054 27.8629 24.9858 28.1223C25.1974 28.2661 25.4417 28.3421 25.6926 28.3421C25.8846 28.3421 26.0705 28.2984 26.2465 28.2117L33.0064 24.8585C33.4679 24.6289 33.7659 24.1303 33.7659 23.5881V23.4879C33.7656 22.9449 33.4674 22.4461 33.0055 22.2169Z" fill="#263455"/>
</svg>
